<svg width="343" height="343" viewBox="0 0 343 343" fill="none" xmlns="http://www.w3.org/2000/svg">
<path d="M256.41 197.558C258.825 195.417 261.257 193.156 260.76 190.022C260.506 188.348 259.604 186.841 258.249 185.826C256.894 184.81 255.194 184.368 253.516 184.593L244.063 142.173C244.765 143.029 244.851 143.337 245.313 143.337C245.428 143.338 245.541 143.31 245.642 143.256C245.744 143.202 245.831 143.124 245.895 143.029C248.602 139.25 251.029 135.277 253.157 131.144C257.027 124.979 250.502 121.588 246.906 127.719C246.617 126.685 246.114 125.724 245.43 124.898C244.745 124.072 243.894 123.399 242.932 122.923C241.913 122.563 240.801 122.563 239.781 122.923L215.514 14.1232C214.454 9.4534 211.591 5.39214 207.549 2.82546C203.506 0.258778 198.612 -0.605004 193.936 0.422563C128.601 14.911 86.7794 23.7993 82.5664 24.7755C72.6163 27.1046 65.4406 47.039 67.667 56.6808L88.1666 148.321C88.0437 148.219 87.8893 148.164 87.7298 148.164C87.5704 148.164 87.416 148.219 87.2931 148.321C71.0236 160.206 59.772 179.147 54.4287 198.157C46.2426 226.98 52.2709 259.81 62.7347 287.759C64.9195 293.996 68.0815 299.846 72.1026 305.091C72.5136 305.622 73.3699 304.971 73.0102 304.423C66.0229 293.805 62.8717 284.711 59.1383 271.627C52.4593 249.055 49.7191 224.976 55.148 201.993C64.3103 164.779 87.5158 150.719 88.4063 149.417L95.8389 182.795C89.0393 190.268 83.514 198.808 79.4838 208.073C79.1584 208.809 79.8263 209.135 80.2202 208.33C86.6116 195.124 95.7631 183.444 107.056 174.078C113.136 169.129 119.695 164.162 127.196 162.809C130.283 162.23 133.47 162.533 136.393 163.683C148.073 168.444 144.271 181.1 137.9 192.009C122.898 217.698 121.425 220.369 119.336 226.141C115.105 239.019 119.336 250.117 121.391 262.995C126.203 292.315 114.9 302.128 112.571 305.467C111.646 306.82 112.725 307.077 113.153 306.718C116.621 303.746 119.318 299.98 121.014 295.74L124.559 311.684C125.077 314.025 126.053 316.24 127.429 318.203C128.805 320.166 130.555 321.838 132.579 323.124C134.603 324.409 136.86 325.283 139.222 325.694C141.584 326.106 144.004 326.047 146.343 325.522L255.177 301.272C264.237 299.182 275.043 283.872 272.731 272.243C272.663 269.743 273.862 275.806 256.41 197.558ZM102.141 176.356L73.0273 45.8916C72.1316 41.9075 72.7667 37.7323 74.8067 34.1949C76.8467 30.6574 80.1423 28.0165 84.0392 26.7963C84.69 26.5737 193.113 2.15227 194.261 1.89538C196.379 1.42381 198.569 1.37516 200.705 1.75223C202.842 2.1293 204.883 2.92465 206.711 4.09263C208.539 5.26061 210.119 6.77822 211.359 8.55833C212.6 10.3384 213.476 12.346 213.938 14.4657L238.308 123.78C237.635 124.324 237.12 125.04 236.819 125.852C234.798 130.425 238.737 135.323 241.785 139.33L251.941 184.902C250.832 185.255 249.81 185.838 248.944 186.614C248.824 182.521 247.145 178.822 243.309 178.582L240.227 164.71C242.265 159.915 243.104 158.391 243.772 154.606C243.966 153.565 243.907 152.493 243.6 151.48C243.294 150.467 242.748 149.542 242.01 148.783C241.271 148.024 240.362 147.454 239.357 147.12C238.352 146.787 237.282 146.699 236.236 146.865L208.835 23.5595C207.891 19.4599 205.365 15.8994 201.808 13.6539C198.25 11.4084 193.949 10.6599 189.842 11.5715L94.5545 32.6876C90.4572 33.6355 86.8995 36.1622 84.6548 39.7186C82.41 43.2749 81.6595 47.5735 82.5664 51.6801L109.094 170.704C106.543 172.486 104.316 174.352 102.141 176.356ZM132.231 161.097C124.045 160.223 116.818 164.967 110.276 169.66L83.8851 51.3547C83.0684 47.6377 83.7578 43.7484 85.8025 40.5386C87.8471 37.3288 91.0804 35.0599 94.7942 34.2289C197.977 11.1604 190.938 12.6333 193.25 12.6161C196.528 12.6109 199.709 13.7277 202.264 15.781C204.818 17.8342 206.594 20.7001 207.294 23.902L234.695 147.208C230.139 148.424 227.536 153.407 226.937 157.483C223.906 153.288 218.271 151.489 214.949 155.565C214.194 156.851 213.833 158.33 213.913 159.819C213.992 161.308 214.507 162.741 215.394 163.94C216.677 165.758 218.097 167.475 219.641 169.077L210.616 171.681C209.982 162.741 205.221 146.677 195.785 133.61C194.149 131.091 192.002 128.944 189.483 127.308C192.555 124.474 195.131 121.145 197.104 117.46C197.183 117.322 197.215 117.162 197.194 117.004C197.172 116.846 197.099 116.699 196.985 116.588C196.871 116.476 196.724 116.405 196.565 116.386C196.407 116.368 196.247 116.402 196.111 116.484C195.734 116.724 195.323 116.947 194.929 117.152C195.451 116.359 195.855 115.493 196.128 114.583C196.154 114.463 196.148 114.339 196.112 114.222C196.075 114.105 196.008 114 195.918 113.917C195.828 113.834 195.718 113.776 195.598 113.748C195.479 113.721 195.354 113.725 195.237 113.761C193.525 114.463 192.103 112.648 191.658 110.833C190.373 105.489 191.658 103.229 188.558 96.721C191.211 92.3131 192.849 87.3696 193.353 82.2497C193.661 81.1199 193.607 79.922 193.199 78.8245C192.912 78.3376 192.475 77.9573 191.952 77.741C191.43 77.5247 190.852 77.4842 190.305 77.6257C186.192 78.3516 182.209 79.6848 178.488 81.5818C179.036 77.2489 179.704 73.1559 179.841 69.0457C182.752 67.7612 190.853 64.0792 189.157 57.1775C188.284 53.5639 183.352 49.0256 179.447 50.173C179.658 47.892 179.076 45.608 177.801 43.7053C176.525 41.8027 174.633 40.3975 172.443 39.7263C169.975 39.1792 167.396 39.4657 165.109 40.541C162.822 41.6164 160.956 43.4198 159.804 45.6689C158.061 43.6653 155.951 42.0143 153.587 40.8052C151.804 40.0483 149.855 39.7639 147.93 39.9796C146.005 40.1952 144.167 40.9036 142.596 42.0364C141.024 43.1691 139.771 44.6879 138.957 46.4462C138.144 48.2044 137.797 50.1428 137.951 52.074C132.351 50.8067 126.083 54.5744 126.391 60.6369C126.436 62.0202 126.824 63.3706 127.521 64.5665C128.217 65.7624 129.2 66.7661 130.382 67.4872C131.977 68.1523 133.635 68.6571 135.331 68.9943C136.272 69.3168 137.122 69.8597 137.81 70.5777C138.498 71.2957 139.005 72.168 139.287 73.1216C141.022 77.881 142.396 82.7642 143.397 87.7299C143.397 87.9012 143.688 87.3874 142.164 89.0144C140.965 87.8549 139.664 86.806 138.277 85.8803C136.752 84.6301 135.365 83.517 133.944 82.4552C124.816 75.3651 124.49 89.4254 128.498 98.4164C129.784 101.443 131.516 104.26 133.636 106.774C133.533 107.27 133.464 107.784 133.396 108.281C132.642 108.024 131.683 109.394 131.495 110.165C131.462 110.269 131.455 110.379 131.473 110.486C131.491 110.593 131.535 110.694 131.6 110.781C131.666 110.868 131.751 110.939 131.848 110.986C131.946 111.034 132.054 111.058 132.163 111.055H133.122C132.888 113.451 132.808 115.859 132.882 118.265C133.002 120.937 132.882 127.222 130.279 127.445C130.16 127.441 130.044 127.474 129.944 127.539C129.845 127.604 129.768 127.697 129.723 127.807C129.678 127.917 129.668 128.038 129.694 128.154C129.72 128.27 129.781 128.375 129.868 128.455C130.544 129.031 131.285 129.526 132.077 129.928H130.502C130.395 129.925 130.29 129.953 130.199 130.008C130.107 130.062 130.033 130.142 129.985 130.236C129.937 130.331 129.916 130.438 129.926 130.544C129.935 130.65 129.975 130.751 130.039 130.836C134.851 136.607 142.027 138.594 149.665 139.398C149.049 142.447 147.696 147.293 145.572 149.828C144.807 150.6 143.907 151.227 142.918 151.678C138.311 152.791 136.067 158.528 138.397 163.22C136.516 162.081 134.414 161.357 132.231 161.097ZM203.8 195.982C200.683 201.343 198.08 202.165 192.035 202.952L154.358 208.313C150.179 209.066 135.177 211.293 136.359 207.268C137.557 204.271 144.339 195.948 146.069 193.824C145.11 201.12 148.038 204.1 155.077 202.867C192.754 196.016 191.041 197.13 191.778 195.828C193.182 196.102 194.227 194.732 195.203 193.516C196.836 191.202 198.323 188.788 199.656 186.289C200.837 184.342 201.628 182.184 201.985 179.935C205.539 179.245 209.179 179.112 212.774 179.541C212.913 179.662 213.022 179.812 213.093 179.982C213.164 180.151 213.196 180.334 213.185 180.518C212.825 181.425 213.956 178.497 203.817 195.982H203.8ZM213.75 182.607C214.184 185.219 213.569 187.897 212.037 190.057L206.232 199.87C205.011 202.457 203.425 204.857 201.522 206.994C200.272 208.013 198.732 208.613 197.121 208.707C195.717 208.912 147.233 214.975 147.233 214.975C140.657 216.122 137.643 215.899 136.307 209.717C140.623 212.286 152.08 209.529 191.812 204.34C197.892 203.552 201.488 202.85 204.845 196.821L213.75 182.607ZM160.215 176.305C160.582 176.558 160.921 176.851 161.225 177.178C160.282 178.028 159.459 179.002 158.776 180.072C158.767 180.117 158.767 180.164 158.776 180.209C158.785 180.254 158.803 180.296 158.828 180.335C158.854 180.373 158.886 180.405 158.924 180.431C158.963 180.457 159.005 180.474 159.05 180.483C159.095 180.492 159.142 180.492 159.187 180.483C159.232 180.475 159.274 180.457 159.313 180.431C159.351 180.406 159.383 180.373 159.409 180.335C159.435 180.297 159.452 180.254 159.461 180.209C160.168 179.382 160.948 178.62 161.79 177.932C162.153 178.525 162.473 179.143 162.749 179.781C162.612 179.97 162.527 180.038 162.527 180.158C162.522 180.214 162.529 180.271 162.546 180.325C162.563 180.378 162.591 180.428 162.628 180.471C162.664 180.514 162.709 180.549 162.759 180.575C162.81 180.601 162.864 180.616 162.921 180.62C163.297 180.62 163.863 179.37 166.346 177.195C166.517 177.418 166.62 177.623 166.911 177.623C166.974 177.626 167.037 177.615 167.095 177.592C167.153 177.568 167.206 177.533 167.25 177.487C167.294 177.442 167.327 177.388 167.349 177.329C167.37 177.27 167.378 177.207 167.373 177.144C167.341 176.922 167.272 176.708 167.168 176.51C167.735 176.016 168.362 175.596 169.035 175.26C169.404 175.711 169.725 176.199 169.994 176.716C168.936 177.781 167.963 178.926 167.082 180.141C167.03 180.205 167.003 180.286 167.005 180.368C167.008 180.451 167.041 180.53 167.097 180.591C167.153 180.651 167.23 180.689 167.312 180.698C167.394 180.706 167.477 180.685 167.545 180.637C167.784 180.637 168.024 179.935 170.49 177.64C170.582 177.975 170.773 178.273 171.038 178.497C169.035 180.637 167.339 182.778 168.161 185.775C168.292 186.283 168.523 186.76 168.841 187.178C169.158 187.595 169.556 187.945 170.011 188.207C170.157 188.975 170.596 189.656 171.235 190.107C171.874 190.558 172.663 190.742 173.436 190.622C174.461 190.484 175.444 190.122 176.313 189.56C178.437 190.964 180.389 188.875 181.691 187.608C183.385 185.913 184.921 184.067 186.28 182.093C187.137 180.86 186.845 181.168 187.034 181.22C187.513 181.357 187.667 180.518 189.414 178.599C189.63 179.032 189.9 179.435 190.219 179.798C190.276 179.891 190.367 179.958 190.473 179.984C190.579 180.01 190.691 179.992 190.784 179.935C190.877 179.878 190.944 179.787 190.97 179.681C190.996 179.575 190.978 179.463 190.921 179.37C190.697 178.85 190.415 178.356 190.082 177.897C190.639 177.265 191.258 176.691 191.932 176.185C192.268 176.681 192.566 177.202 192.822 177.743C191.675 178.907 190.674 180.207 189.842 181.614C189.671 182.145 190.51 182.264 190.51 181.802C191.322 180.646 192.245 179.573 193.268 178.599C193.627 179.302 193.884 180.004 194.364 179.798C194.479 179.734 194.57 179.634 194.622 179.514C194.675 179.393 194.686 179.258 194.655 179.13C194.547 178.652 194.386 178.186 194.175 177.743C195.378 176.735 196.654 175.819 197.994 175.003C193.864 179.908 191.389 185.991 190.921 192.386C190.956 193.135 190.922 193.886 190.819 194.629V194.766C190.39 195.742 188.781 195.76 188.558 195.794C187.856 195.794 190.493 195.451 156.019 201.394C152.097 202.062 148.381 202.165 147.679 198.311C146.617 190.879 150.796 181.083 160.215 176.305ZM161.277 175.842C162.246 175.345 163.277 174.976 164.342 174.746C161.054 176.647 162.612 176.921 161.345 175.842H161.277ZM165.147 175.568C166.157 176.801 165.849 175.568 163.434 178.771C163.241 178.216 162.951 177.7 162.578 177.247C163.363 176.585 164.226 176.021 165.147 175.568ZM166.106 175.072C166.786 174.835 167.436 174.519 168.041 174.13C168.401 174.506 168.418 174.13 166.825 175.38C166.363 175.722 166.705 175.705 166.106 175.072ZM172.956 175.465C173.111 175.791 172.956 175.722 173.196 175.979C172.905 176.356 172.066 177.401 171.74 177.692C171.642 177.376 171.509 177.072 171.347 176.784C171.621 176.647 171.86 176.39 173.025 175.465H172.956ZM170.799 175.894C170.676 175.653 170.533 175.424 170.37 175.209C170.231 175.035 170.082 174.869 169.925 174.712C170.515 174.401 171.121 174.121 171.74 173.873C171.974 174.078 172.192 174.301 172.391 174.541C171.861 174.966 171.352 175.418 170.867 175.894H170.799ZM189.431 177.007C189.892 176.195 190.298 175.354 190.647 174.489L191.298 175.414C190.599 175.883 189.98 176.461 189.466 177.127L189.431 177.007ZM192.737 175.568C193.49 175.089 193.644 175.02 194.175 174.643C194.929 174.643 195.699 174.643 196.47 174.763C192.685 177.024 194.484 177.76 192.805 175.568H192.737ZM199.073 181.545C198.972 181.397 198.818 181.293 198.643 181.255C198.468 181.217 198.285 181.247 198.131 181.34C197.823 181.579 197.823 181.648 196.933 182.881C196.744 182.675 196.556 182.504 196.385 182.299C196.316 182.209 196.216 182.148 196.105 182.129C195.994 182.11 195.879 182.134 195.785 182.196C195.271 182.538 195.888 183.292 196.265 183.908C195.956 184.388 195.648 184.885 195.391 185.364C195.333 185.442 195.3 185.536 195.295 185.633C195.29 185.73 195.313 185.827 195.362 185.911C195.412 185.995 195.484 186.062 195.572 186.105C195.659 186.148 195.757 186.164 195.854 186.152C195.854 186.152 196.111 186.152 196.162 186.032C197.515 184.662 196.641 184.73 197.874 185.587C198.023 185.679 198.199 185.715 198.371 185.69C197.549 187.197 193.696 194.15 192.12 194.835C192.162 187.633 194.836 180.695 199.638 175.328C199.641 175.387 199.658 175.445 199.688 175.495C199.718 175.546 199.759 175.589 199.81 175.62C199.981 175.962 200.152 176.305 200.306 176.664C200.898 179.434 200.375 182.326 198.851 184.713C198.851 184.491 198.731 184.474 197.892 183.84C199.022 182.504 199.501 182.093 199.142 181.545H199.073ZM199.947 173.564C199.856 173.503 199.748 173.47 199.638 173.47C199.528 173.47 199.421 173.503 199.33 173.564C196.685 173.16 194.005 173.028 191.332 173.171C196.173 162.482 197.113 150.434 193.987 139.124C193.963 139.035 193.922 138.95 193.866 138.876C193.81 138.802 193.739 138.74 193.659 138.693C193.579 138.646 193.49 138.615 193.398 138.603C193.306 138.59 193.212 138.596 193.122 138.619C193.032 138.643 192.948 138.684 192.874 138.74C192.799 138.796 192.737 138.867 192.69 138.947C192.643 139.027 192.613 139.116 192.6 139.208C192.588 139.3 192.593 139.394 192.617 139.484C194.375 146.293 194.717 153.39 193.621 160.336C192.525 167.283 190.015 173.93 186.246 179.867C184.701 182.143 183.026 184.327 181.228 186.409C180.303 187.488 179.396 189.012 177.084 188.43C176.908 188.334 176.764 188.189 176.67 188.012C176.576 187.836 176.535 187.636 176.553 187.436C176.707 185.827 177.46 185.724 177.769 183.737C177.769 183.624 177.724 183.515 177.643 183.434C177.563 183.354 177.454 183.309 177.341 183.309C177.227 183.309 177.118 183.354 177.038 183.434C176.958 183.515 176.912 183.624 176.912 183.737C176.562 184.472 176.162 185.181 175.714 185.861C175.473 186.277 175.323 186.739 175.273 187.217C175.223 187.695 175.274 188.178 175.423 188.635L174.635 189.029C172.785 189.902 171.552 189.252 171.21 188.139C170.388 185.484 173.659 183.241 173.556 182.641C173.547 182.566 173.519 182.495 173.473 182.434C173.428 182.373 173.368 182.326 173.298 182.296C173.228 182.267 173.152 182.256 173.077 182.266C173.002 182.275 172.931 182.304 172.871 182.35C171.433 183.326 170.413 184.804 170.011 186.494C168.298 184.371 170.011 181.477 171.723 179.815C181.673 170.225 182.872 155.206 178.574 142.139C178.488 141.693 177.735 141.796 177.82 142.139C180.132 152.791 180.68 163.135 175.303 172.674C171.231 172.469 167.15 172.792 163.16 173.633C158.228 175.037 160.3 175.825 160.266 172.879C161.062 165.991 160.259 159.011 157.92 152.483C157.629 151.678 156.892 152.072 157.064 152.688C157.418 153.83 157.726 155.029 157.988 156.285C157.626 157.828 157.174 159.349 156.636 160.84C155.976 162.753 154.687 164.386 152.979 165.472C151.272 166.558 149.246 167.032 147.233 166.817C147.56 166.729 147.864 166.574 148.126 166.362C148.389 166.15 148.604 165.885 148.758 165.584C148.89 165.655 149.036 165.696 149.186 165.704C150.179 165.704 151.755 163.991 152.354 163.289C152.827 162.547 153.066 161.681 153.042 160.802C153.017 159.923 152.73 159.071 152.217 158.357C151.511 156.76 150.644 155.24 149.631 153.818C149.67 153.714 149.67 153.598 149.631 153.493C148.673 152.388 147.369 151.639 145.932 151.369C148.929 148.749 150.522 143.132 151.07 139.279C164 140.203 179.053 136.556 188.746 128.044C189.658 128.776 190.521 129.565 191.332 130.407C196.95 136.076 205.29 150.633 208.458 166.885C208.595 167.57 209.297 171.372 209.589 172.023C206.163 172.999 203.56 173.736 201.026 174.678C200.775 174.236 200.43 173.856 200.015 173.564H199.947ZM135.126 129.894C134.954 129.157 133.91 129.654 131.529 128.044C135.228 125.766 133.618 116.792 134.098 110.816C135.811 110.816 137.523 110.627 139.236 110.404C139.254 111.787 139.595 113.147 140.231 114.375C140.868 115.602 141.782 116.665 142.901 117.477C142.113 117.477 141.325 117.323 140.554 117.306C139.784 117.289 137.352 117.306 137.129 117.837C137.104 117.891 137.091 117.949 137.089 118.008C137.088 118.067 137.099 118.126 137.121 118.181C137.144 118.235 137.178 118.285 137.22 118.326C137.263 118.367 137.313 118.399 137.369 118.419C139.403 118.384 141.438 118.453 143.466 118.625C145.545 118.901 147.601 119.336 149.614 119.926C149.714 119.926 149.81 119.887 149.88 119.816C149.951 119.745 149.991 119.65 149.991 119.55C149.991 119.45 149.951 119.354 149.88 119.283C149.81 119.213 149.714 119.173 149.614 119.173L149.271 119.053C151.422 118.789 153.404 117.755 154.852 116.144C156.3 114.532 157.116 112.451 157.149 110.285C157.408 110.267 157.667 110.314 157.903 110.422C158.23 112.425 159.228 114.257 160.735 115.617C162.241 116.977 164.166 117.784 166.192 117.906C166.144 117.944 166.109 117.995 166.091 118.053C166.073 118.111 166.072 118.173 166.089 118.231C166.26 118.556 166.671 118.231 167.425 117.888C169.538 117.736 171.529 116.838 173.042 115.354C176.844 113.641 178.865 112.888 181.348 111.689C181.879 111.569 181.468 110.713 181.091 110.918C169.274 115.097 176.81 114.874 175.542 107.493C182.153 107.493 184.242 105.541 188.695 100.848C190.065 106.26 189.294 112.836 192.771 114.857C193.246 115.156 193.803 115.3 194.364 115.268C193.826 116.437 193.016 117.459 192 118.248C191.869 118.345 191.775 118.484 191.733 118.642C191.691 118.799 191.704 118.967 191.769 119.116C191.835 119.266 191.95 119.388 192.094 119.464C192.239 119.54 192.405 119.564 192.565 119.533C193.288 119.331 193.997 119.085 194.689 118.796C192.198 122.807 188.952 126.296 185.133 129.072C165.832 142.395 139.082 139.09 131.786 130.904C132.764 130.896 133.739 130.792 134.697 130.596C134.847 130.559 134.976 130.465 135.057 130.333C135.137 130.202 135.162 130.044 135.126 129.894ZM153.604 42.552C155.823 43.9435 157.777 45.7179 159.376 47.7925C159.477 47.8971 159.605 47.9733 159.745 48.0136C159.885 48.0538 160.034 48.0569 160.176 48.0223C160.317 47.9877 160.448 47.9167 160.554 47.8163C160.66 47.716 160.738 47.5897 160.78 47.45C161.631 45.2857 163.215 43.4893 165.256 42.3749C167.297 41.2604 169.665 40.8988 171.946 41.3532C174.02 41.9652 175.768 43.3731 176.808 45.2695C177.847 47.1659 178.094 49.3967 177.495 51.4746C177.446 51.6536 177.457 51.8436 177.526 52.0159C177.594 52.1882 177.717 52.3336 177.875 52.4302C178.034 52.5267 178.219 52.5693 178.404 52.5514C178.588 52.5335 178.762 52.4561 178.899 52.3309C180.869 50.6183 183.711 52.6563 184.533 53.307C185.434 53.9265 186.187 54.7376 186.738 55.682C187.288 56.6265 187.623 57.6811 187.719 58.7702C187.719 63.7538 182.239 66.1343 178.591 67.727C178.461 67.7997 178.354 67.907 178.281 68.037C178.209 68.167 178.173 68.3146 178.18 68.4634C178.06 73.036 177.323 77.7798 176.775 82.4038C175.063 83.2772 174.395 83.654 174.395 83.654C174.234 83.6085 174.079 83.5453 173.933 83.4656C174.138 82.027 175.32 74.1492 175.268 72.6935C175.235 72.5907 175.169 72.5012 175.082 72.4377C174.994 72.3743 174.889 72.3401 174.78 72.3401C174.672 72.3401 174.567 72.3743 174.479 72.4377C174.391 72.5012 174.326 72.5907 174.292 72.6935C173.967 73.8751 173.145 82.9689 173.128 83.0717C170.921 82.0625 168.569 81.4093 166.157 81.1365C166.294 79.7664 166.586 58.8729 166.586 58.1365C166.586 57.8625 166.312 57.8796 166.14 57.8796C166.075 57.8795 166.012 57.9042 165.964 57.9487C165.917 57.9933 165.888 58.0543 165.883 58.1194C165.044 67.0762 164.856 78.2422 164.976 81.0166H164.462C160.268 80.4708 156.004 80.9649 152.046 82.4552C151.84 80.4343 150.333 72.625 149.254 67.8297C149.254 67.4358 148.552 67.2988 148.552 67.8297C148.545 67.8693 148.545 67.91 148.552 67.9496C149.854 75.1424 150.573 81.1707 150.916 82.9004C148.433 84.0024 146.125 85.4622 144.065 87.2333C143.381 83.3126 142.489 79.4311 141.394 75.6049C138.756 66.511 135.725 68.0352 131.906 66.6823C130.92 66.2652 130.045 65.6227 129.352 64.8064C128.659 63.9901 128.167 63.0228 127.916 61.982C127.665 60.9413 127.661 59.8561 127.904 58.8135C128.148 57.7709 128.633 56.8 129.32 55.9787C130.444 54.6941 131.949 53.8021 133.616 53.4324C135.282 53.0628 137.023 53.2348 138.585 53.9236C139.15 54.1462 139.63 53.5811 139.561 52.9988C139.209 51.202 139.372 49.3424 140.032 47.6345C140.691 45.9265 141.82 44.4398 143.288 43.3459C144.757 42.2519 146.504 41.5953 148.329 41.4519C150.155 41.3084 151.983 41.6838 153.604 42.5349V42.552ZM173.333 84.1678L172.888 84.3904C172.786 84.4772 172.72 84.5982 172.701 84.7305C172.683 84.8629 172.713 84.9975 172.787 85.1091C172.86 85.2206 172.972 85.3014 173.101 85.3362C173.23 85.371 173.368 85.3574 173.487 85.2981C177.89 82.8415 182.547 80.8719 187.376 79.4239C188.661 79.0814 191.555 77.9853 192.223 79.2698C192.233 79.4238 192.233 79.5782 192.223 79.7322C190.363 79.789 188.568 80.4235 187.085 81.5475L178.06 86.6852C177.358 87.0963 178.505 87.8327 178.591 87.199C178.591 87.0278 178.18 87.336 189.312 81.4105C189.568 81.2735 191.949 80.1089 192.291 81.1194C191.041 91.5147 187.976 94.3747 186.383 97.5773C186.314 97.7043 186.294 97.8524 186.329 97.993C186.363 98.1335 186.448 98.2563 186.568 98.3375C186.687 98.4187 186.833 98.4524 186.976 98.4322C187.119 98.412 187.25 98.3392 187.342 98.228C187.445 98.1082 187.513 97.9712 187.616 97.8513C187.824 98.2859 188.007 98.7319 188.164 99.1871C180.458 107.202 181.776 104.565 175.337 106.722C174.784 104.597 173.469 102.749 171.641 101.532C169.813 100.314 167.601 99.812 165.427 100.121C163.252 100.43 161.268 101.529 159.852 103.208C158.436 104.886 157.687 107.027 157.749 109.223C157.517 109.114 157.267 109.05 157.012 109.034C156.729 106.889 155.675 104.921 154.048 103.494C152.421 102.068 150.331 101.282 148.167 101.282C146.003 101.282 143.913 102.068 142.286 103.494C140.659 104.921 139.605 106.889 139.321 109.034C137.609 109.274 135.896 109.343 134.184 109.428C134.849 103.954 136.708 98.6924 139.63 94.0151C151.378 75.2452 173.128 84.1678 173.333 84.1678ZM171.98 114.806C168.555 116.518 168.555 116.81 166.842 116.81C165.01 116.831 163.228 116.209 161.807 115.052C160.386 113.894 159.416 112.275 159.067 110.476C158.718 108.677 159.011 106.812 159.895 105.207C160.779 103.602 162.199 102.358 163.906 101.692C165.614 101.026 167.501 100.981 169.238 101.563C170.976 102.146 172.454 103.32 173.415 104.88C174.375 106.441 174.758 108.289 174.496 110.103C174.234 111.917 173.344 113.581 171.98 114.806ZM156.002 111.072C155.783 113.053 154.814 114.874 153.293 116.162C151.773 117.45 149.817 118.106 147.828 117.997C145.839 117.887 143.967 117.019 142.597 115.572C141.228 114.125 140.465 112.209 140.465 110.216C140.465 108.224 141.228 106.307 142.597 104.86C143.967 103.413 145.839 102.545 147.828 102.436C149.817 102.326 151.773 102.983 153.293 104.27C154.814 105.558 155.783 107.379 156.002 109.36C154.872 110.216 154.991 111.723 155.968 111.141L156.002 111.072ZM139.082 93.4842C137.574 90.9153 134.44 87.1305 133.07 85.2638C131.7 83.3971 130.964 82.2668 129.149 82.4552C128.738 82.4552 128.686 82.8148 128.84 82.9861C129.32 83.5512 129.799 82.0784 131.82 85.0069C133.416 86.979 134.903 89.0372 136.273 91.1722C138.825 94.8714 138.945 93.6383 138.174 94.8714C137.375 93.6306 136.308 92.5849 135.051 91.8114C133.794 91.0378 132.38 90.556 130.913 90.4015C130.8 90.399 130.691 90.4361 130.603 90.5062C130.515 90.5763 130.454 90.6751 130.432 90.7852C130.41 90.8954 130.427 91.0099 130.48 91.1088C130.533 91.2077 130.62 91.2847 130.724 91.3263C133.531 91.7989 136.04 93.3548 137.711 95.6592L137.335 96.3099C136.6 95.5815 135.674 95.0767 134.663 94.8543C133.532 94.6283 132.388 94.4682 131.238 94.3747C131.132 94.3656 131.026 94.3948 130.939 94.4572C130.853 94.5195 130.792 94.6108 130.767 94.7144C130.742 94.8181 130.755 94.9272 130.804 95.022C130.853 95.1168 130.934 95.191 131.032 95.231C133.019 95.9846 135.108 95.3852 136.992 97.1491C136.718 97.6458 136.461 98.1595 136.239 98.6733C135.409 98.7621 134.608 99.0309 133.892 99.4611C132.574 100.095 133.139 100.968 133.738 100.66C134.334 100.294 134.98 100.017 135.656 99.8379C134.922 101.651 134.349 103.525 133.944 105.438C127.916 97.9711 126.254 88.4149 127.916 83.0888C128.031 82.5634 128.345 82.1029 128.791 81.803C129.238 81.5031 129.783 81.3871 130.313 81.479C131.323 81.8123 132.251 82.355 133.036 83.0717C139.304 88.0553 138.585 87.9697 141.445 89.8021C140.513 90.9311 139.72 92.1672 139.082 93.4842ZM140.006 163.957C140.042 163.834 140.042 163.703 140.006 163.58C136.581 155.206 142.952 150.034 148.21 153.767C148.09 154.247 148.946 155.582 149.237 155.976C152.234 161.234 152.08 161.713 149.528 163.923C149.203 164.197 149.1 164.248 149.032 164.197C148.835 163.987 148.678 163.743 148.569 163.477C147.114 160.84 146.857 160.052 146.36 160.258C146.297 160.279 146.24 160.316 146.195 160.366C146.149 160.415 146.118 160.475 146.102 160.54C146.087 160.605 146.088 160.673 146.106 160.738C146.125 160.802 146.159 160.861 146.206 160.908C146.377 161.063 145.932 160.583 147.268 163.769C148.004 165.481 148.141 164.642 147.268 165.224C145.915 165.961 144.87 166.029 143.843 161.97C143.803 161.861 143.727 161.769 143.629 161.709C143.53 161.648 143.413 161.623 143.298 161.636C143.183 161.65 143.076 161.703 142.995 161.785C142.913 161.867 142.862 161.975 142.849 162.09C142.717 163.3 143.027 164.517 143.723 165.515C143.331 165.817 142.873 166.023 142.387 166.115C141.744 165.245 140.935 164.512 140.006 163.957ZM143.26 167.382C143.634 167.277 143.987 167.109 144.305 166.885C150.881 169.951 156.773 165.824 158.605 159.693C159.276 163.951 159.425 168.276 159.05 172.571C158.873 173.47 158.873 174.395 159.05 175.294C154.516 177.656 150.838 181.382 148.535 185.946C146.215 186.537 143.928 187.252 141.685 188.087C144.939 181.494 147.165 173.564 143.26 167.365V167.382ZM140.794 189.868C148.963 187.077 145.932 187.984 147.987 187.282C147.312 188.818 146.795 190.419 146.446 192.06C142.403 196.375 138.79 201.072 135.656 206.086C135.346 206.515 135.178 207.03 135.177 207.559C135.169 207.578 135.165 207.599 135.165 207.619C135.165 207.64 135.169 207.66 135.177 207.679C135.131 210.269 135.91 212.806 137.403 214.923C138.121 215.567 138.966 216.053 139.883 216.348C140.801 216.643 141.771 216.741 142.729 216.636C144.596 216.636 139.304 217.115 196.796 210.214C201.933 209.974 203.937 207.182 206.42 202.644C207.979 199.784 213.63 190.365 213.75 190.194C214.672 188.704 215.237 187.022 215.4 185.278C215.563 183.534 215.321 181.776 214.692 180.141C214.706 179.867 214.664 179.594 214.57 179.337C214.476 179.08 214.332 178.845 214.145 178.645C213.958 178.445 213.732 178.285 213.482 178.174C213.232 178.064 212.962 178.004 212.688 178C209.168 177.578 205.605 177.699 202.122 178.36C202.118 177.284 201.903 176.219 201.488 175.226C205.872 174.147 207.311 173.633 220.652 169.934C224.201 173.493 227.958 176.838 231.903 179.952C231.97 180.041 232.057 180.113 232.157 180.163C232.256 180.212 232.366 180.238 232.477 180.238C232.588 180.238 232.698 180.212 232.798 180.163C232.897 180.113 232.984 180.041 233.051 179.952C235.294 175.5 237.367 171.15 239.216 166.971L241.802 178.565C240.929 178.745 240.111 179.132 239.417 179.692C238.723 180.252 238.173 180.969 237.812 181.785C236.253 184.799 236.664 188.635 237.024 191.975C237.024 192.608 238.12 203.809 238.565 207.953C238.574 208.159 238.664 208.353 238.814 208.494C238.965 208.635 239.164 208.711 239.37 208.707C242.192 207.406 244.911 205.895 247.505 204.185L257.027 246.914C257.844 250.631 257.154 254.521 255.11 257.73C253.065 260.94 249.832 263.209 246.118 264.04L150.83 285.276C147.112 286.078 143.227 285.381 140.02 283.335C136.813 281.289 134.544 278.06 133.704 274.35L122.333 223.315C125.175 216.156 136.821 197.284 140.794 189.868ZM271.053 273.202C271.019 276.883 269.735 280.443 267.41 283.297C265.085 286.151 261.858 288.13 258.26 288.907L149.357 313.174C145.121 314.095 140.693 313.307 137.035 310.983C133.376 308.658 130.782 304.984 129.816 300.758C125.364 280.909 124.353 275.788 124.353 275.788C124.441 273.258 124.304 270.725 123.942 268.219C122.35 252.446 116.321 240.818 121.254 226.072L132.231 274.812C133.134 278.91 135.622 282.485 139.152 284.754C142.682 287.023 146.967 287.801 151.07 286.92L246.426 265.701C250.526 264.757 254.086 262.232 256.332 258.674C258.577 255.117 259.326 250.816 258.414 246.709L248.772 203.449C250.913 201.993 252.968 200.418 254.955 198.757C272.766 278.323 271.087 269.743 271.036 273.202H271.053Z" fill="#0E3A99"/>
<path d="M200.735 279.402C199.299 280.765 198.259 282.489 197.722 284.394C197.185 286.299 197.173 288.314 197.686 290.225C198.161 292.315 199.328 294.182 200.997 295.525C202.666 296.868 204.74 297.608 206.883 297.624C208.992 297.638 211.032 296.873 212.612 295.477C214.192 294.08 215.201 292.149 215.446 290.054C215.694 288.13 215.472 286.173 214.798 284.354C214.123 282.534 213.018 280.905 211.575 279.607C210.097 278.27 208.186 277.513 206.193 277.475C204.201 277.437 202.262 278.122 200.735 279.402ZM209.297 295.963C200.735 298.754 195.956 288.41 200.735 281.543C201.825 280.259 203.349 279.423 205.017 279.192C206.685 278.961 208.38 279.353 209.777 280.292C214.829 283.889 215.994 293.736 209.297 295.997V295.963ZM181.091 89.0999C182.906 87.8013 184.961 86.8757 187.137 86.3769C188.318 86.1714 188.729 86.0858 188.849 85.7433C188.855 85.6332 188.819 85.5251 188.75 85.4397C188.68 85.3543 188.581 85.2977 188.472 85.2809C185.65 85.405 182.965 86.5349 180.903 88.4663C180.855 88.5143 180.821 88.5742 180.805 88.6398C180.788 88.7053 180.79 88.7741 180.809 88.8389C180.828 88.9037 180.865 88.9622 180.914 89.0081C180.964 89.054 181.025 89.0857 181.091 89.0999ZM188.49 89.3054C187.261 88.9626 185.972 88.8985 184.716 89.1178C183.459 89.337 182.268 89.8341 181.228 90.5728C181.163 90.6244 181.117 90.6961 181.096 90.7768C181.076 90.8575 181.083 90.9426 181.117 91.0188C181.15 91.0951 181.207 91.1582 181.28 91.1983C181.353 91.2385 181.437 91.2533 181.519 91.2407C183.037 90.3955 184.749 89.9588 186.486 89.9734C187.736 89.9734 188.558 90.3672 188.729 89.8192C188.763 89.7192 188.757 89.61 188.712 89.5144C188.668 89.4187 188.588 89.3439 188.49 89.3054ZM181.999 92.0456C181.939 92.0332 181.877 92.0343 181.818 92.0487C181.759 92.0632 181.703 92.0907 181.656 92.1293C181.609 92.1678 181.57 92.2164 181.544 92.2715C181.518 92.3267 181.504 92.387 181.504 92.448C181.504 92.5091 181.518 92.5694 181.544 92.6245C181.57 92.6797 181.609 92.7283 181.656 92.7668C181.703 92.8054 181.759 92.8329 181.818 92.8473C181.877 92.8618 181.939 92.8629 181.999 92.8505C183.086 92.9542 184.124 93.3573 184.996 94.015C185.051 94.0664 185.121 94.0992 185.196 94.1087C185.271 94.1182 185.346 94.104 185.413 94.068C185.479 94.032 185.532 93.9762 185.565 93.9083C185.598 93.8404 185.608 93.7639 185.595 93.6897C185.152 93.1695 184.601 92.7527 183.979 92.4687C183.358 92.1846 182.682 92.0402 181.999 92.0456ZM167.476 119.67C171.655 117.289 174.96 117.272 178.094 116.364C178.608 116.364 178.488 115.439 178.094 115.508C174.212 115.806 170.459 117.033 167.151 119.087C166.62 119.327 166.962 119.995 167.476 119.67ZM136.359 122.512C140.549 121.151 144.993 120.759 149.357 121.365C149.837 121.365 149.922 120.646 149.271 120.509C144.871 119.486 140.259 119.888 136.102 121.656C135.656 121.742 135.93 122.512 136.359 122.512Z" fill="#0E3A99"/>
<path d="M141.068 126.16C143.497 124.826 146.112 123.862 148.826 123.3C149.388 124.29 150.218 125.102 151.221 125.641C152.224 126.181 153.359 126.426 154.495 126.348C154.786 127.273 155.347 128.09 156.105 128.695C156.744 129.267 157.528 129.652 158.372 129.807C159.216 129.962 160.086 129.881 160.887 129.573C161.687 129.264 162.387 128.741 162.909 128.06C163.431 127.38 163.755 126.568 163.845 125.715C165.033 125.616 166.166 125.178 167.111 124.452C168.055 123.726 168.771 122.744 169.172 121.622C177.306 121.313 178.265 121.382 181.896 120.971C182.461 120.971 182.41 120.098 181.896 120.029C177.723 119.994 173.553 120.235 169.411 120.748C169.456 120.614 169.49 120.477 169.514 120.337C169.55 120.248 169.567 120.152 169.562 120.056C169.558 119.96 169.533 119.866 169.489 119.781C169.445 119.695 169.383 119.62 169.308 119.561C169.232 119.502 169.144 119.459 169.051 119.437C168.958 119.414 168.86 119.412 168.766 119.431C168.672 119.45 168.583 119.488 168.505 119.545C168.427 119.601 168.362 119.673 168.314 119.757C168.267 119.84 168.238 119.933 168.23 120.029C168.196 120.333 168.127 120.632 168.024 120.92C167.596 120.92 166.945 120.92 166.98 121.382C167.014 121.844 167.408 121.69 167.716 121.69C167.395 122.333 166.942 122.902 166.388 123.359C165.833 123.816 165.189 124.152 164.496 124.345C162.338 124.824 160.677 123.506 159.359 120.354C161.396 117.58 160.455 116.535 159.359 116.929C158.999 117.049 159.359 117.015 157.509 117.015C155.659 117.015 155.454 118.642 156.875 119.926L157.68 120.594C157.303 122.838 156.464 125.218 154.118 125.269C153.307 125.252 152.511 125.05 151.79 124.679C151.069 124.308 150.442 123.778 149.956 123.129L150.624 123.009C151.07 123.009 151.327 122.187 150.333 122.187C146.843 122.175 143.437 123.253 140.589 125.269C140.53 125.301 140.478 125.344 140.437 125.395C140.395 125.447 140.363 125.506 140.344 125.569C140.325 125.633 140.319 125.7 140.325 125.766C140.332 125.832 140.352 125.896 140.383 125.955C140.415 126.013 140.457 126.065 140.509 126.107C140.56 126.149 140.619 126.18 140.683 126.199C140.747 126.218 140.813 126.225 140.88 126.218C140.946 126.211 141.01 126.192 141.068 126.16ZM158.639 121.673C158.949 122.577 159.462 123.398 160.139 124.072C160.816 124.746 161.639 125.255 162.544 125.561C162.544 125.818 162.544 126.074 162.441 126.314C162.234 126.845 161.902 127.317 161.473 127.692C161.044 128.066 160.531 128.331 159.978 128.464C159.424 128.597 158.847 128.594 158.294 128.455C157.742 128.316 157.232 128.046 156.807 127.667C156.285 127.232 155.864 126.689 155.574 126.074C156.406 125.648 157.122 125.024 157.656 124.257C158.191 123.489 158.528 122.602 158.639 121.673ZM141.462 101.156C142.044 101.156 142.164 100.18 143.894 99.1013C144.748 98.6517 145.642 98.2847 146.566 98.0052C147.285 97.5599 146.977 96.2926 145.298 96.6694L144.476 96.9777C142.962 97.6732 141.747 98.8883 141.051 100.403C141.015 100.478 140.998 100.562 141 100.645C141.003 100.729 141.025 100.811 141.065 100.884C141.105 100.958 141.162 101.021 141.231 101.068C141.3 101.115 141.379 101.146 141.462 101.156ZM168.932 95.2993C169.364 95.2908 169.796 95.3368 170.216 95.4363C171.14 95.6853 172.031 96.0416 172.871 96.4981C174.583 96.4981 172.134 93.9122 169.069 93.8436C168.461 93.7833 167.851 93.9478 167.356 94.306C166.483 95.1966 167.733 95.5905 168.932 95.2993ZM152.662 196.633C152.819 196.607 152.961 196.527 153.064 196.406C153.167 196.286 153.224 196.132 153.224 195.973C153.224 195.815 153.167 195.661 153.064 195.54C152.961 195.42 152.819 195.339 152.662 195.314C152.506 195.339 152.363 195.42 152.26 195.54C152.158 195.661 152.101 195.815 152.101 195.973C152.101 196.132 152.158 196.286 152.26 196.406C152.363 196.527 152.506 196.607 152.662 196.633ZM157.509 197.558C157.666 197.532 157.808 197.452 157.911 197.331C158.014 197.21 158.07 197.057 158.07 196.898C158.07 196.74 158.014 196.586 157.911 196.465C157.808 196.344 157.666 196.264 157.509 196.239C157.269 196.239 156.773 196.53 156.875 197.027C156.909 197.172 156.989 197.303 157.103 197.398C157.217 197.494 157.36 197.55 157.509 197.558ZM162.647 194.766C162.79 194.742 162.921 194.667 163.015 194.556C163.109 194.445 163.161 194.304 163.161 194.158C163.161 194.012 163.109 193.871 163.015 193.76C162.921 193.649 162.79 193.574 162.647 193.55C162.503 193.574 162.372 193.649 162.278 193.76C162.184 193.871 162.133 194.012 162.133 194.158C162.133 194.304 162.184 194.445 162.278 194.556C162.372 194.667 162.503 194.742 162.647 194.766ZM165.079 198.071C165.233 198.071 165.381 198.01 165.49 197.901C165.599 197.792 165.661 197.643 165.661 197.489C165.661 197.335 165.599 197.186 165.49 197.077C165.381 196.968 165.233 196.907 165.079 196.907C164.924 196.907 164.776 196.968 164.667 197.077C164.558 197.186 164.496 197.335 164.496 197.489C164.496 197.643 164.558 197.792 164.667 197.901C164.776 198.01 164.924 198.071 165.079 198.071ZM171.398 193.242C171.398 193.092 171.338 192.948 171.232 192.842C171.126 192.736 170.983 192.677 170.833 192.677C170.683 192.677 170.539 192.736 170.433 192.842C170.327 192.948 170.268 193.092 170.268 193.242C170.268 193.392 170.327 193.535 170.433 193.641C170.539 193.747 170.683 193.807 170.833 193.807C170.983 193.807 171.126 193.747 171.232 193.641C171.338 193.535 171.398 193.392 171.398 193.242ZM175.971 197.198C176.08 197.169 176.177 197.104 176.246 197.015C176.315 196.925 176.353 196.815 176.353 196.701C176.353 196.588 176.315 196.478 176.246 196.388C176.177 196.298 176.08 196.234 175.971 196.205C175.893 196.204 175.817 196.222 175.748 196.256C175.679 196.29 175.619 196.34 175.572 196.402C175.526 196.463 175.494 196.534 175.48 196.61C175.466 196.686 175.47 196.764 175.491 196.838C175.518 196.944 175.581 197.037 175.668 197.102C175.755 197.168 175.862 197.201 175.971 197.198ZM186.212 195.571C186.452 195.571 186.811 195.331 186.708 194.937C186.606 194.543 186.366 194.509 186.212 194.561C186.094 194.582 185.987 194.645 185.91 194.737C185.833 194.829 185.791 194.946 185.791 195.066C185.791 195.186 185.833 195.302 185.91 195.394C185.987 195.487 186.094 195.549 186.212 195.571ZM188.404 191.426C188.558 191.426 188.706 191.365 188.816 191.256C188.925 191.147 188.986 190.999 188.986 190.844C188.986 190.69 188.925 190.542 188.816 190.432C188.706 190.323 188.558 190.262 188.404 190.262C188.249 190.262 188.101 190.323 187.992 190.432C187.883 190.542 187.822 190.69 187.822 190.844C187.822 190.999 187.883 191.147 187.992 191.256C188.101 191.365 188.249 191.426 188.404 191.426ZM180.851 193.773C181.006 193.773 181.154 193.711 181.263 193.602C181.372 193.493 181.434 193.345 181.434 193.19C181.434 193.036 181.372 192.888 181.263 192.779C181.154 192.67 181.006 192.608 180.851 192.608C180.697 192.608 180.549 192.67 180.44 192.779C180.33 192.888 180.269 193.036 180.269 193.19C180.269 193.345 180.33 193.493 180.44 193.602C180.549 193.711 180.697 193.773 180.851 193.773ZM150.179 200.229C150.272 200.229 150.363 200.208 150.446 200.168C150.529 200.127 150.602 200.069 150.66 199.996C150.717 199.924 150.758 199.84 150.779 199.75C150.799 199.659 150.799 199.566 150.778 199.476C150.768 199.363 150.721 199.256 150.645 199.172C150.569 199.088 150.469 199.03 150.358 199.007C150.247 198.984 150.131 198.997 150.028 199.044C149.925 199.092 149.84 199.171 149.785 199.27C149.73 199.356 149.697 199.453 149.688 199.555C149.679 199.656 149.694 199.758 149.733 199.852C149.772 199.946 149.832 200.029 149.91 200.095C149.988 200.161 150.08 200.207 150.179 200.229ZM179.19 259.125L152.029 264.793C150.323 265.153 148.818 266.149 147.821 267.58C146.824 269.01 146.41 270.767 146.663 272.492C146.916 274.217 147.818 275.78 149.184 276.864C150.55 277.947 152.278 278.469 154.015 278.323C154.769 278.323 152.56 278.477 181.879 272.483C182.835 272.393 183.76 272.103 184.597 271.631C185.433 271.16 186.161 270.519 186.733 269.748C187.306 268.978 187.71 268.096 187.919 267.159C188.129 266.222 188.139 265.252 187.95 264.311C187.761 263.37 187.376 262.48 186.82 261.697C186.264 260.914 185.55 260.257 184.724 259.768C183.899 259.279 182.979 258.969 182.026 258.859C181.072 258.748 180.106 258.838 179.19 259.125ZM181.571 270.907L154.495 276.576C153.198 276.76 151.88 276.441 150.81 275.685C149.74 274.929 149 273.793 148.74 272.51C148.479 271.226 148.719 269.891 149.41 268.779C150.101 267.666 151.191 266.859 152.457 266.523C172.785 262.225 178.334 261.026 179.858 260.752C181.164 260.589 182.484 260.92 183.558 261.681C184.632 262.441 185.383 263.576 185.664 264.862C185.909 266.197 185.617 267.575 184.85 268.695C184.083 269.814 182.904 270.585 181.571 270.839V270.907Z" fill="#0E3A99"/>
<path d="M177.957 265.239C175.834 265.513 167.493 268.904 154.666 270.771C154.169 270.771 154.221 271.576 154.666 271.576C158.759 271.576 174.703 268.15 178.317 266.181C178.403 266.11 178.465 266.014 178.494 265.906C178.523 265.799 178.517 265.684 178.477 265.58C178.438 265.476 178.366 265.387 178.272 265.325C178.179 265.264 178.069 265.234 177.957 265.239ZM233.273 248.13C226.937 250.357 226.766 259.399 233.171 260.666C234.027 260.806 234.903 260.769 235.745 260.556C236.586 260.344 237.375 259.961 238.062 259.431C238.749 258.901 239.32 258.236 239.74 257.476C240.159 256.717 240.418 255.879 240.501 255.015C241.716 251.162 237.178 247.051 233.273 248.13ZM234.592 259.639C233.902 259.699 233.208 259.607 232.557 259.37C231.906 259.134 231.316 258.757 230.826 258.267C230.336 257.778 229.96 257.187 229.723 256.536C229.486 255.886 229.394 255.191 229.454 254.501C229.814 251.316 232.674 248.439 235.722 249.363C242.145 251.658 239.182 259.262 234.661 259.639H234.592Z" fill="#0E3A99"/>
<path d="M233.017 252.531C232.533 252.566 232.077 252.773 231.732 253.114C231.081 254.09 231.578 254.826 232.537 254.826C232.4 256.179 232.246 257.823 233.445 257.892C233.856 257.892 235.637 257.549 236.596 257.344C236.71 257.353 236.824 257.339 236.932 257.302C237.039 257.265 237.138 257.206 237.222 257.129C237.306 257.051 237.373 256.957 237.418 256.853C237.464 256.748 237.487 256.636 237.487 256.522C237.487 255.939 237.487 256.898 237.298 254.467C237.778 254.467 238 254.244 238.017 253.85L237.915 252.805C237.912 252.731 237.896 252.658 237.865 252.59C237.835 252.523 237.791 252.462 237.737 252.411C237.683 252.36 237.619 252.32 237.55 252.294C237.481 252.267 237.407 252.255 237.332 252.257C236.87 252.257 236.185 252.343 236.185 252.343C236.185 252.343 236.938 252.103 237.041 251.572C237.076 251.444 237.075 251.309 237.039 251.181C237.003 251.053 236.933 250.937 236.836 250.846C236.739 250.755 236.62 250.691 236.49 250.662C236.361 250.633 236.225 250.64 236.099 250.682C235.811 250.839 235.557 251.051 235.351 251.307C235.145 251.562 234.992 251.856 234.9 252.172C233.667 249.928 231.749 251.315 233.017 252.531ZM236.151 254.501C236.151 255.289 236.271 255.614 236.339 256.213C235.705 256.213 234.113 256.693 233.513 256.779C233.494 256.682 233.494 256.583 233.513 256.487V254.775C234.384 254.612 235.266 254.521 236.151 254.501ZM218.939 250.082C213.802 249.517 210.376 254.723 211.798 259.433C212.335 260.767 213.272 261.901 214.48 262.68C215.689 263.459 217.109 263.845 218.545 263.783C226.423 263.269 227.108 250.87 218.939 250.082ZM222.364 260.803C221.312 261.912 219.863 262.559 218.335 262.601C216.806 262.642 215.324 262.076 214.213 261.026C213.313 260.115 212.739 258.933 212.579 257.663C212.419 256.392 212.682 255.105 213.328 253.999C213.973 252.894 214.965 252.032 216.149 251.547C217.334 251.061 218.646 250.98 219.881 251.315C220.813 251.615 221.652 252.147 222.322 252.861C222.991 253.574 223.468 254.446 223.708 255.395C223.948 256.344 223.942 257.338 223.692 258.284C223.442 259.23 222.956 260.097 222.279 260.803H222.364ZM244.645 250.648L247.3 251.846C246.495 253.234 245.758 254.621 245.107 255.939C245.03 256.064 245.006 256.215 245.04 256.358C245.073 256.501 245.162 256.624 245.287 256.701C245.412 256.779 245.563 256.803 245.706 256.769C245.849 256.736 245.972 256.647 246.049 256.522C246.854 255.306 247.762 253.987 248.635 252.446C249.543 252.908 249.851 253.011 251.547 253.713C251.908 253.942 252.342 254.027 252.763 253.953C252.848 253.928 252.925 253.883 252.99 253.822C253.054 253.761 253.103 253.686 253.133 253.603C253.163 253.519 253.173 253.43 253.162 253.342C253.152 253.254 253.12 253.17 253.071 253.097C252.677 252.6 252.643 252.668 249.303 251.384C250.142 249.928 251.769 247.805 250.622 247.445C249.783 247.188 248.909 249.158 247.933 250.87L245.073 249.706C244.405 249.329 244.029 250.391 244.645 250.648ZM181.057 236.347C177.735 236.81 172.203 238.334 162.064 240.321C147.456 243.198 147.919 242.804 143.055 244.123C142.949 244.151 142.856 244.213 142.79 244.3C142.723 244.387 142.687 244.493 142.687 244.602C142.687 244.711 142.723 244.817 142.79 244.904C142.856 244.991 142.949 245.053 143.055 245.082C146.206 245.082 175.337 239.276 181.297 237.581C181.442 237.532 181.565 237.431 181.642 237.299C181.719 237.166 181.746 237.01 181.717 236.859C181.687 236.708 181.604 236.573 181.483 236.479C181.362 236.385 181.21 236.338 181.057 236.347ZM196.282 223.794C201.42 222.835 206.985 222.082 212.14 220.849C212.791 220.849 212.74 219.701 212.14 219.77C202.242 220.763 141.531 232.991 140.623 234.515C139.476 236.382 154.067 231.449 196.282 223.794ZM224.796 224.822C222.673 223.435 220.207 224.702 218.836 226.706C216.439 231.004 217.295 235.029 219.008 239.67C218.837 239.67 144.065 254.535 143.945 254.792C143.825 255.049 143.945 255.443 144.288 255.443C149.1 255.443 213.493 242.581 219.47 240.852C219.965 242.141 220.536 243.399 221.183 244.619C221.25 244.732 221.345 244.826 221.459 244.892C221.573 244.958 221.702 244.994 221.834 244.996C222.656 244.996 229.848 240.047 231.527 238.848C233.959 237.135 236.459 235.251 236.836 232.237C237.487 226.928 230.499 225.695 227.023 228.812C226.831 227.242 226.032 225.809 224.796 224.822ZM101.987 39.3151C100.963 38.7135 99.7955 38.4005 98.608 38.4091C97.4205 38.4177 96.2575 38.7478 95.2424 39.3642C94.2274 39.9806 93.3982 40.8604 92.8429 41.9101C92.2876 42.9598 92.0269 44.1403 92.0884 45.3262C92.0329 45.4004 92.0028 45.4905 92.0028 45.5831C92.0028 45.6758 92.0329 45.7659 92.0884 45.84C92.9068 46.8447 93.9786 47.6127 95.193 48.0646C96.4074 48.5166 97.7205 48.6362 98.9966 48.411C100.273 48.1858 101.465 47.624 102.452 46.7837C103.438 45.9433 104.182 44.8549 104.607 43.6308C105.07 43.254 104.796 42.7745 104.727 42.5519C104.272 41.1564 103.288 39.9945 101.987 39.3151ZM92.842 45.4461C92.893 44.3175 93.2584 43.2257 93.8969 42.2937C94.5353 41.3616 95.4216 40.6266 96.4555 40.1714C94.1949 41.884 94.8971 46.6963 97.6029 47.1758C95.8555 47.215 94.1568 46.5979 92.842 45.4461ZM99.2813 46.9018C99.9008 46.4378 100.386 45.8174 100.687 45.1042C100.988 44.391 101.094 43.6106 100.994 42.843C100.939 42.1462 100.693 41.4781 100.282 40.9128C99.8704 40.3476 99.3108 39.9072 98.6648 39.6405C99.6636 39.6451 100.639 39.9408 101.473 40.4913C102.306 41.0418 102.961 41.8234 103.357 42.7402C103.069 43.7032 102.556 44.5833 101.858 45.3073C101.161 46.0312 100.301 46.5779 99.3498 46.9018H99.2813ZM110.738 37.0202C110.706 36.8784 110.625 36.7525 110.509 36.6648C110.393 36.577 110.25 36.5331 110.105 36.5407C109.026 36.5407 109.848 37.8423 108.392 41.8326C108.361 41.9316 108.365 42.038 108.401 42.1349C108.438 42.2318 108.507 42.3135 108.596 42.3668C108.685 42.4202 108.789 42.4421 108.892 42.429C108.995 42.416 109.09 42.3688 109.163 42.295C109.54 41.6539 109.839 40.9696 110.053 40.257C110.362 41.8497 110.687 43.391 111.012 44.8638C111.033 44.9516 111.07 45.0344 111.122 45.1077C111.175 45.181 111.241 45.2433 111.317 45.291C111.393 45.3387 111.478 45.3709 111.567 45.3858C111.656 45.4006 111.747 45.3979 111.834 45.3776C111.922 45.3574 112.005 45.3201 112.078 45.2678C112.152 45.2155 112.214 45.1493 112.262 45.073C112.309 44.9967 112.342 44.9117 112.356 44.8229C112.371 44.7341 112.369 44.6433 112.348 44.5556C111.869 42.0895 111.321 39.6405 110.738 37.0202ZM121.425 41.6956C119.866 41.9696 118.89 42.158 117.674 42.4834C118.899 40.919 119.595 39.0059 119.661 37.0202C119.615 36.4699 119.401 35.9468 119.049 35.5213C118.697 35.0957 118.224 34.7881 117.692 34.6397C117.195 34.4601 116.656 34.4367 116.146 34.5726C115.636 34.7084 115.18 34.9971 114.838 35.3998C114.497 35.8025 114.288 36.2999 114.237 36.8253C114.187 37.3507 114.299 37.8789 114.557 38.3389C114.677 38.8356 115.517 38.3389 115.397 38.0478C115.246 37.6337 115.244 37.1801 115.391 36.7646C115.538 36.3491 115.824 35.9976 116.202 35.77C116.587 35.6113 117.017 35.5985 117.411 35.7341C117.805 35.8696 118.136 36.1443 118.342 36.5065C118.48 37.0911 118.493 37.6982 118.381 38.2883C118.269 38.8784 118.034 39.4383 117.692 39.9316C116.099 43.0828 114.951 43.3568 115.636 44.0761C115.711 44.1568 115.806 44.2155 115.912 44.2457C116.018 44.2759 116.13 44.2765 116.236 44.2473C118.117 43.9876 119.977 43.5927 121.802 43.0656C121.941 42.9833 122.049 42.8576 122.109 42.7078C122.17 42.558 122.179 42.3925 122.137 42.2367C122.094 42.0809 122.001 41.9436 121.872 41.8458C121.744 41.748 121.586 41.6952 121.425 41.6956ZM128.943 39.9316C129.19 39.2159 129.204 38.4404 128.982 37.7164C128.761 36.9925 128.315 36.3574 127.71 35.9025C127.105 35.4477 126.371 35.1964 125.614 35.1849C124.857 35.1734 124.116 35.4023 123.497 35.8385C123.387 35.3289 123.177 34.8459 122.881 34.4171C124.195 34.2531 125.478 33.8892 126.683 33.3382C126.842 33.3077 126.99 33.2341 127.111 33.1254C127.232 33.0167 127.321 32.8771 127.368 32.7216C127.395 32.5914 127.382 32.4559 127.33 32.3334C127.278 32.2109 127.189 32.1073 127.076 32.0366C126.597 31.7455 126.032 32.1394 125.655 32.2935C118.805 34.9138 122.607 32.8929 122.47 37.1401C122.473 37.2712 122.518 37.3979 122.598 37.5018C122.678 37.6056 122.789 37.6812 122.915 37.7174C123.041 37.7537 123.176 37.7489 123.299 37.7036C123.422 37.6582 123.527 37.5749 123.6 37.4655C123.642 37.423 123.672 37.3696 123.686 37.3114C124.026 36.8424 124.533 36.521 125.103 36.4129C125.673 36.3047 126.262 36.4178 126.751 36.7291C127.082 36.9712 127.344 37.2945 127.513 37.6678C127.682 38.0411 127.752 38.4517 127.716 38.8599C127.68 39.2681 127.539 39.6601 127.307 39.9978C127.075 40.3356 126.759 40.6077 126.391 40.7879C125.518 41.116 124.576 41.2219 123.651 41.0962C123.138 41.0962 122.898 41.6271 123.24 41.9353C123.724 42.2748 124.282 42.494 124.867 42.5747C125.453 42.6554 126.049 42.5953 126.607 42.3994C127.164 42.2035 127.667 41.8774 128.074 41.4482C128.48 41.019 128.778 40.4991 128.943 39.9316ZM130.741 37.3799C131.827 37.254 132.899 37.0304 133.944 36.712C133.968 37.8748 134.159 39.0281 134.509 40.1371C134.577 40.2353 134.672 40.3128 134.781 40.361C134.891 40.4092 135.011 40.4263 135.13 40.4103C135.248 40.3944 135.36 40.3461 135.453 40.2707C135.546 40.1953 135.616 40.0958 135.656 39.983C135.756 38.7475 135.622 37.5043 135.263 36.3181C135.898 36.2282 136.493 35.9544 136.975 35.5303C137.039 35.4493 137.08 35.3534 137.096 35.2517C137.112 35.15 137.101 35.046 137.065 34.9497C137.029 34.8533 136.969 34.7679 136.89 34.7016C136.811 34.6353 136.717 34.5904 136.616 34.5712C134.526 34.2972 135.194 35.9242 134.646 33.2354C134.646 33.0946 134.59 32.9596 134.491 32.86C134.391 32.7605 134.256 32.7045 134.115 32.7045C133.974 32.7045 133.839 32.7605 133.74 32.86C133.64 32.9596 133.584 33.0946 133.584 33.2354C133.584 33.5094 133.584 33.3896 133.704 35.1535C133.088 35.3248 132.54 35.5303 131.992 35.7529C131.444 35.9756 132.403 33.8862 132.608 31.1975C132.61 31.1083 132.579 31.0216 132.523 30.9526C132.467 30.8836 132.387 30.8369 132.3 30.8207C131.683 30.7008 131.666 31.3516 130.433 36.5578C130.368 36.7081 130.364 36.8777 130.422 37.0309C130.479 37.1841 130.594 37.3092 130.741 37.3799Z" fill="#0E3A99"/>
<path d="M140.794 37.7741C144.545 37.7741 145.401 31.5574 141.77 28.92C139.938 27.6013 138.122 27.9267 137.3 30.0674C136.273 32.9617 137.814 37.7741 140.794 37.7741ZM141.702 30.9237C143.157 32.7733 142.781 35.7703 141.12 36.3869C139.458 37.0034 138.054 34.3146 138.191 31.8999C138.414 28.5946 140.469 29.2112 141.753 30.8552L141.702 30.9237Z" fill="#0E3A99"/>
<path d="M148.055 36.2154C152.251 36.2154 153.193 29.1938 149.494 26.7619C149.155 26.502 148.761 26.322 148.342 26.2353C147.924 26.1485 147.491 26.1573 147.076 26.261C146.661 26.3647 146.275 26.5606 145.947 26.8342C145.618 27.1077 145.356 27.4518 145.178 27.8409C144.72 28.5179 144.449 29.3034 144.391 30.1186C143.74 32.7902 145.247 36.2154 148.055 36.2154ZM145.744 28.8513C145.84 28.5755 145.994 28.3232 146.194 28.1105C146.395 27.8978 146.638 27.7295 146.907 27.6165C147.177 27.5035 147.467 27.4484 147.759 27.4546C148.051 27.4608 148.339 27.5282 148.604 27.6525C151.292 29.3651 150.761 35.7359 146.994 34.5028C146.452 34.1214 146.019 33.6042 145.74 33.0031C145.46 32.402 145.343 31.738 145.401 31.0777C145.389 30.3215 145.505 29.5688 145.744 28.8513ZM153.433 33.2869C153.758 33.2869 153.056 33.2869 155.368 32.9444C156.601 32.756 156.413 32.7902 158.177 32.4306C158.792 32.4051 159.386 32.2029 159.889 31.8483C160.031 31.7043 160.11 31.5106 160.11 31.3089C160.11 31.1071 160.031 30.9134 159.889 30.7694C159.478 30.3584 158.451 30.5125 157.92 30.7694C156.053 31.1804 156.31 31.1119 155.146 31.4373C156.026 30.0541 156.61 28.5027 156.858 26.8818C157.081 25.1692 155.642 23.6451 154.238 24.1246C153.956 24.2056 153.705 24.371 153.52 24.5986C153.335 24.8261 153.223 25.1049 153.201 25.3975C153.179 25.6902 153.246 25.9826 153.395 26.2357C153.543 26.4888 153.766 26.6903 154.032 26.8133C154.974 27.2243 155.026 26.0769 154.649 26.0255C154.565 26.002 154.491 25.9497 154.441 25.8779C154.391 25.806 154.368 25.7189 154.375 25.6316C154.375 25.0322 154.957 25.0665 155.283 25.3576C156.67 26.7106 154.392 30.581 152.953 32.208C152.889 32.3062 152.85 32.419 152.841 32.5361C152.831 32.6532 152.851 32.7708 152.899 32.8782C152.947 32.9856 153.021 33.0792 153.114 33.1506C153.207 33.222 153.317 33.2689 153.433 33.2869ZM161.465 28.7485C162.064 28.7485 161.893 28.406 162.715 25.5631C163.914 30.7009 163.982 31.0263 164.599 31.3174C164.692 31.3896 164.807 31.4288 164.924 31.4288C165.042 31.4288 165.157 31.3896 165.25 31.3174C165.695 30.718 165.507 30.444 164.359 26.4023C163.4 23.0628 163.4 22.8915 162.749 22.8744C162.628 22.8807 162.513 22.9283 162.422 23.0093C162.332 23.0903 162.272 23.1999 162.253 23.3197C161.927 24.9124 161.499 26.4708 161.003 28.2005C161.004 28.3313 161.051 28.4573 161.136 28.5572C161.22 28.6572 161.336 28.7248 161.465 28.7485ZM215.377 213.913L217.621 216.071C218.151 216.739 219.47 218.074 220.309 218.074C221.148 218.074 222.022 216.893 222.638 215.968C224.205 214.175 225.403 212.092 226.166 209.837C226.937 205.846 221.902 202.747 219.419 208.124C217.552 205.179 210.479 206.052 211.952 209.837C212.764 211.441 213.936 212.836 215.377 213.913ZM273.382 98.2451C272.815 97.8742 272.143 97.6972 271.467 97.7404C270.791 97.7836 270.147 98.0448 269.632 98.4848C268.402 99.7439 267.522 101.302 267.08 103.006C266.15 105.158 265.339 107.359 264.648 109.599C264.323 110.987 265.093 110.987 265.401 110.73C268.45 110.97 278.588 108.64 278.366 105.215C278.192 104.409 277.714 103.701 277.031 103.238C276.349 102.776 275.514 102.594 274.701 102.732C274.951 101.938 274.959 101.087 274.725 100.288C274.49 99.4887 274.022 98.7776 273.382 98.2451ZM272.988 155.291C275.42 151.986 277.629 148.064 277.167 143.577C277.121 142.397 276.815 141.241 276.27 140.193C275.725 139.145 274.955 138.23 274.016 137.515C271.858 136.23 269.409 138.08 267.765 139.33C259.442 145.598 256.856 156.267 254.527 165.412C254.047 167.348 253.533 169.334 253.242 171.287C252.163 175.003 255.075 175.774 257.558 175.979C264.905 176.544 275.66 172.383 283.092 170.293C286.689 169.283 292.717 167.587 292.614 162.347C292.546 156.576 282.27 151.232 272.988 155.291ZM263.398 95.8988C263.462 95.9839 263.544 96.053 263.639 96.1005C263.735 96.1481 263.839 96.1728 263.946 96.1728C264.052 96.1728 264.157 96.1481 264.252 96.1005C264.347 96.053 264.43 95.9839 264.494 95.8988C269.497 88.553 273.972 80.8613 277.886 72.8817C281.054 66.0314 277.201 57.2116 269.991 58.7701C267.046 59.4551 264.494 61.7328 262.422 65.5348C261.718 63.15 260.131 61.123 257.986 59.8661C250.879 55.8587 242.778 63.5653 246.7 70.6725C251.259 79.7064 256.863 88.1732 263.398 95.8988ZM147.644 108.623C147.657 109.102 147.721 109.579 147.833 110.045C147.936 111.072 148.073 112.168 149.1 112.168C149.235 112.164 149.368 112.133 149.491 112.077C149.614 112.021 149.725 111.942 149.817 111.843C149.909 111.745 149.981 111.629 150.029 111.502C150.076 111.376 150.098 111.242 150.093 111.107C149.932 110.178 149.685 109.267 149.357 108.384C149.274 108.21 149.137 108.068 148.968 107.977C148.798 107.886 148.604 107.851 148.413 107.878C148.223 107.905 148.045 107.991 147.907 108.125C147.769 108.259 147.677 108.434 147.644 108.623ZM167.288 105.849C167.103 105.71 166.874 105.643 166.643 105.662C166.413 105.681 166.197 105.784 166.038 105.952C165.301 106.294 165.181 110.302 166.808 110.302C167.056 110.309 167.299 110.227 167.491 110.069C167.683 109.912 167.812 109.69 167.853 109.445C167.853 108.675 167.75 108.76 167.75 108.247C167.75 106.431 167.613 106.106 167.288 105.849ZM221.662 254.364C220.892 252.942 218.871 253.388 218.237 254.861C218.074 254.651 217.87 254.476 217.637 254.348C217.404 254.22 217.148 254.14 216.883 254.114C216.619 254.089 216.352 254.117 216.099 254.199C215.845 254.28 215.612 254.412 215.411 254.587C215.124 254.846 214.897 255.165 214.744 255.521C214.591 255.877 214.518 256.261 214.527 256.648C214.537 257.035 214.63 257.415 214.801 257.763C214.971 258.111 215.214 258.418 215.514 258.662C216.541 259.394 217.637 260.025 218.785 260.546C218.964 260.665 219.17 260.736 219.384 260.752C219.864 260.752 220.069 259.981 220.258 259.622C221.422 257.241 222.193 255.991 221.662 254.364ZM199.947 258.971C200.238 260.683 200.495 262.601 200.615 263.167L203.868 262.413C204.108 262.413 204.125 262.533 203.269 258.354C202.144 258.45 201.031 258.656 199.947 258.971Z" fill="#0E3A99"/>
<path d="M200.118 254.467C198.878 254.955 197.793 255.77 196.979 256.826C196.165 257.881 195.652 259.137 195.494 260.461C195.35 261.297 195.39 262.155 195.61 262.975C195.83 263.795 196.226 264.557 196.77 265.208C197.314 265.86 197.994 266.385 198.761 266.748C199.528 267.111 200.365 267.303 201.214 267.311C202.53 267.253 203.809 266.857 204.928 266.161C206.047 265.465 206.968 264.493 207.602 263.338C209.52 258.851 205.273 253.028 200.118 254.467ZM205.256 262.653V262.892C204.879 263.817 204.331 263.903 201.3 264.434L200.82 264.519C200.64 264.578 200.45 264.599 200.261 264.581C200.073 264.564 199.89 264.508 199.724 264.417C199.589 264.328 199.477 264.209 199.397 264.069C199.316 263.93 199.27 263.773 199.262 263.612C199.262 263.441 199.262 262.944 199.125 262.31C198.93 261.178 198.821 260.033 198.799 258.885C198.731 258.668 198.731 258.435 198.799 258.217C198.858 258.082 198.948 257.962 199.061 257.867C199.173 257.772 199.307 257.704 199.45 257.669C200.722 257.335 202.015 257.089 203.32 256.933C203.548 256.929 203.771 256.999 203.956 257.131C204.141 257.264 204.278 257.452 204.348 257.669C204.673 259.279 204.862 260.289 204.999 260.957C205.182 261.503 205.269 262.077 205.256 262.653Z" fill="#0E3A99"/>
</svg>
