<svg width="343" height="343" viewBox="0 0 343 343" fill="none" xmlns="http://www.w3.org/2000/svg">
<path d="M274.084 91.0054C274.727 90.8691 275.316 90.5446 275.774 90.0732C275.721 90.3349 275.652 90.5934 275.569 90.8474C275.443 91.274 275.917 91.4004 276.075 91.1318C276.633 90.3022 276.854 89.2904 276.691 88.3036C276.683 88.2103 276.648 88.1214 276.591 88.0473C276.534 87.9732 276.456 87.917 276.368 87.8855C276.28 87.8539 276.185 87.8482 276.094 87.8691C276.002 87.89 275.919 87.9366 275.853 88.0034C275.19 88.8092 275.063 89.9468 273.942 90.2944C273.853 90.3186 273.777 90.3756 273.728 90.4539C273.68 90.5322 273.663 90.626 273.681 90.7162C273.699 90.8065 273.751 90.8866 273.825 90.9402C273.9 90.9939 273.993 91.0172 274.084 91.0054ZM270.971 85.6808C271.059 85.7374 271.161 85.7693 271.266 85.7731C271.371 85.777 271.475 85.7526 271.567 85.7025C271.659 85.6524 271.736 85.5785 271.789 85.4885C271.843 85.3985 271.872 85.2958 271.872 85.191C271.872 85.0646 271.872 84.9224 271.113 83.7848C270.955 83.5478 270.766 83.1054 270.355 83.3266C269.944 83.5478 270.229 83.9586 270.45 84.5116C270.892 85.6808 270.892 85.6808 270.971 85.6808ZM270.718 82.7894C271.493 82.7894 272.03 82.7894 272.125 83.4372C272.137 83.5335 272.188 83.621 272.265 83.6802C272.342 83.7395 272.439 83.7657 272.535 83.7532C272.632 83.7406 272.719 83.6902 272.779 83.6132C272.838 83.5362 272.864 83.4387 272.851 83.3424C272.726 82.8305 272.425 82.3789 272 82.0669C271.576 81.7549 271.055 81.6023 270.529 81.636C270.404 81.6879 270.3 81.7806 270.234 81.8989C270.169 82.0172 270.145 82.1542 270.167 82.2877C270.189 82.4213 270.255 82.5435 270.355 82.6345C270.456 82.7256 270.583 82.7801 270.718 82.7894ZM77.4686 130.948C73.0368 133.092 68.1596 134.153 63.2377 134.046C58.3158 133.939 53.4894 132.666 49.155 130.332C49.0754 130.283 48.9799 130.269 48.8896 130.291C48.7992 130.313 48.7213 130.37 48.6731 130.45C48.625 130.53 48.6104 130.625 48.6326 130.716C48.6548 130.806 48.712 130.884 48.7916 130.932C57.45 136.573 70.169 136.889 77.7056 131.359C77.7601 131.327 77.7999 131.275 77.8162 131.215C77.8325 131.154 77.824 131.089 77.7925 131.035C77.7611 130.98 77.7093 130.94 77.6486 130.924C77.5879 130.908 77.5231 130.916 77.4686 130.948ZM76.2994 84.1008C77.2 84.4642 78.6852 84.1008 78.2902 83.2634C78.0265 82.6244 77.8409 81.956 77.7372 81.2726C77.7372 81.1762 77.699 81.0838 77.6308 81.0156C77.5627 80.9475 77.4702 80.9092 77.3738 80.9092C77.2775 80.9092 77.185 80.9475 77.1169 81.0156C77.0487 81.0838 77.0104 81.1762 77.0104 81.2726C77.001 81.9411 77.0645 82.6086 77.2 83.2634C76.9845 83.386 76.7352 83.4358 76.489 83.4056C76.4434 83.3931 76.3957 83.3898 76.3488 83.3957C76.3019 83.4017 76.2566 83.4169 76.2155 83.4403C76.1744 83.4638 76.1384 83.4952 76.1094 83.5326C76.0804 83.57 76.0591 83.6127 76.0466 83.6584C76.0342 83.704 76.0309 83.7517 76.0368 83.7986C76.0428 83.8455 76.0579 83.8908 76.0814 83.9319C76.1049 83.973 76.1362 84.0091 76.1736 84.038C76.2111 84.067 76.2538 84.0883 76.2994 84.1008ZM74.4824 80.6406C74.7271 80.0722 74.9278 79.4859 75.0828 78.8868C75.097 78.8318 75.0999 78.7745 75.0916 78.7183C75.0833 78.6621 75.0639 78.6082 75.0345 78.5596C75.005 78.5111 74.9662 78.4689 74.9202 78.4355C74.8743 78.4022 74.8221 78.3783 74.7668 78.3654C74.2928 78.2232 74.2138 78.7288 73.9768 79.345C73.8408 79.6515 73.7298 79.9685 73.645 80.293C73.6445 80.3902 73.673 80.4854 73.7268 80.5664C73.7806 80.6474 73.8573 80.7106 73.9471 80.7479C74.0369 80.7851 74.1357 80.7949 74.2311 80.7757C74.3264 80.7566 74.4139 80.7096 74.4824 80.6406ZM79.7438 82.1258C79.8338 82.1653 79.9338 82.1759 80.0301 82.156C80.1263 82.1362 80.214 82.087 80.281 82.0152C80.5234 81.4459 80.724 80.8597 80.8815 80.2614C80.8981 80.2074 80.9034 80.1506 80.8972 80.0945C80.8909 80.0384 80.8731 79.9842 80.8449 79.9353C80.8167 79.8864 80.7788 79.8438 80.7334 79.8102C80.6881 79.7765 80.6363 79.7527 80.5812 79.74C80.0914 79.5978 79.9966 80.1666 79.7912 80.7038C79.5858 81.241 79.1908 81.9046 79.7438 82.1258ZM72.1598 85.3648C72.727 85.6487 73.3767 85.7215 73.9926 85.5702C74.3876 85.3964 74.119 84.796 73.7398 84.9224C73.3224 84.8938 72.922 84.7457 72.5864 84.4958C72.3727 84.3555 72.1886 84.1745 72.0449 83.963C71.9012 83.7515 71.8007 83.5138 71.749 83.2634C71.6384 82.5998 70.5956 82.8526 70.7536 83.5162C70.8303 83.9116 70.9971 84.284 71.241 84.6046C71.4848 84.9252 71.7992 85.1853 72.1598 85.3648ZM184.482 258.327C184.482 257.908 184.316 257.506 184.019 257.21C183.723 256.914 183.321 256.747 182.902 256.747C182.483 256.747 182.081 256.914 181.785 257.21C181.489 257.506 181.322 257.908 181.322 258.327C181.322 258.746 181.489 259.148 181.785 259.445C182.081 259.741 182.483 259.907 182.902 259.907C183.321 259.907 183.723 259.741 184.019 259.445C184.316 259.148 184.482 258.746 184.482 258.327ZM184.45 273.89C184.7 273.914 184.952 273.885 185.19 273.805C185.428 273.726 185.646 273.598 185.832 273.429C186.017 273.26 186.165 273.054 186.266 272.825C186.368 272.596 186.42 272.348 186.42 272.097C186.42 271.846 186.368 271.598 186.266 271.369C186.165 271.14 186.017 270.934 185.832 270.765C185.646 270.596 185.428 270.468 185.19 270.389C184.952 270.309 184.7 270.28 184.45 270.304C184.201 270.28 183.949 270.309 183.711 270.389C183.473 270.468 183.255 270.596 183.069 270.765C182.884 270.934 182.736 271.14 182.634 271.369C182.533 271.598 182.481 271.846 182.481 272.097C182.481 272.348 182.533 272.596 182.634 272.825C182.736 273.054 182.884 273.26 183.069 273.429C183.255 273.598 183.473 273.726 183.711 273.805C183.949 273.885 184.201 273.914 184.45 273.89ZM184.909 286.688C184.478 286.73 184.079 286.93 183.788 287.249C183.497 287.569 183.336 287.986 183.336 288.418C183.336 288.851 183.497 289.268 183.788 289.587C184.079 289.907 184.478 290.107 184.909 290.149C185.339 290.107 185.739 289.907 186.029 289.587C186.32 289.268 186.481 288.851 186.481 288.418C186.481 287.986 186.32 287.569 186.029 287.249C185.739 286.93 185.339 286.73 184.909 286.688ZM175.318 218.069C176.097 222.194 176.624 226.362 176.898 230.551C176.898 230.698 176.956 230.838 177.06 230.942C177.164 231.046 177.304 231.104 177.451 231.104C177.598 231.104 177.738 231.046 177.842 230.942C177.946 230.838 178.004 230.698 178.004 230.551C177.694 226.293 177.044 222.066 176.061 217.911C176.02 217.835 175.957 217.775 175.879 217.739C175.801 217.702 175.714 217.693 175.63 217.71C175.546 217.728 175.47 217.773 175.414 217.838C175.358 217.902 175.324 217.983 175.318 218.069ZM178.32 264.331C178.32 264.222 178.277 264.118 178.2 264.041C178.123 263.964 178.018 263.921 177.909 263.921C177.8 263.921 177.696 263.964 177.619 264.041C177.542 264.118 177.498 264.222 177.498 264.331C177.34 275.154 177.151 301.019 177.246 303.831C177.267 303.956 177.332 304.069 177.429 304.151C177.526 304.232 177.648 304.277 177.775 304.277C177.902 304.277 178.024 304.232 178.121 304.151C178.218 304.069 178.283 303.956 178.304 303.831C178.525 298.728 178.32 266.859 178.32 264.331ZM220.727 155.659C220.744 155.703 220.775 155.741 220.814 155.767C220.854 155.792 220.901 155.804 220.948 155.801C225.12 153.647 228.875 150.769 232.04 147.301C232.085 147.254 232.109 147.192 232.109 147.127C232.109 147.062 232.085 147 232.04 146.953C228.422 144.394 218.199 140.143 218.183 141.344C218.103 146.235 218.967 151.095 220.727 155.659ZM104.408 178.585C105.688 178.638 106.952 178.288 108.024 177.585C109.095 176.882 109.919 175.862 110.38 174.666C110.807 173.323 110.649 173.086 109.353 165.265C110.298 166.023 111.29 166.72 112.323 167.351C112.649 167.476 113.009 167.477 113.334 167.351C113.659 167.226 113.927 166.985 114.084 166.674C114.241 166.363 114.278 166.005 114.186 165.669C114.094 165.333 113.881 165.042 113.587 164.855C110.944 163.48 108.914 161.162 107.899 158.361C107.757 157.871 105.909 157.713 105.213 158.898C105.213 159.04 107.631 172.47 107.662 172.612C107.765 173.017 107.765 173.44 107.662 173.845C107.428 174.352 107.069 174.792 106.618 175.124C106.168 175.455 105.641 175.667 105.087 175.741C104.645 175.828 104.19 175.827 103.749 175.737C103.308 175.647 102.889 175.47 102.516 175.216C102.144 174.963 101.826 174.638 101.58 174.26C101.335 173.882 101.167 173.46 101.086 173.017C101.006 172.573 101.014 172.119 101.111 171.679C101.207 171.239 101.391 170.823 101.65 170.454C101.909 170.086 102.238 169.773 102.62 169.533C103.001 169.293 103.426 169.131 103.87 169.057C104.241 168.992 104.571 168.783 104.787 168.475C105.004 168.166 105.089 167.785 105.024 167.414C104.959 167.043 104.749 166.713 104.441 166.497C104.133 166.281 103.752 166.196 103.381 166.261C102.284 166.444 101.256 166.913 100.399 167.62C99.5416 168.327 98.8861 169.248 98.4984 170.29C98.1426 171.231 98.0241 172.246 98.1535 173.245C98.2828 174.243 98.656 175.194 99.24 176.014C99.8241 176.834 100.601 177.497 101.502 177.945C102.404 178.394 103.401 178.613 104.408 178.585Z" fill="#0E3A99"/>
<path d="M121.914 167.634C121.748 164.442 120.63 161.372 118.704 158.821C116.778 156.27 114.132 154.354 111.107 153.32C97.4715 148.706 84.9263 164.68 93.0001 176.798C94.9048 179.636 97.6781 181.779 100.904 182.907C104.13 184.034 107.634 184.086 110.892 183.053C114.149 182.021 116.984 179.96 118.972 177.18C120.959 174.4 121.991 171.051 121.914 167.634ZM96.6341 157.522C106.32 148.611 120.54 155.942 120.919 167.65C120.883 170.633 120.023 173.547 118.433 176.07C116.844 178.594 114.587 180.629 111.913 181.949C103.096 185.789 92.4471 179.168 91.7045 169.846C91.5095 167.555 91.849 165.249 92.6961 163.11C93.5433 160.972 94.8751 159.059 96.5867 157.522H96.6341ZM209.92 155.358C211.292 157.459 213.15 159.199 215.335 160.432C217.521 161.665 219.971 162.355 222.478 162.443C224.986 162.531 227.479 162.015 229.745 160.939C232.012 159.862 233.987 158.257 235.504 156.258C237.02 154.258 238.034 151.924 238.46 149.451C238.885 146.978 238.711 144.439 237.95 142.048C237.189 139.656 235.865 137.483 234.088 135.711C232.312 133.938 230.135 132.619 227.743 131.863C213.554 127.471 202.146 143.998 209.92 155.358ZM213.554 136.098C223.429 126.997 237.46 134.881 237.823 146.225C237.791 149.201 236.94 152.11 235.362 154.632C233.784 157.155 231.541 159.194 228.88 160.524C220.079 164.364 209.415 157.759 208.656 148.422C208.465 146.124 208.813 143.814 209.671 141.675C210.53 139.535 211.876 137.626 213.602 136.098H213.554ZM112.482 80.5607C100.805 55.9127 70.8801 45.4057 46.7377 61.8377C15.4537 83.2151 22.8481 128.34 58.0189 140.474C92.3681 152.672 129.862 117.28 112.482 80.5607ZM90.4721 137.283C87.6049 138.687 84.582 139.747 81.4661 140.443C81.6715 138.483 81.9243 133.427 82.0191 131.057C83.5043 133.427 86.1903 135.797 89.5241 135.323C92.4313 134.865 95.0067 132.163 97.4241 127.423C99.7909 122.243 101.122 116.651 101.343 110.96C101.6 110.301 101.765 109.61 101.832 108.906C102.635 107.056 103.57 105.266 104.629 103.55C105.198 103.054 105.693 102.479 106.098 101.843C106.54 100.619 106.638 99.2963 106.383 98.0197C106.333 96.7393 105.861 95.5115 105.04 94.5279C105.688 93.2165 107.489 87.2283 107.789 86.0591C107.815 85.9338 107.794 85.8034 107.729 85.6927C107.665 85.582 107.563 85.4987 107.441 85.4587C104.274 84.9757 101.07 84.7748 97.8665 84.8583C97.7559 84.6529 92.0679 100.895 91.5465 102.238C91.5224 102.312 91.5136 102.39 91.5206 102.467C91.5276 102.544 91.5503 102.619 91.5873 102.687C91.6243 102.755 91.6748 102.815 91.7357 102.863C91.7966 102.91 91.8666 102.945 91.9415 102.965C93.5118 103.209 95.0941 103.367 96.6815 103.439C96.6815 104.118 96.3813 105.999 96.2707 106.599C95.8202 107.171 95.4531 107.804 95.1805 108.479C93.2188 110.185 91.838 112.461 91.2305 114.989C88.4339 102.712 86.4905 97.4351 75.4305 91.2889C74.8775 90.9887 74.2139 90.7675 73.6135 90.3725C81.2607 92.2053 82.1139 93.0743 82.3983 92.6951C91.0567 80.4975 87.0277 66.5461 78.1481 60.9371C69.8373 54.9331 61.6371 60.6053 58.6509 70.1011C56.4389 77.5745 60.2309 84.1157 62.1901 86.8333C60.3889 87.0071 59.7727 87.2125 58.3349 87.3705C46.1689 88.6819 36.3097 103.265 31.7909 114.657C18.3135 83.7365 47.6699 48.5341 81.7979 56.6869C120.808 67.3835 127.902 119.176 90.4721 137.283ZM42.1399 129.383C43.3407 127.518 46.3427 122.336 47.0379 121.119C55.8227 127.882 72.3179 128.766 80.9763 122.999C80.9763 123.268 80.5813 138.499 80.5813 140.664C73.7379 141.916 66.6962 141.548 60.0207 139.589C53.3451 137.63 47.2212 134.135 42.1399 129.383ZM91.7045 118.512C91.676 118.019 91.618 117.529 91.5307 117.043C91.6729 116.6 91.7677 116.205 91.9099 115.684C92.9369 117.39 96.3339 120.424 97.7401 120.598C97.8109 120.603 97.8815 120.585 97.9405 120.546C97.9995 120.506 98.0435 120.448 98.0654 120.38C98.0873 120.313 98.0858 120.24 98.0612 120.173C98.0366 120.107 97.9903 120.05 97.9297 120.013C95.5905 118.559 93.7114 116.472 92.5103 113.993C92.8742 113.002 93.4089 112.083 94.0903 111.276C95.3288 113.22 97.0705 114.792 99.1305 115.826C99.1668 115.836 99.2046 115.838 99.2417 115.832C99.2789 115.827 99.3146 115.815 99.3469 115.796C99.3791 115.777 99.4073 115.751 99.4299 115.721C99.4524 115.691 99.4688 115.657 99.4781 115.621C99.4874 115.585 99.4895 115.547 99.4843 115.51C99.479 115.473 99.4665 115.437 99.4474 115.405C99.4283 115.372 99.4031 115.344 99.3731 115.322C99.3431 115.299 99.309 115.283 99.2727 115.273C97.4248 114.003 95.9035 112.314 94.8329 110.344C95.0383 110.091 95.2595 109.838 95.4807 109.601C96.7498 110.85 98.4412 111.577 100.221 111.639C99.9413 116.375 98.967 121.044 97.3293 125.496C96.0346 128.626 94.0082 131.4 91.4201 133.585C93.5975 129.359 94.0942 124.465 92.8105 119.887C92.7789 119.779 92.7119 119.684 92.6203 119.618C92.5287 119.552 92.4177 119.519 92.3049 119.523C90.9619 119.523 92.8421 125.022 83.3779 131.105C82.889 130.405 82.4507 129.671 82.0665 128.909C82.1613 123.537 81.9401 118.18 81.7189 112.998C81.7189 112.902 81.6806 112.809 81.6125 112.741C81.5443 112.673 81.4519 112.635 81.3555 112.635C81.2591 112.635 81.1667 112.673 81.0986 112.741C81.0304 112.809 80.9921 112.902 80.9921 112.998C81.0869 115.747 80.9921 118.465 80.9921 121.72C75.6833 125.053 69.6003 126.207 61.8267 125.338C56.6557 125.066 51.6736 123.304 47.4803 120.266C48.0333 119.255 50.3401 114.831 50.9879 113.646C51.0191 113.592 51.0353 113.531 51.0347 113.468C51.034 113.406 51.0167 113.345 50.9843 113.292C50.952 113.238 50.906 113.195 50.851 113.165C50.7961 113.136 50.7342 113.122 50.6719 113.124C50.2927 113.124 50.6719 113.03 47.5119 118.449C42.5278 116.497 38.5028 112.676 36.2939 107.8C38.8513 102.918 42.2047 98.4965 46.2163 94.7175C48.2769 97.5784 50.8916 99.9959 53.905 101.826C56.9184 103.657 60.2689 104.863 63.7576 105.373C67.2463 105.883 70.8019 105.686 74.2131 104.795C77.6244 103.904 80.8216 102.336 83.6149 100.184C83.6685 100.127 83.7001 100.053 83.7042 99.9747C83.7083 99.8965 83.6847 99.8194 83.6374 99.757C83.5901 99.6945 83.5222 99.6509 83.4458 99.6336C83.3694 99.6164 83.2894 99.6268 83.2199 99.6629C80.927 101.239 78.4352 102.503 75.8097 103.423C70.6307 105.064 65.0664 105.031 59.9072 103.329C54.748 101.627 50.2561 98.3432 47.0695 93.9433C48.5827 92.7154 50.2251 91.6558 51.9675 90.7833C57.9557 104.261 72.7287 105.224 79.8703 95.5233C83.5675 98.3989 84.7051 98.7623 87.6597 105.904C80.8815 111.813 74.7037 114.752 68.7945 114.689C63.8842 114.723 59.0302 113.641 54.5989 111.526C50.1677 109.41 46.2749 106.315 43.2143 102.475C42.9615 102.128 42.3927 102.475 42.6455 102.854C47.3855 110.075 56.3757 114.815 67.3725 115.858C74.8143 116.585 82.7143 112.334 88.0231 106.931C88.8447 109.648 89.8401 113.646 89.9507 114.12C89.4609 115.7 84.1679 120.614 83.3305 120.803C82.8407 120.914 83.0935 121.672 83.5359 121.483C86.0824 120.009 88.3762 118.137 90.3299 115.937C90.5037 116.758 90.8197 118.228 90.8671 118.591C90.9145 118.955 91.7361 119.018 91.7045 118.512ZM101.185 94.6859C100.989 94.6308 100.782 94.6244 100.584 94.6672C100.385 94.71 100.199 94.8008 100.044 94.9317C99.8878 95.0625 99.7664 95.2294 99.6898 95.4179C99.6133 95.6064 99.584 95.8107 99.6045 96.0131C97.9139 96.3765 98.0245 97.5931 99.0041 98.3831C99.9738 98.9951 100.976 99.5542 102.006 100.058C101.643 100.927 101.358 101.638 100.979 102.475C99.3991 102.475 94.4853 102.175 92.7789 102.033C93.4109 100.058 96.7447 90.8781 98.5775 85.9169C100.158 85.9959 105.103 86.1223 106.699 86.3751C106.32 87.9551 104.708 92.5529 104.25 93.9907C104.006 93.8297 103.732 93.7199 103.444 93.6677C103.157 93.6155 102.861 93.6221 102.577 93.687C102.292 93.752 102.023 93.874 101.786 94.0457C101.55 94.2173 101.35 94.4351 101.2 94.6859H101.185ZM101.88 103.234C102.148 102.38 102.48 101.559 102.923 100.484C102.993 100.497 103.065 100.486 103.129 100.454C103.193 100.422 103.245 100.37 103.277 100.306C103.309 100.242 103.319 100.17 103.307 100.099C103.294 100.029 103.259 99.9646 103.207 99.9157C102.812 99.5523 99.1463 97.6089 99.2885 97.2297C99.4307 96.8505 100.347 97.1191 100.869 97.4193C101.897 97.8428 102.953 98.1964 104.029 98.4779C104.098 98.4854 104.167 98.4699 104.227 98.4338C104.286 98.3977 104.332 98.343 104.357 98.2783C104.382 98.2135 104.385 98.1422 104.366 98.0755C104.347 98.0087 104.306 97.9502 104.25 97.9091C103.016 97.4613 101.812 96.9335 100.647 96.3291C100.41 96.1079 100.3 95.5075 100.647 95.5233C101.808 95.7999 102.89 96.3406 103.807 97.1033C103.844 97.1375 103.886 97.1643 103.933 97.182C103.98 97.1997 104.029 97.2081 104.079 97.2066C104.129 97.2052 104.178 97.1939 104.224 97.1735C104.269 97.153 104.31 97.1238 104.345 97.0875C104.379 97.0512 104.405 97.0085 104.423 96.9618C104.441 96.9152 104.449 96.8655 104.448 96.8156C104.446 96.7657 104.435 96.7166 104.415 96.6711C104.394 96.6256 104.365 96.5845 104.329 96.5503C103.735 96.0816 103.107 95.6591 102.449 95.2863C101.659 94.8281 102.227 94.2593 103.017 94.3699C104.076 94.5279 105.435 95.9499 105.293 98.8729C105.424 99.658 105.322 100.464 104.999 101.192C104.676 101.92 104.146 102.536 103.476 102.965C102.457 104.581 101.595 106.29 100.9 108.068C100.205 108.248 99.4737 108.226 98.7909 108.005C98.1081 107.784 97.5025 107.373 97.0449 106.82C97.1555 106.267 97.4873 104.371 97.5821 103.66C101.106 103.771 101.722 103.755 101.896 103.234H101.88ZM92.1943 122.367C92.7383 126.399 92.073 130.501 90.2825 134.154C89.1282 134.485 87.8995 134.448 86.7669 134.049C85.6344 133.65 84.6543 132.908 83.9625 131.926C87.8127 129.891 90.7526 126.477 92.1943 122.367ZM63.1223 88.2553C63.1504 88.2886 63.1872 88.3135 63.2285 88.3272C63.2699 88.341 63.3142 88.3431 63.3567 88.3333C63.3991 88.3235 63.438 88.3022 63.4692 88.2717C63.5003 88.2412 63.5224 88.2027 63.5331 88.1605C65.9189 78.7753 65.8557 79.3599 65.6345 79.2335C62.9801 77.7799 63.8175 74.9517 64.8919 74.6199C65.4291 74.4461 66.1401 74.7937 66.8511 75.5837C67.3154 76.0202 67.6677 76.5622 67.8781 77.1637C69.4581 81.5877 78.2113 75.7575 82.0033 72.9609C82.2664 72.7421 82.5777 72.5889 82.9115 72.5137C83.2453 72.4385 83.5921 72.4435 83.9236 72.5283C84.2551 72.6131 84.5618 72.7753 84.8185 73.0015C85.0752 73.2278 85.2746 73.5117 85.4003 73.8299C85.7637 74.5251 85.1001 75.1097 84.7051 74.3513C83.8835 72.9609 82.4457 73.7351 82.4773 74.1143C82.7933 78.0327 82.0665 83.5943 79.0171 86.3119C75.9677 89.0295 72.4285 87.6233 72.1125 87.8919C71.7965 88.1605 71.9703 88.4133 71.9703 88.7135C71.829 89.0488 71.7663 89.412 71.787 89.7753C71.8076 90.1386 71.9111 90.4924 72.0895 90.8096C72.2679 91.1267 72.5165 91.3989 72.8162 91.6052C73.116 91.8115 73.459 91.9465 73.8189 91.9999C75.1101 92.4878 76.3402 93.1241 77.4845 93.8959C71.8597 102.586 59.5673 101.306 54.8589 89.5983C57.491 88.6996 60.2344 88.1679 63.0117 88.0183L63.1223 88.2553ZM35.7725 108.795C36.7933 111.235 38.3173 113.432 40.2449 115.242C42.1725 117.053 44.4603 118.436 46.9589 119.302C46.7693 119.602 42.3611 126.807 41.3183 128.577C37.482 124.891 34.3639 120.525 32.1227 115.7C33.6869 112.887 34.5401 111.181 35.7725 108.811V108.795ZM311.925 80.7977C303.03 52.3577 270.971 39.2911 246.071 54.4275C218.01 71.4599 216.335 109.38 243.1 128.529C278.271 153.62 324.154 118.986 311.925 80.7977ZM263.893 123.9C269.123 130.836 274.368 131.373 277.876 130.568C284.417 129.082 290.152 121.735 291.827 112.682C291.85 112.575 291.83 112.464 291.771 112.372C291.711 112.28 291.618 112.215 291.511 112.192C291.404 112.169 291.293 112.19 291.201 112.249C291.109 112.308 291.045 112.401 291.022 112.508C290.278 116.374 288.656 120.018 286.282 123.157C276.991 135.26 267.322 129.351 259.911 115.953C257.503 112.111 256.151 107.702 255.993 103.17C259.753 101.401 259.674 101.306 260.117 101.685C264.509 105.461 272.488 114.467 273.594 115.684C273.614 115.789 273.67 115.884 273.752 115.952C273.834 116.02 273.938 116.058 274.044 116.058C274.151 116.058 274.255 116.02 274.337 115.952C274.419 115.884 274.475 115.789 274.495 115.684C276.264 108.542 277.655 101.132 282.916 96.0289C284.869 95.5792 286.848 95.2468 288.841 95.0335C295.841 103.881 294.845 115.684 294.814 126.886C290.121 130.469 284.731 133.03 278.989 134.405C273.247 135.779 267.282 135.936 261.476 134.865C261.817 131.123 262.629 127.439 263.893 123.9ZM290.184 94.8913C291.037 94.8913 290.958 93.5009 290.184 93.6115C286.886 93.8866 283.648 94.6535 280.578 95.8867C280.151 96.0605 279.661 96.1553 279.819 96.5819C279.977 97.0085 280.325 96.6925 281.51 96.3923C276.865 101.306 275.111 108.226 273.894 114.452C273.025 113.393 270.877 110.944 270.324 110.312C275.19 99.5839 274.921 99.2521 277.781 97.0875C278.887 96.2027 283.39 92.9479 287.119 90.6095C289.11 89.3455 290.532 88.4607 293.85 93.0585C296.931 97.3403 297.01 97.4035 295.035 106.804C294.441 102.475 292.731 98.3754 290.074 94.9071L290.184 94.8913ZM255.424 85.5851C255.709 85.5851 255.851 85.8063 256.072 86.1381C261.286 94.0381 260.891 93.1375 260.891 93.2955C260.891 94.0539 261.918 95.1915 262.945 96.1553C262.108 96.4713 260.543 97.1033 259.611 97.4825C259.611 94.5753 257.557 94.5753 257.004 95.7919C256.025 94.3541 253.844 91.5101 253.402 90.9571C253.282 90.7869 253.12 90.6508 252.931 90.5622C252.743 90.4736 252.535 90.4354 252.327 90.4515C251.585 89.5035 249.91 87.2915 249.262 86.3277C249.42 86.2961 254.919 85.6799 255.408 85.5851H255.424ZM266.168 100.563C265.931 102.491 262.913 100.342 264.083 99.2679C264.299 99.6337 264.599 99.9424 264.96 100.168C265.32 100.393 265.729 100.529 266.152 100.563H266.168ZM265.994 99.5681C265.347 99.4575 264.035 97.9881 264.414 97.6563C264.794 97.3245 266.421 99.3153 266.389 99.5523C266.257 99.597 266.114 99.6025 265.979 99.5681H265.994ZM269.613 109.601C268.238 108.147 261.997 101.701 261.839 101.575C261.61 101.233 261.314 100.94 260.969 100.715C260.624 100.489 260.238 100.336 259.832 100.263C259.625 99.7254 259.544 99.1469 259.595 98.5727L263.672 96.8347C264.051 97.1665 263.672 96.8347 263.482 97.5615C263.391 97.9005 263.431 98.2612 263.593 98.5727C262.013 99.7419 263.593 102.459 265.678 102.254C266.298 102.679 266.834 103.214 267.258 103.834C267.726 105.447 268.389 106.996 269.233 108.448C269.755 109.38 269.723 109.269 269.597 109.601H269.613ZM268.27 103.96C268.27 103.455 270.087 101.559 270.371 101.322C271.218 101.568 272.042 101.885 272.836 102.27C272.378 103.313 270.908 106.646 270.181 108.337C269.388 106.949 268.742 105.482 268.254 103.96H268.27ZM267.622 102.949C267.316 102.547 266.954 102.19 266.547 101.891C266.742 101.68 266.888 101.43 266.976 101.157C267.063 100.884 267.089 100.595 267.053 100.311C267.144 100.25 267.22 100.171 267.277 100.078C267.335 99.9856 267.371 99.8816 267.385 99.7735C267.511 99.0309 266.674 98.4147 266.121 97.8933C264.484 96.6091 263.028 95.1104 261.792 93.4377C263.047 94.0666 264.247 94.8014 265.378 95.6339C267.274 97.0401 269.707 98.3673 269.518 100.706C268.82 101.4 268.181 102.15 267.606 102.949H267.622ZM252.58 91.3995C254.186 93.2134 255.659 95.1408 256.988 97.1665C257.034 97.237 257.1 97.2923 257.177 97.3255C257.255 97.3587 257.34 97.3683 257.423 97.3531C257.505 97.3379 257.582 97.2986 257.642 97.2401C257.703 97.1816 257.745 97.1065 257.763 97.0243C257.763 96.5819 257.968 95.7919 258.379 95.9657C259.248 97.1507 258.379 98.9993 258.963 100.469C254.729 102.333 258.189 101.859 255.582 98.8887C253.165 96.3449 252.217 92.2053 252.58 91.3995ZM268.87 89.8195C269.447 87.7523 269.447 85.5667 268.87 83.4995C268.635 82.5784 268.492 81.6363 268.443 80.6871C269.392 80.7883 270.351 80.7457 271.287 80.5607C274.052 80.1025 275.474 78.6173 276.154 79.0755C276.596 79.3757 276.675 80.3079 276.391 81.7931C276.384 81.8413 276.393 81.8902 276.416 81.9333C276.438 81.9764 276.473 82.0115 276.516 82.0339C276.56 82.0563 276.608 82.0649 276.657 82.0586C276.705 82.0523 276.75 82.0313 276.786 81.9985C277.387 81.5058 278.141 81.2377 278.919 81.2401C281.02 81.4139 280.941 84.4001 278.919 85.6799C278.875 85.7145 278.845 85.7633 278.834 85.8177C278.823 85.8722 278.831 85.9289 278.857 85.9778C278.884 86.0268 278.927 86.0649 278.978 86.0855C279.03 86.1062 279.087 86.108 279.14 86.0907C279.898 85.8301 280.712 85.7733 281.5 85.9258C282.287 86.0782 283.021 86.4348 283.627 86.9597C283.958 88.2825 284.408 89.5728 284.97 90.8149C282.774 92.3159 279.835 94.3699 277.734 95.9973C275.838 92.0157 273.484 94.8439 271.856 91.6523C270.213 88.9189 269.17 89.8669 268.791 89.7721L268.87 89.8195ZM295.351 108.779C296.489 105.31 297.143 101.7 297.294 98.0513C297.07 96.295 296.358 94.6366 295.24 93.2639C290.753 86.7859 288.92 87.8603 285.46 90.1987C285.144 89.2349 284.449 87.2283 284.322 86.6911C284.528 86.4857 285.065 85.9643 285.223 85.8537C285.807 85.0335 286.26 84.1273 286.566 83.1677C286.97 81.8271 287.136 80.426 287.056 79.0281C287.135 77.7031 286.925 76.3767 286.44 75.1413C285.434 73.3845 283.846 72.0354 281.949 71.3282C280.053 70.621 277.969 70.6005 276.059 71.2703C273.104 70.2907 269.297 69.2795 267.859 69.8957C266.715 70.1714 265.691 70.8064 264.935 71.7075C264.179 72.6085 263.732 73.7282 263.66 74.902C263.587 76.0758 263.893 77.242 264.532 78.2292C265.171 79.2164 266.11 79.9726 267.211 80.3869C267.163 81.6068 267.302 82.8269 267.622 84.0051C268.157 85.6635 268.201 87.4415 267.748 89.1243C267.464 90.3883 267.875 90.9571 269.328 90.7043C271.035 90.8307 270.102 93.8643 273.973 94.4331C274.906 94.5911 275.648 94.7333 276.612 96.5187C275 97.8069 273.789 99.5279 273.12 101.48C272.261 100.973 271.35 100.56 270.403 100.247C270.298 99.4597 270.023 98.7041 269.598 98.0329C269.172 97.3618 268.606 96.7912 267.938 96.3607C266.465 95.1312 264.878 94.0465 263.198 93.1217C262.866 92.9479 262.171 92.4107 261.618 92.5213C256.119 84.1473 256.688 84.5107 254.966 84.5107C252.741 84.596 250.53 84.8923 248.362 85.3955C248.284 85.4247 248.213 85.4712 248.156 85.5314C248.098 85.5915 248.055 85.6639 248.03 85.7431C247.935 86.1223 248.03 85.9011 250.242 89.0611C252.296 91.9367 251.553 90.5305 251.68 92.0789C251.96 95.0642 253.176 97.8845 255.156 100.137C255.532 100.716 255.684 101.413 255.582 102.096L255.377 102.191C254.84 102.459 255.519 107.847 255.898 109.111C257.634 114.077 260.134 118.742 263.308 122.936C261.753 126.67 260.798 130.627 260.48 134.66C246.371 131.5 234.315 121.909 228.88 109.459C223.445 97.0085 224.835 82.4093 233.083 68.7739C255.914 35.2621 305.984 48.7237 311.925 87.8761C314.105 102.744 307.596 116.853 295.904 126.112C296.063 120.337 295.842 114.557 295.24 108.811L295.351 108.779ZM289.126 140.853C289.263 143.388 289.703 145.897 290.437 148.327C290.487 148.478 290.596 148.602 290.738 148.673C290.88 148.744 291.044 148.756 291.195 148.706C292.396 148.358 290.627 146.699 290.105 140.806C290.058 140.19 289.078 140.221 289.126 140.853ZM293.96 159.734C293.929 159.603 293.846 159.488 293.731 159.417C293.615 159.346 293.476 159.324 293.344 159.355C293.212 159.387 293.098 159.469 293.027 159.585C292.956 159.7 292.933 159.839 292.965 159.971C294.987 170.241 294.719 171.237 295.746 171.031C296.773 170.826 296.046 169.846 293.96 159.734ZM297.673 184.161C296.804 184.398 297.958 184.525 298.732 194.115C298.732 194.984 300.154 194.937 300.059 194.115C299.661 190.873 299.033 187.662 298.179 184.509C298.174 184.45 298.157 184.393 298.127 184.343C298.098 184.292 298.057 184.248 298.009 184.215C297.96 184.181 297.905 184.159 297.847 184.15C297.789 184.141 297.73 184.145 297.673 184.161ZM257.573 158.028C259.26 153.022 260.668 147.927 261.792 142.765C261.815 142.646 261.793 142.523 261.728 142.42C261.664 142.318 261.563 142.244 261.445 142.213C261.328 142.183 261.204 142.199 261.098 142.257C260.992 142.316 260.912 142.413 260.875 142.528C259.611 147.6 257.936 152.514 256.372 157.665C256.346 157.817 256.376 157.973 256.457 158.104C256.538 158.236 256.664 158.333 256.812 158.378C256.959 158.422 257.118 158.411 257.259 158.347C257.399 158.283 257.511 158.169 257.573 158.028ZM251.158 178.9C252.043 178.9 251.885 177.826 254.397 168.424C254.431 168.311 254.418 168.19 254.362 168.086C254.305 167.982 254.21 167.905 254.097 167.871C253.984 167.838 253.862 167.851 253.758 167.907C253.655 167.963 253.577 168.059 253.544 168.172C253.054 169.752 250.905 176.404 250.51 178.078C250.486 178.176 250.485 178.278 250.506 178.377C250.528 178.476 250.571 178.568 250.634 178.647C250.696 178.726 250.776 178.79 250.867 178.834C250.958 178.878 251.057 178.9 251.158 178.9ZM243.985 199.44C244.538 199.44 244.506 199.029 244.965 197.196C245.581 194.7 246.545 190.876 246.924 189.802C247.161 189.17 246.197 188.885 245.96 189.486C244.894 192.581 244.055 195.749 243.448 198.966C243.46 199.099 243.522 199.222 243.622 199.31C243.722 199.398 243.852 199.444 243.985 199.44ZM238.771 212.886C237.315 215.706 236.191 218.686 235.421 221.765C235.379 221.925 235.402 222.094 235.485 222.236C235.568 222.378 235.704 222.482 235.864 222.524C236.023 222.566 236.192 222.543 236.335 222.46C236.477 222.377 236.58 222.241 236.622 222.081C239.261 213.123 240.114 213.044 239.34 212.601C239.284 212.579 239.224 212.569 239.164 212.572C239.104 212.574 239.045 212.589 238.992 212.616C238.938 212.643 238.891 212.681 238.853 212.727C238.815 212.774 238.787 212.828 238.771 212.886ZM222.26 166.955C222.418 168.188 222.987 173.275 223.176 174.681C223.188 174.768 223.216 174.852 223.26 174.929C223.304 175.005 223.362 175.072 223.432 175.125C223.502 175.179 223.581 175.218 223.666 175.241C223.751 175.264 223.84 175.269 223.927 175.258C224.014 175.247 224.098 175.218 224.174 175.174C224.25 175.13 224.317 175.072 224.371 175.002C224.424 174.932 224.463 174.853 224.486 174.768C224.509 174.683 224.515 174.595 224.503 174.507C224.298 173.149 223.413 168.045 223.224 166.829C223.129 166.26 222.181 166.37 222.26 166.955ZM224.741 189.565C224.914 190.56 225.562 194.858 225.768 195.995C225.926 196.849 227.189 196.533 227.032 195.695C226.652 193.594 226.147 191.477 225.752 189.375C225.625 188.664 224.63 188.917 224.741 189.565ZM227.3 211.543C227.371 214.195 227.656 216.837 228.153 219.443C228.343 220.312 229.639 219.964 229.481 219.111C228.94 216.6 228.529 214.064 228.248 211.511C228.106 210.926 227.189 210.911 227.3 211.543ZM186.22 80.0551C185.92 79.4863 185.083 79.9603 185.351 80.5291C190.486 91.0677 190.091 91.1625 190.834 91.1625C190.956 91.1614 191.076 91.1293 191.183 91.0693C191.29 91.0093 191.38 90.9233 191.444 90.8192C191.509 90.7152 191.546 90.5965 191.553 90.4742C191.559 90.3519 191.535 90.23 191.482 90.1197C189.744 86.7227 187.911 83.4205 186.22 80.0551ZM196.016 100.658C195.779 100.121 194.973 100.548 195.21 101.085C196.79 104.608 198.102 108.226 199.713 111.766C200.061 112.556 201.214 111.924 200.867 111.149C199.303 107.515 197.454 103.866 196.016 100.658ZM209.92 132.843C210.016 132.848 210.111 132.83 210.198 132.789C210.285 132.749 210.361 132.688 210.419 132.611C210.476 132.535 210.514 132.445 210.529 132.351C210.544 132.256 210.536 132.159 210.505 132.069C209.952 130.489 207.218 124.69 206.523 123.126C206.239 122.478 205.291 122.984 205.559 123.631C209.32 132.258 209.257 132.843 209.92 132.843ZM238.708 127.107C238.123 128.103 235.437 131.753 234.71 132.685C234.656 132.754 234.617 132.834 234.593 132.919C234.57 133.004 234.564 133.092 234.575 133.179C234.586 133.267 234.614 133.351 234.658 133.427C234.701 133.504 234.759 133.571 234.829 133.625C234.898 133.679 234.978 133.719 235.063 133.742C235.148 133.765 235.236 133.771 235.323 133.76C235.411 133.749 235.495 133.721 235.571 133.678C235.648 133.634 235.715 133.576 235.769 133.506C237.129 131.609 238.364 129.624 239.466 127.566C239.527 127.465 239.545 127.345 239.517 127.23C239.489 127.116 239.417 127.018 239.316 126.957C239.215 126.897 239.095 126.878 238.981 126.906C238.867 126.935 238.768 127.007 238.708 127.107ZM211.105 67.5099C211.753 67.5099 212.1 66.5303 211.421 66.2301C209.983 65.5823 203.932 63.5757 202.431 63.0701C201.815 62.8331 201.499 63.7811 202.115 64.0181C203.711 64.5869 210.584 67.5099 211.105 67.5099ZM216.588 69.8799C219.424 71.4229 222.403 72.6876 225.483 73.6561C225.66 73.6866 225.842 73.6505 225.994 73.555C226.145 73.4594 226.257 73.3111 226.306 73.1385C226.355 72.9659 226.338 72.7812 226.259 72.6201C226.18 72.459 226.045 72.3327 225.878 72.2657C222.854 71.4448 219.913 70.3446 217.093 68.9793C216.493 68.7107 215.987 69.6271 216.588 69.8799ZM141.174 68.9319C147.494 64.6817 149.39 65.6455 149.074 64.5237C149.056 64.459 149.025 64.3987 148.984 64.3461C148.942 64.2935 148.89 64.2497 148.831 64.2174C148.772 64.185 148.708 64.1647 148.641 64.1576C148.574 64.1505 148.507 64.1568 148.442 64.1761C145.59 64.9263 142.875 66.1264 140.4 67.7311C139.673 68.2999 140.4 69.4375 141.174 68.9319ZM126.812 74.2565C126.322 74.6515 126.717 75.2993 127.27 75.2993C127.46 75.2993 127.492 75.2993 129.23 74.4303C130.968 73.5613 132.958 72.6291 133.701 72.4079C133.826 72.3588 133.927 72.2648 133.986 72.1444C134.045 72.0241 134.057 71.886 134.02 71.7573C133.982 71.6287 133.898 71.5187 133.783 71.4491C133.669 71.3794 133.532 71.3551 133.401 71.3809C131.114 72.1176 128.907 73.081 126.812 74.2565Z" fill="#0E3A99"/>
<path d="M120.713 77.2427C119.892 77.7009 115.357 80.0867 114.867 80.4027C114.767 80.4729 114.69 80.5723 114.647 80.6875C114.605 80.8027 114.599 80.9282 114.63 81.047C114.661 81.1658 114.727 81.2722 114.821 81.352C114.914 81.4317 115.03 81.4809 115.152 81.4929C117.251 80.5014 119.288 79.3828 121.251 78.1433C121.339 78.0594 121.397 77.9478 121.414 77.8267C121.431 77.7057 121.406 77.5826 121.343 77.4777C121.28 77.3728 121.184 77.2924 121.069 77.2496C120.955 77.2069 120.829 77.2045 120.713 77.2427ZM107.22 51.9943C109.341 52.0086 111.442 51.5933 113.398 50.7734C115.354 49.9536 117.123 48.7461 118.599 47.224C120.076 45.7018 121.229 43.8964 121.988 41.9166C122.748 39.9368 123.099 37.8236 123.02 35.7045C122.546 21.5951 104.266 14.8643 95.0226 26.8723C86.6802 37.3161 94.7066 51.9943 107.22 51.9943ZM97.7402 25.6399C107.426 16.7129 121.646 24.0599 122.009 35.7677C121.98 38.7393 121.123 41.6439 119.535 44.1557C117.947 46.6675 115.691 48.687 113.019 49.9877C104.187 53.8429 93.5532 47.2227 92.7948 37.9007C92.6127 35.6136 92.9646 33.3154 93.8229 31.1876C94.6811 29.0598 96.0222 27.1606 97.7402 25.6399ZM142.359 38.6117C145.156 38.9119 147.968 38.9435 150.765 39.0699C150.891 39.0699 151.011 39.02 151.1 38.9311C151.189 38.8422 151.239 38.7216 151.239 38.5959C151.239 38.4702 151.189 38.3496 151.1 38.2608C151.011 38.1719 150.891 38.1219 150.765 38.1219C147.826 37.8533 146.025 37.4899 142.359 37.2529C141.522 37.2055 141.506 38.5169 142.359 38.6117ZM125.801 36.9369C127.081 37.0791 132.342 37.4425 133.701 37.6163C134.412 37.7269 134.696 36.6525 133.954 36.5261C131.279 36.1063 128.584 35.832 125.88 35.7045C125.799 35.6993 125.718 35.7101 125.641 35.7363C125.564 35.7625 125.494 35.8035 125.433 35.8571C125.372 35.9106 125.322 35.9756 125.286 36.0484C125.251 36.1212 125.229 36.2003 125.224 36.2812C125.219 36.3621 125.23 36.4433 125.256 36.52C125.282 36.5968 125.323 36.6676 125.377 36.7285C125.43 36.7894 125.495 36.8391 125.568 36.8749C125.641 36.9107 125.72 36.9317 125.801 36.9369ZM62.9802 153.841C63.4384 150.934 63.549 148.043 63.8966 145.151C63.9756 144.614 63.0908 144.488 63.0118 145.041C62.5694 147.885 61.89 150.744 61.5582 153.636C61.5598 153.809 61.6234 153.977 61.7377 154.107C61.8519 154.238 62.0092 154.324 62.1811 154.349C62.3529 154.373 62.528 154.336 62.6746 154.243C62.8212 154.15 62.9296 154.007 62.9802 153.841ZM61.2738 161.662C59.6938 170.336 59.3304 171.395 60.468 171.395C61.3212 171.395 61.1632 170.826 62.2376 161.789C62.3166 161.204 61.4002 161.078 61.2738 161.662ZM90.33 176.103C87.9284 177.367 84.9422 178.837 84.01 179.39C83.8805 179.466 83.78 179.584 83.7245 179.724C83.6689 179.863 83.6613 180.018 83.7028 180.162C83.7444 180.307 83.8328 180.434 83.9542 180.523C84.0755 180.611 84.223 180.658 84.3734 180.654C86.5766 179.561 88.7181 178.348 90.7882 177.02C90.8848 176.946 90.9527 176.841 90.9802 176.723C91.0076 176.605 90.9929 176.48 90.9386 176.372C90.8843 176.263 90.7938 176.177 90.6827 176.128C90.5716 176.079 90.4468 176.07 90.33 176.103ZM81.087 180.97C79.362 181.778 77.6797 182.675 76.0468 183.656C75.5412 184.114 76.1416 184.872 76.742 184.588C77.3424 184.304 80.7078 182.218 81.482 181.855C82.2562 181.491 81.6716 180.717 81.087 180.97ZM144.714 194.131C145.282 194.495 145.82 193.626 145.267 193.246C144.066 192.456 139.5 189.075 138.236 188.412C138.072 188.333 137.885 188.316 137.711 188.366C137.536 188.415 137.385 188.527 137.288 188.68C136.64 189.691 138.82 190.26 144.714 194.131ZM122.831 179.532C123.621 180.085 124.411 180.606 125.216 181.112C130.604 184.683 130.351 184.793 130.683 184.793C130.792 184.792 130.899 184.758 130.989 184.696C131.079 184.634 131.148 184.547 131.189 184.446C131.229 184.344 131.239 184.233 131.217 184.126C131.194 184.02 131.14 183.922 131.062 183.845C128.664 181.871 126.158 180.03 123.557 178.331C122.799 177.873 122.104 179.042 122.831 179.532ZM278.413 231.893C275.822 232.257 273.152 232.525 270.513 233.126C270.351 233.176 270.212 233.282 270.121 233.426C270.031 233.569 269.995 233.741 270.019 233.909C270.044 234.077 270.128 234.23 270.257 234.342C270.385 234.453 270.549 234.515 270.719 234.516C271.335 234.516 275.269 233.457 278.619 232.936C279.44 232.873 279.124 231.767 278.413 231.893ZM264.446 234.453C261.792 234.848 258.869 235.085 255.993 235.575C255.187 235.717 255.408 236.886 256.198 236.886C256.988 236.886 262.645 235.748 264.651 235.432C265.299 235.322 265.078 234.358 264.446 234.453ZM168.84 177.81C168.761 177.676 168.631 177.579 168.48 177.54C168.329 177.502 168.168 177.525 168.034 177.604C167.9 177.684 167.803 177.814 167.765 177.965C167.726 178.116 167.749 178.276 167.829 178.41C168.609 179.681 169.837 180.612 171.272 181.019C172.706 181.426 174.24 181.278 175.571 180.606C175.66 180.552 175.725 180.466 175.753 180.366C175.781 180.265 175.77 180.158 175.721 180.066C175.673 179.973 175.592 179.903 175.493 179.868C175.395 179.833 175.287 179.838 175.192 179.88C174.059 180.336 172.801 180.378 171.64 180C170.478 179.622 169.487 178.846 168.84 177.81ZM179.9 171.964C179.79 172.88 178.968 172.375 178.905 172.928C178.905 173.228 179.158 173.338 179.474 173.338C179.754 173.329 180.027 173.244 180.264 173.094C180.501 172.944 180.694 172.733 180.823 172.484C180.951 172.235 181.011 171.955 180.996 171.675C180.981 171.395 180.892 171.124 180.738 170.889C179.851 169.939 179.043 168.919 178.32 167.84C178.293 167.741 178.228 167.658 178.139 167.607C178.05 167.557 177.945 167.544 177.846 167.571C177.748 167.599 177.664 167.664 177.614 167.753C177.563 167.842 177.55 167.947 177.578 168.045C177.949 168.881 178.416 169.671 178.968 170.4C179.329 170.889 179.641 171.413 179.9 171.964ZM171.51 160.398C171.469 160.21 171.353 160.045 171.19 159.942C171.027 159.838 170.83 159.803 170.641 159.845C170.453 159.887 170.289 160.002 170.185 160.165C170.081 160.328 170.047 160.526 170.088 160.714C170.531 163.716 170.262 164.996 171.447 164.996C171.673 164.996 171.891 164.906 172.051 164.746C172.211 164.586 172.3 164.369 172.3 164.143C172.3 163.748 171.637 161.062 171.51 160.398ZM183.929 160.54C183.896 160.368 183.801 160.214 183.663 160.106C183.524 159.998 183.351 159.944 183.176 159.953C183.001 159.963 182.835 160.036 182.709 160.158C182.583 160.281 182.506 160.444 182.491 160.619C182.491 160.856 182.713 163.685 182.792 163.906C182.815 164.115 182.92 164.307 183.084 164.439C183.249 164.571 183.459 164.632 183.669 164.609C183.878 164.586 184.07 164.48 184.202 164.316C184.334 164.152 184.395 163.941 184.372 163.732C184.34 163.542 184.087 161.994 183.929 160.54ZM169.03 159.592C169.233 158.921 169.653 158.335 170.225 157.929C170.798 157.523 171.489 157.319 172.19 157.349C172.313 157.363 172.436 157.33 172.536 157.257C172.636 157.183 172.704 157.075 172.727 156.954C172.885 155.816 168.635 156.274 167.703 159.229C167.654 159.405 167.678 159.593 167.768 159.751C167.859 159.91 168.009 160.026 168.185 160.074C168.361 160.122 168.548 160.099 168.707 160.008C168.865 159.918 168.982 159.768 169.03 159.592ZM180.848 156.78C181.423 156.747 181.993 156.903 182.47 157.226C182.947 157.549 183.304 158.019 183.487 158.565C183.771 159.182 184.767 158.771 184.577 158.107C184.268 157.362 183.71 156.747 182.998 156.367C182.287 155.987 181.466 155.865 180.674 156.022C180.589 156.058 180.519 156.123 180.476 156.205C180.434 156.288 180.422 156.383 180.443 156.474C180.464 156.564 180.516 156.645 180.59 156.701C180.664 156.757 180.755 156.785 180.848 156.78ZM302.777 209.947C302.777 209.947 301.939 206.123 301.718 205.017C301.691 204.894 301.616 204.786 301.509 204.718C301.402 204.65 301.273 204.627 301.149 204.654C301.026 204.681 300.918 204.756 300.85 204.863C300.782 204.97 300.759 205.099 300.786 205.223L301.529 209.726C299.019 209.408 296.47 209.627 294.051 210.369C291.632 211.11 289.398 212.358 287.498 214.028C285.598 215.698 284.074 217.753 283.028 220.057C281.982 222.36 281.438 224.86 281.431 227.39C282.379 251.201 316.554 250.727 317.028 227.39C317.06 223.277 315.653 219.282 313.051 216.096C310.448 212.911 306.814 210.736 302.777 209.947ZM306.853 234.864C304.357 241.958 294.94 240.694 294.94 232.225V227.106C294.664 227.141 294.384 227.117 294.118 227.036C293.852 226.954 293.606 226.817 293.397 226.633C293.188 226.449 293.021 226.223 292.906 225.969C292.792 225.716 292.732 225.441 292.732 225.162C292.732 224.884 292.792 224.609 292.906 224.355C293.021 224.102 293.188 223.876 293.397 223.692C293.606 223.508 293.852 223.371 294.118 223.289C294.384 223.208 294.664 223.184 294.94 223.219C294.94 221.639 294.94 220.059 295.051 218.337C295.057 218.081 295.113 217.83 295.217 217.597C295.32 217.363 295.468 217.152 295.653 216.976C295.838 216.8 296.056 216.662 296.294 216.57C296.532 216.478 296.786 216.434 297.041 216.441C297.558 216.457 298.048 216.677 298.403 217.053C298.758 217.429 298.95 217.93 298.937 218.447C298.937 220.106 298.937 221.686 298.843 223.187H302.176C302.431 223.181 302.685 223.226 302.923 223.319C303.16 223.412 303.376 223.552 303.559 223.73C303.742 223.908 303.887 224.121 303.986 224.356C304.085 224.591 304.136 224.844 304.136 225.099C304.14 225.356 304.093 225.611 303.998 225.849C303.904 226.087 303.762 226.305 303.583 226.488C303.404 226.672 303.19 226.818 302.954 226.919C302.718 227.019 302.465 227.072 302.208 227.074H298.795C298.795 232.841 298.637 233.805 299.427 234.785C300.549 236.207 302.255 235.733 303.14 233.552C303.314 233.06 303.676 232.657 304.148 232.431C304.619 232.206 305.16 232.177 305.652 232.351C306.145 232.525 306.548 232.888 306.773 233.359C306.998 233.83 307.027 234.371 306.853 234.864ZM175.808 29.4951C172.574 29.4784 169.369 30.1028 166.378 31.3321C163.386 32.5615 160.669 34.3715 158.381 36.6576C156.094 38.9436 154.282 41.6603 153.05 44.6508C151.819 47.6412 151.193 50.846 151.207 54.0799C151.855 86.6279 199.761 86.6437 200.393 54.0799C200.41 50.8467 199.785 47.6423 198.556 44.6519C197.326 41.6616 195.516 38.9448 193.229 36.6585C190.943 34.3722 188.226 32.562 185.236 31.3324C182.246 30.1028 179.041 29.4784 175.808 29.4951ZM182.902 41.9139C182.66 42.3676 182.25 42.7081 181.759 42.8618C181.268 43.0155 180.737 42.9701 180.279 42.7355C179.464 42.2874 178.518 42.14 177.605 42.3191C176.693 42.4982 175.872 42.9923 175.287 43.7151C173.47 45.6111 173.549 52.0575 173.549 52.4051L178.289 51.6783C178.8 51.6008 179.321 51.7295 179.737 52.0362C180.154 52.3429 180.431 52.8024 180.509 53.3136C180.586 53.8249 180.457 54.3459 180.151 54.7623C179.844 55.1786 179.384 55.456 178.873 55.5335L173.564 56.3393C173.564 60.0997 173.738 63.7337 173.865 67.3993C173.842 67.8906 173.636 68.3555 173.286 68.7016C172.937 69.0477 172.47 69.2498 171.979 69.2677C171.487 69.2856 171.007 69.118 170.633 68.7982C170.26 68.4785 170.02 68.0299 169.962 67.5415C169.788 62.3591 169.662 57.0977 169.599 51.4729C169.599 48.3129 169.599 44.1891 172.411 41.0765C176.819 36.2575 184.64 38.6749 182.902 41.9139Z" fill="#0E3A99"/>
<path d="M250.652 242.1C257.115 223.33 256.799 224.436 256.688 224.278C256.577 224.12 236.148 223.74 224.804 223.962C220.279 217.178 214.367 211.433 207.457 207.105C200.547 202.777 192.797 199.965 184.719 198.855C183.491 197.508 181.796 196.678 179.979 196.533L178.004 195.853C177.925 194.311 177.925 192.766 178.004 191.224C182.438 189.535 186.06 186.218 188.132 181.949C190.454 176.735 189.301 170.068 187.942 153.114C191.197 154.126 191.276 150.776 189.301 148.153C189.39 147.593 189.362 147.02 189.218 146.471C189.075 145.921 188.819 145.408 188.467 144.963C188.115 144.517 187.675 144.15 187.174 143.883C186.673 143.616 186.122 143.456 185.556 143.413C185.86 142.947 186.036 142.409 186.065 141.853C186.094 141.298 185.976 140.744 185.723 140.249C185.47 139.753 185.09 139.334 184.622 139.032C184.155 138.73 183.616 138.557 183.06 138.531C182.731 137.808 182.184 137.206 181.495 136.809C180.807 136.412 180.011 136.241 179.221 136.319C179.109 135.787 178.857 135.295 178.492 134.894C178.126 134.492 177.66 134.196 177.141 134.034C176.622 133.873 176.07 133.854 175.541 133.978C175.012 134.101 174.526 134.364 174.133 134.739C173.801 134.233 172.98 132.985 172.553 132.511C172.891 132.179 173.123 131.754 173.221 131.291C173.32 130.827 173.28 130.345 173.106 129.904C173.88 129.662 174.557 129.179 175.037 128.525C175.518 127.871 175.777 127.081 175.777 126.27C175.777 125.459 175.518 124.669 175.037 124.015C174.557 123.362 173.88 122.878 173.106 122.636C174.354 118.086 170.088 115.289 166.217 117.106C166.008 116.584 165.649 116.136 165.185 115.818C164.721 115.5 164.173 115.327 163.61 115.321C166.77 111.339 162.267 108.558 157.985 109.917C157.704 109.195 157.231 108.563 156.617 108.089C156.004 107.616 155.272 107.318 154.502 107.229C153.732 107.139 152.953 107.262 152.247 107.582C151.541 107.903 150.936 108.409 150.496 109.048C149.46 108.776 148.357 108.921 147.427 109.453C146.496 109.985 145.811 110.861 145.519 111.892C144.856 111.736 144.166 111.728 143.5 111.87C142.833 112.013 142.206 112.301 141.664 112.714C141.302 112.089 140.726 111.617 140.041 111.386C139.357 111.156 138.612 111.182 137.946 111.461C137.28 111.74 136.738 112.252 136.422 112.901C136.106 113.55 136.037 114.293 136.229 114.989C135.792 115.111 135.404 115.367 135.12 115.722C134.837 116.076 134.672 116.511 134.649 116.964C134.475 116.935 134.297 116.943 134.127 116.987C133.956 117.032 133.797 117.112 133.66 117.222C133.522 117.333 133.41 117.471 133.33 117.628C133.25 117.785 133.204 117.957 133.195 118.133C132.784 118.029 132.351 118.047 131.949 118.185C131.548 118.323 131.196 118.575 130.936 118.911C130.676 119.246 130.519 119.651 130.486 120.074C130.452 120.497 130.543 120.921 130.746 121.293C130.232 121.409 129.762 121.673 129.397 122.054C129.032 122.435 128.787 122.914 128.692 123.433C128.598 123.952 128.659 124.488 128.866 124.972C129.074 125.457 129.42 125.87 129.861 126.16C127.365 126.886 125.753 129.32 126.701 131.532C123.857 133.254 122.688 136.746 124.695 139.179C124.334 140.183 124.349 141.284 124.739 142.278C125.128 143.272 125.865 144.091 126.812 144.582C126.399 145.09 126.136 145.704 126.054 146.353C125.971 147.003 126.072 147.663 126.345 148.258C126.618 148.853 127.052 149.36 127.598 149.721C128.144 150.082 128.78 150.284 129.435 150.302C129.483 150.874 129.678 151.424 130.002 151.899C130.325 152.374 130.766 152.757 131.281 153.011C131.796 153.266 132.368 153.382 132.941 153.351C133.515 153.319 134.07 153.14 134.554 152.83C134.812 153.241 135.184 153.567 135.624 153.768C136.065 153.97 136.555 154.038 137.034 153.964C137.513 153.89 137.96 153.677 138.32 153.352C138.679 153.027 138.935 152.604 139.057 152.135C139.83 152.426 140.66 152.534 141.482 152.452C142.305 152.37 143.097 152.099 143.797 151.661C143.149 155.595 140.163 155.879 141.095 160.003C140.545 160.727 140.24 161.609 140.226 162.518C140.212 163.428 140.489 164.318 141.016 165.059C140.837 165.44 140.736 165.853 140.718 166.274C140.701 166.694 140.768 167.114 140.915 167.509C141.062 167.903 141.287 168.264 141.576 168.571C141.864 168.877 142.211 169.123 142.596 169.294C142.448 169.584 142.378 169.907 142.393 170.233C142.408 170.558 142.507 170.874 142.681 171.15C142.854 171.425 143.097 171.651 143.384 171.805C143.671 171.959 143.993 172.035 144.318 172.027C144.629 173.189 145.226 174.254 146.054 175.126C146.881 175.998 147.915 176.649 149.058 177.02C149.216 196.88 149.943 194.495 148.047 196.801C146.301 197.719 144.87 199.139 143.939 200.878C116.226 210.5 105.04 232.478 101.374 261.976C99.2569 261.645 99.1621 261.566 99.0831 261.834C98.2302 265.154 97.9312 268.592 98.1983 272.009C98.1983 272.215 98.1983 272.199 100.726 272.815C101.437 284.997 108.026 298.206 121.266 300.528C121.092 303.088 120.887 317.75 121.266 321.068C121.283 321.146 121.326 321.215 121.388 321.265C121.45 321.315 121.527 321.342 121.606 321.342C121.685 321.342 121.762 321.315 121.824 321.265C121.886 321.215 121.929 321.146 121.946 321.068C121.946 319.299 122.167 303.404 122.309 300.765C130.351 301.555 135.06 298.19 141.395 291.285C151.349 280.225 156.99 268.296 162.868 255.783C163.9 253.763 164.731 251.646 165.348 249.463C166.275 249.838 167.297 249.91 168.268 249.668C169.239 249.427 170.108 248.885 170.752 248.12C173.015 248.85 175.419 249.034 177.767 248.657C178.164 248.583 178.542 248.428 178.877 248.202C179.211 247.976 179.496 247.683 179.712 247.342C179.929 247.001 180.072 246.619 180.135 246.22C180.197 245.821 180.176 245.414 180.074 245.023C182.096 244.928 183.36 243.095 181.338 241.563C180.694 241.068 180.013 240.624 179.3 240.236C180.974 240.125 185.398 239.635 186.836 238.656C188.274 237.676 188.227 235.227 186.236 234.958C185.398 234.848 173.09 235.353 170.294 235.748C167.526 236.042 164.906 237.14 162.757 238.908C159.597 241.515 137.256 260.08 129.277 266.78C124.647 265.942 107.299 262.972 102.685 262.245C106.509 230.376 119.497 211.322 143.513 202.347C142.043 208.351 149.153 214.513 151.413 216.346C155.126 219.395 161.193 222.666 166.391 221.244C169.693 220.359 172.158 217.815 173.738 213.66C180.753 219.743 184.055 219.064 185.161 218.495C189.412 216.267 189.238 205.428 185.699 200.214C193.282 201.388 200.541 204.115 207.022 208.222C213.503 212.33 219.067 217.731 223.366 224.088C216.114 224.246 216.556 224.246 216.493 224.436C214.78 229.058 213.115 233.698 211.5 238.355C210.868 234.421 209.92 229.065 209.509 227.517C209.474 227.432 209.41 227.363 209.328 227.322C209.246 227.282 209.152 227.272 209.063 227.295C208.975 227.318 208.898 227.373 208.846 227.448C208.794 227.524 208.772 227.615 208.782 227.706C209.241 229.634 210.189 236.949 210.71 240.646C204.295 259.211 199.271 275.944 199.397 276.117C199.524 276.291 215.197 276.291 217.22 276.26C218.8 289.468 220 317.008 219.953 320.278C219.953 320.371 219.99 320.459 220.055 320.524C220.12 320.589 220.208 320.626 220.301 320.626C220.393 320.626 220.481 320.589 220.546 320.524C220.612 320.459 220.648 320.371 220.648 320.278C220.933 314.464 220.648 296.989 220.38 293.213C224.116 292.593 227.54 290.748 230.112 287.967C232.04 285.992 234.852 280.146 236.796 275.438C239.861 275.233 239.956 275.28 239.956 275.075C241.757 270.888 243.542 265.958 245.043 261.155C252.501 260.033 256.277 249.573 253.259 244.833C252.583 243.757 251.696 242.827 250.652 242.1ZM121.835 275.691C122.846 275.517 121.724 274.111 159.866 242.764C166.186 237.597 166.675 237.107 174.338 236.586C177.182 236.396 184.561 236.128 185.398 236.112C186.046 236.112 186.615 236.112 186.568 236.696C186.568 237.708 184.988 238.008 183.897 238.276C180.627 239.068 177.277 239.481 173.912 239.509C173.811 239.509 173.715 239.549 173.644 239.62C173.573 239.691 173.533 239.787 173.533 239.888C173.533 239.989 173.573 240.085 173.644 240.156C173.715 240.227 173.811 240.267 173.912 240.267H177.198C178.206 240.755 179.168 241.331 180.074 241.989C180.453 242.258 181.132 242.511 181.18 242.874C181.433 244.976 176.124 243.032 174.259 242.132C174.195 242.098 174.119 242.092 174.049 242.114C173.98 242.136 173.922 242.185 173.888 242.25C173.855 242.315 173.848 242.391 173.871 242.46C173.893 242.53 173.942 242.588 174.007 242.621C175.35 243.459 179.995 245.086 178.92 246.666C177.546 248.657 173.943 247.804 171.558 247.33C172.056 246.927 172.655 246.668 173.29 246.582C173.926 246.495 174.572 246.585 175.16 246.84C175.24 246.86 175.325 246.851 175.399 246.814C175.474 246.777 175.532 246.715 175.564 246.639C175.597 246.563 175.601 246.477 175.576 246.398C175.551 246.319 175.499 246.252 175.429 246.208C174.458 245.799 173.384 245.703 172.357 245.933C171.329 246.162 170.398 246.705 169.693 247.488C167.813 249.289 165.475 248.862 163.658 247.03C163.593 246.972 163.509 246.94 163.423 246.938C163.336 246.937 163.252 246.967 163.185 247.022C163.118 247.077 163.073 247.155 163.059 247.24C163.044 247.325 163.06 247.413 163.105 247.488C163.468 248.046 163.941 248.524 164.495 248.894C161.68 255.817 158.516 262.594 155.015 269.197C148.695 281.047 142.28 289.421 135.075 295.52C127.27 302.235 115.799 299.77 109.211 292.091C105.261 287.525 102.78 281.126 101.864 273.131C105.15 273.7 118.28 275.58 121.835 275.691ZM149.232 143.887C147.869 144.845 146.815 146.179 146.199 147.727C145.582 147.182 145.105 146.498 144.808 145.73C144.511 144.963 144.403 144.136 144.492 143.318C145.898 136.998 152.392 131.468 157.78 129.841C161.098 128.498 169.535 129.999 172.253 134.06C171.366 133.979 170.482 134.233 169.772 134.771C169.347 134.218 168.803 133.768 168.179 133.455C167.556 133.142 166.87 132.974 166.173 132.963C165.476 132.953 164.785 133.1 164.152 133.394C163.52 133.687 162.962 134.12 162.52 134.66C161.656 134.912 160.875 135.392 160.261 136.05C159.679 135.739 159.019 135.605 158.362 135.664C157.706 135.722 157.08 135.972 156.563 136.382C156.013 136.531 155.529 136.862 155.191 137.321C154.853 137.78 154.679 138.34 154.699 138.91C154.006 138.842 153.305 138.919 152.644 139.139C151.982 139.358 151.374 139.714 150.859 140.183C150.343 140.652 149.932 141.224 149.652 141.862C149.372 142.5 149.229 143.19 149.232 143.887ZM179.11 209.536C171.731 217.183 149.564 208.272 148.126 201.162C148.013 200.398 148.081 199.618 148.325 198.885C148.569 198.152 148.983 197.487 149.532 196.944C149.69 196.786 149.801 196.612 149.959 196.454C149.978 196.408 149.978 196.357 149.959 196.312L150.259 195.932C150.654 195.19 150.164 179.469 150.085 177.209C150.68 177.217 151.262 177.036 151.747 176.693C152.233 176.349 152.597 175.861 152.787 175.298C153.124 175.481 153.507 175.56 153.889 175.526C154.27 175.492 154.633 175.346 154.932 175.106C155.231 174.867 155.452 174.544 155.568 174.179C155.684 173.813 155.69 173.422 155.584 173.054L159.471 168.883C159.465 169.401 159.609 169.911 159.883 170.351C160.158 170.791 160.553 171.143 161.022 171.365C161.49 171.588 162.013 171.672 162.527 171.607C163.042 171.542 163.528 171.332 163.926 171C164.335 170.703 164.672 170.32 164.916 169.877C165.159 169.435 165.301 168.944 165.332 168.44C165.339 168.386 165.326 168.331 165.296 168.285C165.266 168.239 165.222 168.205 165.17 168.188C165.117 168.171 165.061 168.173 165.01 168.193C164.959 168.213 164.917 168.25 164.89 168.298C164.627 168.692 164.239 168.984 163.788 169.128C163.337 169.271 162.851 169.257 162.409 169.088C162.564 168.433 162.534 167.748 162.322 167.109C162.11 166.47 161.724 165.903 161.209 165.47C158.839 157.886 159.06 154.884 163.31 152.04C166.47 149.654 177.53 144.345 184.972 151.124C185.483 151.717 186.093 152.22 186.773 152.609C188.701 178.853 189.933 179.2 182.728 186.816C180.521 189.054 177.582 190.422 174.449 190.671C173.896 190.671 173.833 191.477 174.449 191.54C175.251 191.65 176.064 191.65 176.866 191.54C176.866 196.896 176.629 196.485 178.162 197.023C183.392 199.44 182.934 205.539 179.11 209.536ZM225.578 289.832C223.918 290.752 222.144 291.448 220.301 291.902C220.064 289.247 219.1 280.842 218.468 276.102C224.219 275.975 230.002 275.738 235.516 275.391C233.209 281.142 229.717 287.809 225.578 289.832ZM236.022 237.692C232.546 237.597 232.546 233.299 236.022 233.205C239.498 233.11 239.498 237.676 236.022 237.771V237.692ZM221.944 229.555C221.206 229.995 220.609 230.636 220.222 231.403C219.748 232.304 206.175 269.229 205.528 271.33C205.494 271.443 205.417 271.538 205.313 271.595C205.21 271.651 205.088 271.664 204.975 271.63C204.862 271.597 204.766 271.52 204.71 271.416C204.654 271.312 204.641 271.19 204.674 271.077C205.48 268.091 217.188 234.563 217.314 234.358C220.111 227.374 221.201 227.485 226.542 227.311C228.991 227.232 246.813 227.153 249.388 227.58C249.957 227.675 249.831 228.48 249.388 228.528C247.982 228.702 223.05 229.081 221.944 229.634V229.555ZM245.517 259.575C246.118 257.552 246.671 255.577 247.097 253.697C247.801 253.982 248.531 254.193 249.278 254.329C249.36 254.348 249.445 254.334 249.517 254.289C249.588 254.245 249.638 254.174 249.657 254.092C249.676 254.01 249.662 253.925 249.617 253.853C249.573 253.782 249.502 253.732 249.42 253.713C247.698 253.039 246.097 252.089 244.68 250.901C243.716 249.81 243.274 249.005 244.396 248.215C246.544 249.905 249.341 251.375 250.368 252.117C250.433 252.149 250.508 252.158 250.579 252.142C250.65 252.125 250.713 252.085 250.758 252.027C250.803 251.97 250.826 251.898 250.824 251.825C250.822 251.753 250.795 251.683 250.747 251.627C249.594 250.585 245.691 247.962 243.653 245.924C243.621 245.601 243.688 245.277 243.847 244.994C244.005 244.712 244.246 244.484 244.538 244.344C246.371 245.942 248.374 247.336 250.51 248.499C250.58 248.541 250.663 248.555 250.743 248.537C250.822 248.52 250.892 248.472 250.937 248.404C251.174 248.104 250.937 247.993 249.357 246.682C248.172 245.702 246.513 244.328 245.296 243.127C243.574 241.547 246.876 241.831 249.894 243.127C250.945 243.727 251.801 244.617 252.361 245.689C252.922 246.762 253.162 247.973 253.054 249.178C252.817 253.745 250.005 258.485 245.517 259.733V259.575ZM116.036 32.0389C115.402 32.1315 114.755 32.0032 114.204 31.6755C113.84 30.75 113.223 29.9453 112.424 29.3531C111.625 28.7609 110.676 28.405 109.685 28.3259C107.267 28.4839 106.793 31.8967 104.945 32.1495C103.839 32.3075 102.48 31.1699 100.9 28.7999C100.881 28.7599 100.85 28.7261 100.813 28.7024C100.775 28.6788 100.731 28.6662 100.687 28.6662C100.642 28.6662 100.599 28.6788 100.561 28.7024C100.523 28.7261 100.493 28.7599 100.473 28.7999C100.299 29.393 100.247 30.0153 100.32 30.6291C100.394 31.2429 100.591 31.8354 100.9 32.3707C100.644 32.3589 100.402 32.2519 100.221 32.0705C99.6835 31.5491 99.4149 33.4767 100.71 34.8039C100.313 34.7827 99.9245 34.6749 99.5729 34.4879C98.7829 33.8717 99.1147 37.1265 101.706 38.6117C100.973 38.5654 100.257 38.3723 99.6001 38.0438C98.9432 37.7154 98.3591 37.2584 97.8823 36.6999C97.8512 36.6568 97.8065 36.6254 97.7555 36.6108C97.7044 36.5961 97.6498 36.599 97.6006 36.6191C97.5514 36.6391 97.5104 36.6751 97.4841 36.7213C97.4578 36.7675 97.4478 36.8212 97.4557 36.8737C97.7365 39.2178 98.8199 41.3924 100.522 43.0283C102.224 44.6642 104.44 45.6606 106.793 45.8481C112.023 45.8481 115.325 40.2233 114.109 35.9099C114.417 35.8129 114.748 35.8129 115.057 35.9099C115.103 35.9442 115.159 35.9608 115.216 35.9567C115.273 35.9527 115.326 35.9283 115.367 35.8879C115.407 35.8476 115.431 35.794 115.435 35.7371C115.44 35.6802 115.423 35.6238 115.389 35.5781C115.227 35.3204 115.119 35.0328 115.072 34.7324C115.024 34.432 115.037 34.125 115.111 33.83C115.185 33.5349 115.317 33.2577 115.501 33.0151C115.684 32.7725 115.915 32.5695 116.179 32.4181C116.204 32.3861 116.22 32.3482 116.226 32.308C116.233 32.2678 116.228 32.2266 116.214 32.1886C116.2 32.1505 116.176 32.1167 116.145 32.0905C116.114 32.0643 116.076 32.0465 116.036 32.0389ZM111.17 33.2555C110.857 33.2206 110.568 33.0716 110.358 32.8369C110.148 32.6023 110.032 32.2985 110.032 31.9836C110.032 31.6688 110.148 31.365 110.358 31.1303C110.568 30.8957 110.857 30.7467 111.17 30.7117C111.483 30.7467 111.772 30.8957 111.982 31.1303C112.192 31.365 112.308 31.6688 112.308 31.9836C112.308 32.2985 112.192 32.6023 111.982 32.8369C111.772 33.0716 111.483 33.2206 111.17 33.2555ZM68.6207 190.797C63.4728 190.51 58.3089 190.77 53.2157 191.572C53.1626 191.579 53.1142 191.606 53.0793 191.647C53.0444 191.687 53.0255 191.739 53.0261 191.793C53.0132 194.543 53.3854 197.282 54.1321 199.93C54.1473 199.973 54.1748 200.011 54.2113 200.039C54.2477 200.067 54.2916 200.084 54.3375 200.088C58.9094 200.451 63.507 200.324 68.0519 199.709C68.9525 199.582 69.6003 190.861 68.6207 190.797ZM64.3705 195.964C64.266 196.479 64.0119 196.951 63.6401 197.323C63.2682 197.694 62.7952 197.947 62.2801 198.051C61.765 198.154 61.2309 198.104 60.7444 197.905C60.258 197.706 59.841 197.369 59.5456 196.934C59.2502 196.5 59.0895 195.988 59.0836 195.463C59.0778 194.937 59.227 194.422 59.5127 193.981C59.7984 193.54 60.2078 193.193 60.6896 192.984C61.1715 192.774 61.7044 192.712 62.2217 192.804C62.5722 192.866 62.9068 192.998 63.2056 193.192C63.5044 193.385 63.7615 193.637 63.9617 193.931C64.1619 194.226 64.3012 194.557 64.3714 194.906C64.4416 195.255 64.4413 195.615 64.3705 195.964ZM65.2869 188.98C65.5628 189.031 65.8461 189.027 66.1205 188.969C66.3949 188.91 66.6551 188.798 66.8862 188.639C67.1173 188.479 67.3147 188.276 67.4673 188.041C67.6199 187.805 67.7245 187.542 67.7754 187.266C67.8262 186.99 67.8222 186.707 67.7636 186.432C67.7049 186.158 67.5928 185.898 67.4336 185.667C67.2744 185.436 67.0713 185.238 66.8358 185.086C66.6003 184.933 66.337 184.828 66.0611 184.778C65.5038 184.675 64.9285 184.798 64.4618 185.119C63.9951 185.441 63.6752 185.935 63.5726 186.492C63.4699 187.049 63.5929 187.624 63.9143 188.091C64.2358 188.558 64.7296 188.878 65.2869 188.98Z" fill="#0E3A99"/>
<path d="M73.6293 183.767C65.7293 172.328 47.7489 176.373 45.5685 189.818C45.1271 192.071 45.1977 194.393 45.775 196.614C46.3524 198.835 47.4216 200.898 48.9038 202.651C50.3859 204.403 52.243 205.799 54.3376 206.737C56.4323 207.675 58.711 208.129 61.0051 208.067C74.1507 208.067 80.3601 193.563 73.6293 183.767ZM70.3113 201.147C70.3017 201.192 70.2783 201.233 70.2443 201.264C70.2103 201.296 70.1674 201.315 70.1217 201.321C64.2515 202.108 58.3146 202.272 52.4099 201.811C52.3627 201.804 52.3185 201.784 52.2821 201.753C52.2458 201.723 52.2189 201.682 52.2045 201.637C50.6351 195.822 50.344 189.737 51.3513 183.799C51.3584 183.748 51.3828 183.702 51.4202 183.667C51.4576 183.633 51.5058 183.612 51.5567 183.609C57.9129 182.879 64.3356 182.948 70.6747 183.814C70.7217 183.823 70.765 183.846 70.7989 183.88C70.8327 183.914 70.8555 183.957 70.8643 184.004C71.8539 189.701 71.6657 195.541 70.3113 201.163V201.147Z" fill="#0E3A99"/>
</svg>
