<svg width="343" height="343" viewBox="0 0 343 343" fill="none" xmlns="http://www.w3.org/2000/svg">
<path d="M190.579 28.4806L227.349 32.2536C227.523 32.2686 227.696 32.2166 227.833 32.1082C227.97 31.9999 228.06 31.8433 228.086 31.6705L228.36 29.7325C228.385 29.5575 228.339 29.3799 228.233 29.2385C228.127 29.0971 227.969 29.0034 227.794 28.9779L190.888 25.3764C190.8 25.367 190.711 25.375 190.626 25.4001C190.541 25.4252 190.462 25.4669 190.394 25.5227C190.325 25.5785 190.268 25.6474 190.226 25.7253C190.185 25.8032 190.159 25.8887 190.15 25.9767L189.979 27.6917C189.962 27.7835 189.964 27.8779 189.985 27.9687C190.007 28.0596 190.047 28.1449 190.104 28.2192C190.16 28.2935 190.232 28.3552 190.314 28.4002C190.396 28.4452 190.486 28.4726 190.579 28.4806ZM185.828 53.7254L226.731 58.2359C226.901 58.2559 227.072 58.2103 227.209 58.1082C227.346 58.0061 227.439 57.8554 227.469 57.687L227.846 55.6805C227.876 55.5033 227.835 55.3214 227.733 55.1739C227.63 55.0264 227.474 54.925 227.297 54.8916L186.137 50.6041C186.049 50.5946 185.96 50.6027 185.875 50.6278C185.791 50.6529 185.712 50.6945 185.643 50.7504C185.575 50.8062 185.518 50.875 185.476 50.953C185.434 51.0309 185.408 51.1163 185.4 51.2043L185.211 52.9193C185.197 53.0131 185.201 53.1088 185.225 53.2007C185.248 53.2926 185.29 53.3788 185.348 53.4541C185.405 53.5294 185.478 53.5923 185.56 53.6389C185.643 53.6855 185.734 53.7149 185.828 53.7254ZM185.211 59.0762L212.497 62.026C212.668 62.0415 212.839 61.9918 212.976 61.887C213.112 61.7821 213.205 61.6297 213.234 61.4601L213.526 59.7451C213.556 59.5679 213.515 59.386 213.412 59.2384C213.31 59.0909 213.153 58.9896 212.977 58.9562L185.537 55.9892C185.449 55.9797 185.36 55.9878 185.275 56.0129C185.19 56.038 185.111 56.0796 185.043 56.1355C184.974 56.1913 184.917 56.2601 184.876 56.3381C184.834 56.416 184.808 56.5014 184.799 56.5895L184.611 58.3045C184.596 58.395 184.601 58.4875 184.623 58.5763C184.646 58.6652 184.687 58.7483 184.743 58.8207C184.8 58.8931 184.87 58.9531 184.951 58.9971C185.031 59.041 185.12 59.0679 185.211 59.0762ZM182.484 73.8252L223.335 78.3357C223.512 78.3503 223.688 78.2959 223.825 78.184C223.963 78.0721 224.051 77.9113 224.073 77.7354L224.227 75.6259C224.242 75.4512 224.187 75.2777 224.074 75.143C223.962 75.0083 223.802 74.923 223.627 74.9057L182.81 70.7039C182.722 70.692 182.632 70.6982 182.546 70.7224C182.46 70.7465 182.38 70.788 182.311 70.8443C182.242 70.9005 182.185 70.9704 182.144 71.0495C182.103 71.1286 182.079 71.2152 182.073 71.3041L181.884 73.0191C181.869 73.1116 181.873 73.2061 181.896 73.2969C181.918 73.3878 181.959 73.4733 182.015 73.5484C182.07 73.6235 182.141 73.6866 182.221 73.7341C182.302 73.7817 182.391 73.8126 182.484 73.8252ZM209.598 78.9702L182.158 76.0204C182.07 76.0109 181.981 76.019 181.897 76.0441C181.812 76.0692 181.733 76.1108 181.664 76.1667C181.596 76.2225 181.539 76.2913 181.497 76.3693C181.455 76.4472 181.429 76.5326 181.421 76.6207L181.249 78.3357C181.237 78.424 181.244 78.5138 181.268 78.5996C181.292 78.6854 181.333 78.7653 181.39 78.8344C181.446 78.9035 181.516 78.9604 181.595 79.0014C181.674 79.0425 181.761 79.0669 181.85 79.0731L209.118 82.0058C209.288 82.0258 209.459 81.9802 209.596 81.8781C209.733 81.7761 209.826 81.6253 209.856 81.457L210.147 79.742C210.162 79.6552 210.159 79.5665 210.14 79.4807C210.12 79.395 210.084 79.3139 210.033 79.2422C209.982 79.1705 209.917 79.1096 209.843 79.0629C209.768 79.0163 209.685 78.9847 209.598 78.9702ZM189.807 34.5688L218.328 37.8102C218.498 37.8348 218.671 37.7908 218.81 37.688C218.948 37.5851 219.04 37.4318 219.065 37.2614L219.442 35.1691C219.473 34.9944 219.435 34.8146 219.336 34.6675C219.236 34.5204 219.084 34.4175 218.911 34.3802L190.184 31.2932C190.097 31.2837 190.008 31.2918 189.923 31.3169C189.838 31.342 189.759 31.3836 189.691 31.4395C189.622 31.4953 189.565 31.5641 189.523 31.6421C189.482 31.72 189.456 31.8054 189.447 31.8934L189.207 33.8142C189.188 33.9937 189.24 34.1735 189.352 34.3148C189.464 34.456 189.628 34.5473 189.807 34.5688Z" fill="#0E3A99"/>
<path d="M177.288 92.1586C177.476 95.9487 178.008 105.433 181.712 105.433C185.417 105.433 192.002 96.5661 193.597 94.4395C201.747 95.5951 209.992 95.9283 218.208 95.4342C226.542 94.6968 231.276 91.747 233.557 85.8645C236.867 77.7526 241.068 45.0304 238.942 30.6415C237.827 23.1127 234.329 19.2368 226.937 17.2645C207.489 12.1195 176.55 11.7079 171.697 12.1195C164.031 12.7369 159.023 14.4519 156.125 21.3119C152.009 31.156 149.419 52.9365 149.59 67.1024C149.693 72.4875 149.796 78.5929 153.14 83.0519C157.256 88.5228 166.5 90.4264 177.288 92.1586ZM151.082 66.9652C150.962 53.0394 153.501 31.1217 157.325 21.9465C160 15.5152 165.043 13.8345 171.817 13.3715C184.165 12.5311 212.84 15.0007 226.491 18.7051C233.351 20.5745 236.421 23.9873 237.416 30.8816C239.405 44.6016 235.237 77.6668 232.271 85.3672C230.281 90.7523 226.062 93.3934 218.156 94.2166C209.909 94.7508 201.63 94.4521 193.443 93.3248C193.291 93.3125 193.138 93.3373 192.998 93.397C192.857 93.4568 192.733 93.5497 192.637 93.6678C191.076 95.6229 184.199 104.232 181.729 103.958C180.237 103.821 179.14 99.2415 178.763 91.7127C178.761 91.5773 178.712 91.4467 178.624 91.3434C178.536 91.2402 178.416 91.1706 178.282 91.1467C161.372 88.2141 157.085 85.8988 154.272 82.1087C151.254 78.0441 151.168 72.1102 151.082 66.9652ZM146.349 158.289C149.243 158.599 152.164 158.053 154.75 156.717C157.336 155.381 159.472 153.314 160.893 150.775C162.315 148.235 162.958 145.333 162.745 142.431C162.531 139.528 161.469 136.752 159.691 134.448C157.912 132.144 155.497 130.413 152.743 129.47C149.989 128.528 147.019 128.415 144.202 129.146C141.385 129.877 138.845 131.42 136.897 133.582C134.949 135.745 133.68 138.432 133.246 141.31C132.991 143.286 133.128 145.292 133.648 147.214C134.169 149.137 135.063 150.938 136.28 152.514C137.497 154.091 139.012 155.413 140.74 156.404C142.468 157.394 144.374 158.035 146.349 158.289Z" fill="#0E3A99"/>
<path d="M170.239 42.3035C168.323 42.3035 166.449 42.8718 164.856 43.9365C163.262 45.0012 162.02 46.5146 161.287 48.2851C160.553 50.0557 160.362 52.004 160.735 53.8836C161.109 55.7633 162.032 57.4898 163.387 58.8449C164.742 60.2001 166.469 61.1229 168.349 61.4968C170.228 61.8707 172.177 61.6788 173.947 60.9454C175.718 60.212 177.231 58.9701 178.296 57.3766C179.36 55.7831 179.929 53.9097 179.929 51.9932C179.929 49.4234 178.908 46.9587 177.091 45.1416C175.274 43.3244 172.809 42.3035 170.239 42.3035ZM170.805 57.4812C170.467 57.1564 170.031 56.9531 169.566 56.9034C169.1 56.8537 168.631 56.9605 168.232 57.2068C168.036 57.3535 167.789 57.4176 167.546 57.3856C167.303 57.3535 167.081 57.2279 166.929 57.0353C165.711 55.4575 170.17 53.8454 172.194 56.2464C172.275 56.3377 172.338 56.4439 172.378 56.5592C172.418 56.6745 172.434 56.7966 172.427 56.9184C172.42 57.0402 172.389 57.1595 172.336 57.2693C172.282 57.3791 172.208 57.4773 172.117 57.5584C172.026 57.6395 171.919 57.7018 171.804 57.7418C171.689 57.7818 171.567 57.7987 171.445 57.7916C171.323 57.7844 171.204 57.7533 171.094 57.7001C170.984 57.6468 170.886 57.5725 170.805 57.4812ZM173.377 54.1541C172.446 53.3478 171.293 52.8411 170.069 52.7003C168.845 52.5596 167.608 52.7913 166.517 53.3652C166.405 53.4215 166.282 53.4551 166.157 53.464C166.031 53.473 165.905 53.4571 165.786 53.4173C165.666 53.3774 165.556 53.3145 165.461 53.232C165.365 53.1495 165.288 53.0491 165.231 52.9365C165.175 52.8239 165.141 52.7013 165.132 52.5757C165.123 52.4501 165.139 52.324 165.179 52.2046C165.219 52.0851 165.282 51.9747 165.364 51.8796C165.447 51.7845 165.547 51.7065 165.66 51.6502C167.075 50.8697 168.699 50.5509 170.304 50.7385C171.909 50.9261 173.415 51.6106 174.612 52.6964C174.806 52.8601 174.926 53.094 174.947 53.3464C174.968 53.5989 174.887 53.8494 174.724 54.0427C174.56 54.236 174.326 54.3563 174.074 54.3772C173.821 54.3981 173.571 54.3179 173.377 54.1541ZM175.641 50.7241C174.271 49.4221 172.529 48.5789 170.657 48.3116C168.786 48.0442 166.877 48.3659 165.197 49.2321C164.99 49.3234 164.757 49.336 164.542 49.2675C164.327 49.199 164.144 49.0541 164.028 48.8602C163.912 48.6662 163.871 48.4366 163.912 48.2145C163.954 47.9924 164.075 47.7931 164.254 47.6543C166.274 46.6146 168.566 46.2214 170.818 46.5282C173.07 46.835 175.173 47.8269 176.842 49.3693C176.991 49.5372 177.074 49.7535 177.075 49.9779C177.077 50.2024 176.997 50.4197 176.85 50.5895C176.703 50.7594 176.5 50.8701 176.277 50.9012C176.055 50.9322 175.829 50.8815 175.641 50.7584V50.7241ZM168.215 72.5561L170.788 71.4585L168.678 69.1947L168.215 72.5561ZM167.358 78.7987L170.633 76.6035L167.958 74.4426L167.358 78.7987Z" fill="#0E3A99"/>
<path d="M168.318 64.0326C166.405 64.0461 164.538 64.6259 162.954 65.6988C161.369 66.7717 160.138 68.2898 159.415 70.0615C158.692 71.8332 158.51 73.7793 158.892 75.6544C159.273 77.5295 160.202 79.2496 161.559 80.5979C162.917 81.9461 164.644 82.8622 166.522 83.2306C168.399 83.5989 170.344 83.4031 172.111 82.6677C173.877 81.9323 175.386 80.6904 176.448 79.0984C177.51 77.5065 178.077 75.6358 178.077 73.7223C178.079 72.4434 177.828 71.1767 177.337 69.9956C176.847 68.8144 176.127 67.7423 175.219 66.8411C174.312 65.94 173.235 65.2278 172.05 64.7457C170.865 64.2636 169.597 64.0212 168.318 64.0326ZM172.537 71.8358C172.348 72.7448 171.628 72.8476 169.587 73.7052L171.903 75.5402C172.18 75.768 172.355 76.0962 172.39 76.453C172.426 76.8099 172.318 77.1662 172.091 77.4439C170.766 78.5174 169.355 79.481 167.872 80.3251C167.648 80.4709 167.386 80.5495 167.118 80.5516C166.85 80.5537 166.587 80.4792 166.36 80.3369C166.133 80.1945 165.951 79.9902 165.836 79.7481C165.721 79.506 165.678 79.2361 165.711 78.9702L166.243 75.0943L163.276 76.3463C163.164 76.3935 163.043 76.4182 162.921 76.4188C162.798 76.4194 162.677 76.3959 162.564 76.3498C162.451 76.3036 162.348 76.2356 162.262 76.1496C162.175 76.0637 162.106 75.9615 162.058 75.8489C162.011 75.7363 161.987 75.6155 161.986 75.4933C161.985 75.3712 162.009 75.2501 162.055 75.1371C162.101 75.024 162.169 74.9211 162.255 74.8343C162.341 74.7476 162.443 74.6785 162.556 74.6313L165.986 73.1563L162.813 70.5839C162.655 70.4207 162.562 70.205 162.552 69.9778C162.543 69.7506 162.617 69.5279 162.761 69.352C162.905 69.1761 163.109 69.0594 163.334 69.0241C163.558 68.9887 163.788 69.0373 163.979 69.1604L166.723 71.3727L167.238 67.7198C167.255 67.5887 167.297 67.4622 167.364 67.3478C167.43 67.2334 167.518 67.1333 167.624 67.0535C167.729 66.9736 167.849 66.9156 167.977 66.8828C168.106 66.8499 168.239 66.843 168.37 66.8623C168.884 66.8623 168.747 66.8623 172.16 70.5839C172.323 70.7437 172.444 70.9424 172.509 71.1613C172.575 71.3802 172.585 71.6122 172.537 71.8358ZM172.932 19.0995C171.338 19.0995 169.768 19.4926 168.362 20.2442C166.957 20.9958 165.758 22.0826 164.873 23.4082C163.988 24.7339 163.443 26.2574 163.288 27.8439C163.132 29.4303 163.37 31.0306 163.981 32.5029C164.592 33.9753 165.557 35.2741 166.79 36.2844C168.023 37.2947 169.486 37.9852 171.05 38.2947C172.613 38.6042 174.229 38.5231 175.754 38.0587C177.279 37.5942 178.666 36.7608 179.792 35.6321C181.144 34.2761 182.065 32.5495 182.436 30.6706C182.808 28.7917 182.615 26.8448 181.881 25.0757C181.147 23.3066 179.905 21.7947 178.312 20.731C176.719 19.6674 174.847 19.0997 172.932 19.0995ZM176.55 24.9648L178.094 23.7472C178.263 23.6446 178.465 23.6081 178.659 23.6446C178.854 23.6811 179.029 23.788 179.149 23.945C179.27 24.102 179.329 24.298 179.315 24.4956C179.3 24.6932 179.214 24.8786 179.071 25.0163C177.356 26.3197 177.356 26.3883 177.048 26.3883C176.876 26.4029 176.704 26.3609 176.559 26.2688C176.413 26.1767 176.302 26.0396 176.242 25.8783C176.182 25.7169 176.176 25.5404 176.225 25.3754C176.275 25.2105 176.377 25.0663 176.516 24.9648H176.55ZM173.017 21.5348C173.058 21.3373 173.172 21.1623 173.335 21.0444C173.499 20.9265 173.701 20.8742 173.901 20.8979C174.102 20.9216 174.286 21.0195 174.417 21.1724C174.549 21.3252 174.619 21.5219 174.612 21.7235L174.372 23.6786C174.332 23.8787 174.217 24.056 174.052 24.1749C173.886 24.2939 173.681 24.3455 173.479 24.3194C173.276 24.2932 173.091 24.1914 172.961 24.0342C172.831 23.8771 172.765 23.6765 172.777 23.4728L173.017 21.5348ZM165.729 28.6521C165.569 28.6331 165.419 28.5671 165.298 28.4624C165.176 28.3578 165.089 28.2193 165.046 28.0646C165.004 27.9099 165.009 27.7461 165.06 27.5941C165.111 27.4422 165.207 27.3089 165.334 27.2115C165.677 26.9371 165.831 27.04 167.872 27.2972C168.064 27.3352 168.236 27.4416 168.355 27.5967C168.474 27.7517 168.533 27.9447 168.52 28.1398C168.508 28.335 168.424 28.5188 168.286 28.6573C168.148 28.7957 167.965 28.8792 167.769 28.8922L165.729 28.6521ZM169.279 32.6652C167.564 33.9857 167.564 34.0372 167.255 34.0372C167.141 34.0407 167.027 34.0193 166.922 33.9744C166.817 33.9296 166.722 33.8625 166.646 33.7777C166.569 33.6928 166.512 33.5923 166.478 33.4832C166.444 33.374 166.434 33.2588 166.449 33.1454C166.449 32.6995 166.672 32.6652 168.301 31.4304C168.466 31.3497 168.654 31.3279 168.833 31.3686C169.013 31.4094 169.173 31.5102 169.287 31.6543C169.401 31.7985 169.462 31.9773 169.461 32.1612C169.459 32.3451 169.395 32.5229 169.279 32.6652ZM169.073 25.2221C167.718 23.5071 167.649 23.5071 167.701 23.0955C167.723 22.9403 167.79 22.795 167.893 22.6773C167.997 22.5595 168.132 22.4745 168.284 22.4327C168.435 22.3908 168.595 22.3939 168.744 22.4416C168.893 22.4892 169.025 22.5794 169.124 22.701L170.342 24.2445C170.414 24.4122 170.426 24.5993 170.378 24.7751C170.33 24.951 170.223 25.1053 170.076 25.2128C169.929 25.3203 169.749 25.3746 169.567 25.367C169.385 25.3593 169.211 25.2901 169.073 25.1706V25.2221ZM172.812 36.0437C172.793 36.203 172.727 36.353 172.622 36.4745C172.517 36.596 172.379 36.6835 172.224 36.7259C172.069 36.7682 171.906 36.7635 171.754 36.7122C171.602 36.661 171.468 36.5656 171.371 36.4382C171.114 36.0952 171.199 35.9408 171.371 33.9C171.377 33.7896 171.406 33.6817 171.456 33.583C171.506 33.4844 171.576 33.3971 171.661 33.3265C171.746 33.2559 171.845 33.2036 171.951 33.1729C172.058 33.1421 172.169 33.1336 172.279 33.1477C172.388 33.1619 172.494 33.1984 172.589 33.2551C172.684 33.3119 172.766 33.3875 172.831 33.4774C172.895 33.5672 172.94 33.6694 172.964 33.7775C172.987 33.8856 172.988 33.9974 172.966 34.1058L172.812 36.0437ZM172.812 31.9449C172.182 31.9437 171.567 31.751 171.049 31.3923C170.532 31.0336 170.135 30.5259 169.913 29.9367C169.691 29.3474 169.653 28.7044 169.805 28.0932C169.956 27.4819 170.29 26.9312 170.762 26.5143C171.234 26.0973 171.822 25.8338 172.447 25.7587C173.073 25.6837 173.706 25.8006 174.263 26.0939C174.821 26.3873 175.276 26.8433 175.568 27.4013C175.86 27.9593 175.975 28.5929 175.899 29.218C175.795 29.9405 175.441 30.6038 174.899 31.0926C174.357 31.5814 173.661 31.8648 172.932 31.8934L172.812 31.9449ZM176.585 34.9804C175.23 33.2654 175.161 33.2654 175.213 32.8538C175.227 32.694 175.289 32.5422 175.392 32.4189C175.495 32.2955 175.633 32.2065 175.788 32.1636C175.942 32.1208 176.106 32.1261 176.258 32.179C176.41 32.2318 176.541 32.3296 176.636 32.4594L177.854 34.0029C177.901 34.1584 177.9 34.3245 177.85 34.4794C177.801 34.6343 177.707 34.7707 177.579 34.8708C177.451 34.9709 177.296 35.0301 177.134 35.0405C176.971 35.0508 176.81 35.012 176.67 34.929L176.585 34.9804ZM179.929 30.5214L177.871 30.2813C177.716 30.2592 177.57 30.1923 177.453 30.0888C177.335 29.9853 177.25 29.8497 177.208 29.6986C177.166 29.5476 177.169 29.3876 177.217 29.2383C177.265 29.089 177.355 28.9568 177.476 28.8579C177.836 28.5663 177.991 28.6692 180.015 28.8579C180.228 28.8579 180.433 28.9428 180.584 29.094C180.736 29.2451 180.821 29.4502 180.821 29.6639C180.821 29.8777 180.736 30.0827 180.584 30.2339C180.433 30.3851 180.228 30.47 180.015 30.47L179.929 30.5214ZM329.991 263.71C336.337 257.759 334.862 248.755 331.569 240.798C337.777 233.097 328.722 198.849 293.736 176.948C266.125 159.695 241.96 163.846 218.756 158.649C216.613 150.074 210.027 130.043 201.212 130.66C201.967 123.303 198.348 119.873 190.047 115.037C179.62 108.948 155.336 102.86 145.8 101.437C129.765 99.0357 124.534 104.695 116.337 118.415C113.164 116.837 109.116 114.831 99.3752 110.818C98.0547 105.004 95.9452 101.437 92.7039 99.5845C91.3662 98.2125 79.5155 90.1692 72.9985 85.9846C52.3006 72.8194 30.7206 61.0953 8.41161 50.8956C8.37344 50.8789 8.33178 50.8717 8.29022 50.8747C8.24865 50.8776 8.20842 50.8906 8.17299 50.9126C8.13756 50.9345 8.10799 50.9647 8.08682 51.0006C8.06565 51.0365 8.05352 51.077 8.05146 51.1186C8.05146 51.8389 8.05146 52.079 8.18866 52.1819C32.8504 64.4784 66.3272 82.3316 88.7937 98.4869C79.1211 97.012 68.2137 108.571 63.7718 113.768C29.8148 153.984 20.8454 227.112 40.8766 236.75C29.9919 236.867 19.1102 236.323 8.29156 235.121C8.25502 235.116 8.21784 235.119 8.18255 235.13C8.14727 235.14 8.1147 235.159 8.08705 235.183C8.0594 235.207 8.03732 235.237 8.0223 235.271C8.00728 235.305 7.99968 235.341 8.00001 235.378C8.00001 235.996 8.00001 236.236 8.22296 236.27C20.0101 237.632 31.8801 238.142 43.7406 237.796C47.4622 238.431 51.4238 237.059 56.2258 233.457C56.9976 233.56 61.3708 234.143 62.7771 234.298C54.632 265.818 52.4508 298.582 56.3459 330.904C56.3459 331.195 56.6203 331.127 57.4778 331.127C59.0384 331.127 50.1376 295.112 63.4288 238.825C69.62 212.62 79.5327 189.09 89.9256 176.039C92.6086 172.355 96.0465 169.286 100.01 167.035C112.769 160.69 118.137 181.887 119.218 195.985C121.893 229.787 110.814 268.512 111.174 269.85C111.192 269.921 111.224 269.989 111.269 270.048C111.313 270.107 111.369 270.156 111.433 270.193C111.497 270.23 111.568 270.253 111.642 270.262C111.715 270.271 111.789 270.265 111.86 270.244C138.46 262.904 165.694 242.05 182.947 215.793C183.036 215.662 183.079 215.505 183.067 215.347C182.313 193.052 184.045 134.742 200.938 132.084C209.067 130.729 215.395 151.566 217.402 159.627C222.547 181.527 222.667 210.082 217.967 244.468C217.865 245.222 219.202 245.119 219.322 244.468C221.938 228.217 223.172 211.775 223.01 195.316C253.296 208.024 244.138 266.728 241.977 278.408C241.84 279.128 243.075 279.162 243.212 278.408C244.655 271.344 245.646 264.195 246.179 257.004C259.899 272.439 256.761 303.79 250.947 323.443C250.775 324.009 251.719 324.267 251.907 323.701C253.592 318.289 254.887 312.764 255.783 307.168C259.951 314.148 261.083 322.723 261.34 330.852C261.344 330.917 261.373 330.979 261.421 331.023C261.469 331.068 261.532 331.092 261.597 331.092H262.214C262.283 331.092 262.348 331.065 262.396 331.017C262.445 330.969 262.472 330.903 262.472 330.835C262.558 324.179 261.442 317.562 259.179 311.301C265.199 315.554 270.224 321.694 275.78 323.083C284.578 325.21 284.99 313.857 282.263 305.213C278.438 291.99 269.074 279.196 260.139 268.804C266.299 270.857 272.167 273.699 277.598 277.259C289.552 284.77 297.132 293.602 303.272 300.668C308.417 306.671 316.134 316.292 323.337 313.839C324.401 313.445 325.374 312.837 326.194 312.053C327.014 311.268 327.664 310.323 328.105 309.278C330.746 303.892 329.511 295.952 327.659 290.275C335.016 285.216 333.713 273.297 329.991 263.71ZM102.96 145.015C99.2552 153.59 98.2605 160.45 100.01 165.595C96.4769 167.087 92.6867 170.311 88.7422 175.182C74.6278 192.743 66.1214 221.607 63.0172 233.492L35.3543 229.067C22.0116 200.615 46.1759 123.166 77.0802 103.152L115.753 119.341C110.977 127.635 106.705 136.208 102.96 145.015ZM117.932 141.859C117.747 141.717 117.601 141.531 117.505 141.319C117.41 141.106 117.368 140.874 117.383 140.642C117.65 138.218 118.329 135.857 119.389 133.662C119.477 133.473 119.609 133.308 119.772 133.18C119.936 133.052 120.128 132.964 120.333 132.924C122.124 132.637 123.939 132.527 125.752 132.598C126.764 132.598 126.386 131.363 129.525 127.865C130.125 127.196 129.388 126.973 128.016 121.948C127.946 121.682 127.959 121.402 128.054 121.144C128.149 120.886 128.322 120.664 128.547 120.507C130.547 119.161 132.632 117.946 134.79 116.872C134.983 116.771 135.198 116.718 135.416 116.718C135.634 116.718 135.849 116.771 136.042 116.872C140.227 119.358 140.501 120.696 141.427 120.422C143.489 119.849 145.615 119.538 147.755 119.496C148.853 119.496 148.321 118.209 151.185 114.093C151.309 113.924 151.472 113.788 151.661 113.695C151.849 113.603 152.056 113.557 152.266 113.562C154.722 113.66 157.147 114.146 159.452 115.002C159.66 115.075 159.847 115.2 159.994 115.365C160.141 115.53 160.243 115.73 160.292 115.946C160.641 118.048 160.813 120.177 160.807 122.308C160.807 123.269 162.024 122.977 165.488 126.133C166.346 126.939 167.341 125.258 172.606 124.555C172.814 124.524 173.026 124.546 173.224 124.618C173.421 124.69 173.598 124.81 173.738 124.966C175.351 126.759 176.661 128.804 177.614 131.02C177.699 131.222 177.734 131.441 177.716 131.659C177.698 131.877 177.628 132.088 177.511 132.272C176.162 134.143 174.652 135.894 173 137.503C172.348 138.172 173.223 138.618 173.463 142.785C173.465 142.944 173.513 143.098 173.601 143.229C173.689 143.36 173.814 143.462 173.961 143.523C176.13 144.334 178.187 145.417 180.083 146.747C180.244 146.869 180.375 147.028 180.464 147.209C180.553 147.391 180.599 147.591 180.598 147.793C180.512 150.154 179.995 152.479 179.071 154.653C178.99 154.853 178.861 155.03 178.697 155.171C178.533 155.311 178.338 155.41 178.128 155.459C175.615 155.921 173.068 156.179 170.513 156.231C169.69 156.231 169.947 157.106 167.358 159.97C166.603 160.827 168.232 161.685 169.073 167.31C169.097 167.511 169.074 167.715 169.005 167.905C168.937 168.096 168.825 168.268 168.678 168.407C166.913 170.019 164.867 171.292 162.642 172.163C162.45 172.24 162.243 172.27 162.038 172.252C161.832 172.235 161.634 172.169 161.458 172.06C159.545 170.769 157.753 169.306 156.107 167.687C155.421 167.035 154.855 168.03 150.276 168.287C149.11 168.287 149.745 169.9 146.401 174.341C146.274 174.502 146.112 174.631 145.928 174.721C145.744 174.81 145.542 174.856 145.337 174.856C142.965 174.705 140.641 174.124 138.477 173.141C138.285 173.064 138.114 172.944 137.977 172.789C137.84 172.634 137.741 172.449 137.688 172.249C137.254 170.159 136.996 168.037 136.917 165.904C136.907 165.763 136.863 165.626 136.788 165.507C136.713 165.387 136.61 165.288 136.488 165.218C131.823 162.679 131.669 161.067 130.623 161.547C128.908 162.452 127.079 163.121 125.186 163.537C124.964 163.583 124.733 163.571 124.517 163.502C124.301 163.432 124.106 163.309 123.951 163.142C122.414 161.428 121.194 159.454 120.35 157.311C120.271 157.114 120.241 156.9 120.262 156.688C120.283 156.476 120.354 156.273 120.47 156.094C123.317 151.978 124.894 151.823 124.569 150.777C123.077 145.941 124.071 144.775 123.025 144.363C121.239 143.722 119.53 142.882 117.932 141.859ZM112.684 268.769C113.987 263.521 115.033 258.479 115.994 253.66C122.365 256.122 129.01 257.809 135.785 258.685C128.559 263.051 120.792 266.453 112.684 268.804V268.769ZM146.641 248.618C137.64 248.237 128.748 246.503 120.264 243.473C119.235 243.113 119.647 241.261 120.744 241.501C131.188 243.816 134.567 244.931 146.829 246.646C147.077 246.692 147.299 246.829 147.452 247.031C147.604 247.233 147.675 247.484 147.651 247.735C147.628 247.987 147.511 248.22 147.324 248.39C147.137 248.559 146.893 248.653 146.641 248.652V248.618ZM149.333 234.589C149.316 234.834 149.208 235.062 149.03 235.231C148.852 235.399 148.618 235.495 148.373 235.498C139.212 234.746 130.179 232.862 121.482 229.89C121.249 229.795 121.062 229.613 120.959 229.383C120.857 229.153 120.848 228.892 120.933 228.655C121.19 227.849 121.344 227.901 124.106 228.57C130.966 230.285 139.403 232 146.143 233.149C149.265 233.68 149.453 233.715 149.333 234.624V234.589ZM150.688 222.327C143.348 221.933 129.045 219.12 122.305 216.222C121.344 215.81 121.756 214.009 122.854 214.284C132.081 216.886 141.463 218.902 150.945 220.321C151.216 220.361 151.459 220.508 151.622 220.729C151.784 220.949 151.852 221.225 151.811 221.495C151.77 221.766 151.624 222.009 151.403 222.172C151.183 222.334 150.907 222.402 150.637 222.361L150.688 222.327ZM122.922 198.454C132.996 201.626 143.232 204.259 153.586 206.343C153.844 206.382 154.075 206.521 154.232 206.729C154.388 206.936 154.457 207.197 154.423 207.455C154.39 207.713 154.256 207.948 154.052 208.109C153.847 208.269 153.588 208.344 153.329 208.316C142.714 206.885 132.306 204.202 122.322 200.324C121.31 199.912 121.859 198.146 122.922 198.454ZM181.507 215.21C173.145 227.732 162.86 238.856 151.031 248.172C151.031 234.315 155.936 217.148 165.523 197.117C165.539 197.076 165.546 197.032 165.542 196.989C165.538 196.945 165.524 196.903 165.5 196.866C165.477 196.829 165.445 196.798 165.407 196.776C165.369 196.754 165.326 196.742 165.283 196.739C163.087 196.739 160.292 198.197 147.378 194.527C138.271 191.92 131.274 190.943 121.996 186.741C121.996 186.741 121.156 183.311 120.933 182.522C127 185.255 133.318 187.391 139.798 188.902C155.902 193.189 166.723 197.665 177.528 184.769C186.652 173.741 180.049 169.076 181.507 215.21ZM327.282 289.178C320.662 269.73 300.853 250.282 286.79 243.199C286.727 243.164 286.657 243.144 286.585 243.138C286.513 243.133 286.441 243.143 286.373 243.167C286.305 243.191 286.243 243.229 286.191 243.279C286.139 243.329 286.098 243.389 286.07 243.456C285.418 244.759 288.145 243.902 299.207 253.128C306.547 259.423 324.04 276.23 327.745 296.003C329.082 302.863 327.83 306.928 326.956 308.729C326.595 309.632 326.05 310.45 325.356 311.132C324.662 311.814 323.835 312.345 322.925 312.69C316.477 314.886 309.017 305.316 304.558 300.068C298.487 292.899 290.838 283.981 278.49 276.281C267.823 269.61 259.076 267.106 258.407 267.877C257.738 268.649 275.557 287 281.011 305.745C283.429 313.205 283.823 323.838 276.072 321.9C270.189 320.391 263.964 312.502 258.459 309.586C257.79 308.146 257.005 306.764 256.109 305.453C258.459 288.921 258.167 267.14 246.436 255.238C247.62 235.944 246.145 202.45 223.044 193.738C222.893 182.357 221.56 171.023 219.065 159.918C242.372 165.355 266.228 161.633 292.982 178.166C310.303 188.885 329.957 210.168 332.135 231.537C332.289 232.96 332.598 237.591 331.106 239.717C325.481 227.283 312.961 214.129 303.392 207.492C302.877 207.132 302.277 207.955 302.774 208.333C315.002 217.251 336.388 240.455 332.89 256.267C332.418 258.686 331.221 260.905 329.46 262.63C323.183 247.195 309.446 231.76 298.127 223.065C297.629 222.687 296.96 223.425 297.423 223.853C305.252 230.081 312.239 237.299 318.209 245.325C333.696 266.403 334.485 283.21 327.282 289.178Z" fill="#0E3A99"/>
</svg>
