<svg width="343" height="343" viewBox="0 0 343 343" fill="none" xmlns="http://www.w3.org/2000/svg">
<path d="M150.941 43.6838C151.711 49.6882 155.409 50.629 155.409 50.629C161.452 51.0396 159.329 45.651 159.329 45.651C153.132 33.2487 138.016 37.3714 138.016 37.3714C138.016 37.3714 150.102 37.6794 150.941 43.6838ZM238.503 66.8461C247.165 54.9912 231.792 45.9247 231.792 45.9247C232.805 50.5401 232.805 55.3197 231.792 59.935C230.971 71.1741 238.503 66.8461 238.503 66.8461Z" fill="#0E3A99"/>
<path d="M316.992 77.7603C316.992 77.7603 299.873 34.4806 238.623 17.0319C177.372 -0.416858 131.049 35.8491 131.049 35.8491C189.732 17.0319 200.876 32.2054 200.876 32.2054C200.876 32.2054 210.907 43.6155 220.134 42.2299C229.361 40.8442 223.216 31.9659 223.216 31.9659C245.35 36.3794 248.979 49.3291 254.423 60.3287C259.867 71.3282 266.406 65.7001 272.637 59.5075C278.869 53.315 285.425 60.7392 285.425 60.7392C290.995 68.4467 294.569 77.4117 295.829 86.8347C297.09 96.2578 295.997 105.846 292.649 114.745C281.3 146.084 300.9 147.932 300.9 147.932C340.701 140.832 316.992 77.7603 316.992 77.7603ZM263.565 52.1004C260.278 53.1439 258.617 47.2592 258.617 47.2592C258.234 46.4817 258.15 45.5909 258.38 44.7554C258.611 43.92 259.14 43.1979 259.867 42.726C263.633 41.0153 265.003 45.8736 265.003 45.8736C265.003 45.8736 266.851 51.1253 263.547 52.1517L263.565 52.1004ZM313.568 99.6738C313.992 99.6772 314.409 99.7827 314.784 99.9815C315.158 100.18 315.479 100.466 315.72 100.816C315.96 101.165 316.112 101.567 316.164 101.988C316.216 102.408 316.165 102.835 316.016 103.232C315.126 106.653 311.48 103.933 311.48 103.933C311.222 103.532 311.071 103.071 311.044 102.595C311.016 102.119 311.112 101.643 311.322 101.215C311.532 100.787 311.849 100.42 312.243 100.15C312.636 99.8797 313.093 99.7158 313.568 99.6738ZM308.929 136.385C308.929 136.385 307.388 135.153 308.929 131.253C310.202 127.285 311.136 123.216 311.719 119.09C313.671 112.384 317.899 117.14 317.899 117.14C317.899 117.14 320.895 121.878 316.359 131.047C311.822 140.216 308.929 136.402 308.929 136.402V136.385ZM127.574 103.095C127.61 103.095 127.645 103.081 127.671 103.055C127.696 103.029 127.711 102.995 127.711 102.958C127.711 102.922 127.696 102.887 127.671 102.862C127.645 102.836 127.61 102.821 127.574 102.821C127.537 102.821 127.503 102.836 127.477 102.862C127.451 102.887 127.437 102.922 127.437 102.958C127.437 102.995 127.451 103.029 127.477 103.055C127.503 103.081 127.537 103.095 127.574 103.095ZM142.741 114.214C142.579 114.364 142.401 114.496 142.21 114.608C142.188 114.627 142.173 114.652 142.167 114.681C142.16 114.709 142.163 114.738 142.174 114.765C142.186 114.792 142.205 114.814 142.23 114.829C142.255 114.844 142.284 114.85 142.313 114.847C144.573 114.232 142.467 112.435 142.313 111.238C142.313 110.981 141.731 111.238 142.963 113.256C143.025 113.42 143.036 113.599 142.997 113.769C142.957 113.939 142.868 114.094 142.741 114.214ZM145.035 108.928C144.914 109.527 144.914 110.143 145.035 110.742C145.055 110.77 145.083 110.793 145.114 110.809C145.145 110.825 145.18 110.833 145.215 110.833C145.25 110.833 145.284 110.825 145.315 110.809C145.347 110.793 145.374 110.77 145.394 110.742C145.473 110.174 145.473 109.599 145.394 109.031C145.514 108.723 145.069 108.655 145.035 108.928ZM137.931 109.117C137.789 109.779 137.867 110.47 138.153 111.084C138.186 111.115 138.226 111.138 138.27 111.149C138.313 111.161 138.359 111.162 138.403 111.152C138.447 111.142 138.488 111.121 138.522 111.091C138.556 111.061 138.582 111.024 138.598 110.981C138.645 110.351 138.569 109.718 138.376 109.117C138.353 109.078 138.321 109.045 138.282 109.023C138.243 109 138.198 108.988 138.153 108.988C138.108 108.988 138.064 109 138.025 109.023C137.985 109.045 137.953 109.078 137.931 109.117ZM136.013 107.68C136.39 107.32 138.033 106.14 138.376 105.815C138.718 105.49 137.931 105.028 135.774 107.44C135.62 107.594 135.859 107.851 136.013 107.68ZM146.336 106.927C145.923 106.361 145.384 105.898 144.761 105.576C144.521 105.473 144.333 105.901 144.59 106.003C144.846 106.106 146.524 107.868 146.336 106.927ZM136.63 118.867C136.732 118.987 136.903 118.867 136.835 118.713C136.307 118.026 136.018 117.185 136.013 116.319C137.931 118.423 140.036 117.909 139.214 117.687C138.024 117.425 136.932 116.832 136.065 115.976C135.637 115.566 135.38 117.396 136.63 118.867ZM126.136 105.148C126.072 105.148 126.011 105.173 125.966 105.218C125.921 105.263 125.896 105.324 125.896 105.387C125.896 105.451 125.921 105.512 125.966 105.557C126.011 105.602 126.072 105.627 126.136 105.627C126.199 105.627 126.26 105.602 126.305 105.557C126.35 105.512 126.375 105.451 126.375 105.387C126.375 105.324 126.35 105.263 126.305 105.218C126.26 105.173 126.199 105.148 126.136 105.148ZM128.104 106.944C128.177 106.944 128.247 106.915 128.298 106.864C128.349 106.813 128.378 106.743 128.378 106.67C128.378 106.598 128.349 106.528 128.298 106.477C128.247 106.426 128.177 106.397 128.104 106.397C128.032 106.397 127.962 106.426 127.911 106.477C127.859 106.528 127.831 106.598 127.831 106.67C127.831 106.743 127.859 106.813 127.911 106.864C127.962 106.915 128.032 106.944 128.104 106.944ZM128.413 104.652C128.467 104.637 128.516 104.605 128.55 104.56C128.585 104.515 128.604 104.46 128.604 104.404C128.604 104.347 128.585 104.292 128.55 104.247C128.516 104.202 128.467 104.17 128.413 104.156C128.358 104.17 128.309 104.202 128.275 104.247C128.24 104.292 128.222 104.347 128.222 104.404C128.222 104.46 128.24 104.515 128.275 104.56C128.309 104.605 128.358 104.637 128.413 104.652ZM131.134 105.028C131.193 105.013 131.246 104.979 131.283 104.931C131.32 104.883 131.34 104.824 131.34 104.763C131.34 104.702 131.32 104.643 131.283 104.595C131.246 104.547 131.193 104.513 131.134 104.498C131.076 104.513 131.023 104.547 130.986 104.595C130.949 104.643 130.928 104.702 130.928 104.763C130.928 104.824 130.949 104.883 130.986 104.931C131.023 104.979 131.076 105.013 131.134 105.028ZM131.751 109.681C132.247 109.51 131.597 108.946 131.46 109.39C131.408 109.527 131.58 109.75 131.751 109.681ZM130.929 107.646C130.97 107.646 131.009 107.629 131.038 107.6C131.067 107.572 131.083 107.532 131.083 107.492C131.083 107.451 131.067 107.412 131.038 107.383C131.009 107.354 130.97 107.338 130.929 107.338C130.888 107.338 130.849 107.354 130.82 107.383C130.791 107.412 130.775 107.451 130.775 107.492C130.775 107.532 130.791 107.572 130.82 107.6C130.849 107.629 130.888 107.646 130.929 107.646ZM125.982 108.227C125.936 108.227 125.893 108.245 125.861 108.277C125.829 108.309 125.811 108.353 125.811 108.398C125.811 108.444 125.829 108.487 125.861 108.519C125.893 108.551 125.936 108.569 125.982 108.569C126.027 108.569 126.071 108.551 126.103 108.519C126.135 108.487 126.153 108.444 126.153 108.398C126.153 108.353 126.135 108.309 126.103 108.277C126.071 108.245 126.027 108.227 125.982 108.227ZM127.779 115.19C127.737 115.202 127.7 115.228 127.673 115.264C127.647 115.299 127.632 115.342 127.632 115.386C127.632 115.43 127.647 115.473 127.673 115.509C127.7 115.544 127.737 115.57 127.779 115.583C127.822 115.57 127.859 115.544 127.885 115.509C127.912 115.473 127.926 115.43 127.926 115.386C127.926 115.342 127.912 115.299 127.885 115.264C127.859 115.228 127.822 115.202 127.779 115.19ZM125.571 110.571C125.498 110.571 125.429 110.6 125.377 110.651C125.326 110.702 125.297 110.772 125.297 110.844C125.297 110.917 125.326 110.987 125.377 111.038C125.429 111.089 125.498 111.118 125.571 111.118C125.644 111.118 125.713 111.089 125.765 111.038C125.816 110.987 125.845 110.917 125.845 110.844C125.845 110.772 125.816 110.702 125.765 110.651C125.713 110.6 125.644 110.571 125.571 110.571ZM128.104 108.227C128.069 108.217 128.032 108.216 127.995 108.223C127.959 108.23 127.925 108.245 127.896 108.268C127.866 108.29 127.843 108.319 127.826 108.352C127.81 108.385 127.801 108.421 127.801 108.458C127.801 108.495 127.81 108.531 127.826 108.564C127.843 108.597 127.866 108.626 127.896 108.649C127.925 108.671 127.959 108.686 127.995 108.693C128.032 108.7 128.069 108.699 128.104 108.689C128.155 108.675 128.2 108.645 128.232 108.603C128.263 108.562 128.281 108.511 128.281 108.458C128.281 108.406 128.263 108.355 128.232 108.313C128.2 108.271 128.155 108.241 128.104 108.227ZM130.005 106.79C130.064 106.79 130.12 106.767 130.162 106.725C130.204 106.683 130.227 106.627 130.227 106.568C130.227 106.509 130.204 106.452 130.162 106.411C130.12 106.369 130.064 106.345 130.005 106.345C129.946 106.345 129.889 106.369 129.847 106.411C129.806 106.452 129.782 106.509 129.782 106.568C129.782 106.627 129.806 106.683 129.847 106.725C129.889 106.767 129.946 106.79 130.005 106.79ZM106.74 163.789C106.756 163.71 106.756 163.629 106.74 163.55C106.552 161.839 103.796 163.31 105.028 164.713C105.145 164.829 105.294 164.907 105.456 164.935C105.621 164.972 105.791 164.968 105.954 164.926C106.116 164.883 106.266 164.803 106.392 164.691C106.517 164.579 106.614 164.439 106.675 164.282C106.735 164.125 106.758 163.956 106.74 163.789ZM108.726 154.175C108.852 154.3 109.009 154.388 109.181 154.43C109.353 154.473 109.533 154.467 109.702 154.415C109.836 154.368 109.959 154.294 110.062 154.197C110.166 154.1 110.247 153.983 110.302 153.852C110.357 153.721 110.384 153.58 110.381 153.439C110.378 153.297 110.345 153.157 110.284 153.029C109.976 151.746 107.528 152.927 108.726 154.175ZM112.68 160.094C112.785 159.813 112.785 159.503 112.68 159.222C110.506 157.323 110.678 162.575 112.68 160.094ZM96.4691 167.809C97.5476 168.579 98.5747 167.519 97.6332 166.407C97.2737 165.979 95.1681 166.834 96.4691 167.809ZM106.227 171.864C104.001 170.256 103.676 175.08 106.004 173.574C106.235 173.361 106.387 173.076 106.437 172.766C106.487 172.456 106.431 172.138 106.278 171.864H106.227ZM112.869 145.588C112.355 146.649 114.05 147.572 114.444 145.93C114.444 145.554 114.444 145.058 113.571 144.989C113.408 145.01 113.255 145.077 113.13 145.183C113.005 145.29 112.914 145.43 112.869 145.588ZM111.568 139.019C111.733 139.11 111.923 139.146 112.11 139.122C112.297 139.099 112.472 139.016 112.609 138.887C112.746 138.757 112.838 138.588 112.873 138.402C112.907 138.217 112.882 138.026 112.8 137.856C112.287 136.864 110.421 137.993 111.568 139.019ZM114.803 131.783C114.803 132.758 116.618 132.621 116.515 131.509C116.514 131.397 116.485 131.287 116.431 131.189C116.378 131.09 116.301 131.006 116.207 130.945C115.813 130.466 114.358 130.825 114.803 131.783ZM122.233 121.81C123.208 121.228 122.575 119.808 121.634 120.321C120.401 120.441 121.12 122.46 122.233 121.81ZM115.574 114.232C115.581 114.175 115.581 114.117 115.574 114.06C115.6 113.926 115.592 113.787 115.551 113.656C115.51 113.525 115.437 113.407 115.338 113.311C115.239 113.216 115.118 113.147 114.986 113.111C114.854 113.074 114.714 113.071 114.581 113.103C114.441 113.139 114.314 113.212 114.212 113.315C114.111 113.417 114.039 113.545 114.004 113.685C113.969 113.825 113.972 113.972 114.013 114.11C114.054 114.249 114.132 114.373 114.238 114.471C114.304 114.611 114.414 114.726 114.551 114.797C114.689 114.868 114.846 114.892 114.998 114.864C115.15 114.837 115.289 114.76 115.393 114.646C115.498 114.531 115.561 114.386 115.574 114.232ZM104.72 106.516C103.916 105.473 102.615 106.773 103.419 107.628C103.492 107.695 103.572 107.752 103.659 107.799C104.224 108.347 105.456 107.372 104.72 106.516ZM105.782 96.0986C105.371 96.492 105.422 97.5697 106.141 97.6553C106.308 97.7314 106.494 97.7512 106.673 97.7114C106.852 97.6717 107.012 97.5746 107.131 97.4351C107.249 97.2955 107.318 97.1212 107.328 96.9385C107.338 96.7559 107.288 96.5751 107.185 96.4236C107.123 96.3014 107.035 96.1943 106.926 96.1098C106.818 96.0253 106.693 95.9655 106.559 95.9346C106.425 95.9036 106.287 95.9022 106.152 95.9306C106.018 95.9589 105.891 96.0162 105.782 96.0986ZM108.64 85.3556C108.456 85.2648 108.245 85.2408 108.044 85.2878C107.844 85.3347 107.666 85.4497 107.541 85.6132C107.416 85.7766 107.351 85.9784 107.358 86.1841C107.365 86.3898 107.443 86.5867 107.579 86.7412C107.622 86.9142 107.709 87.073 107.833 87.2019C107.956 87.3309 108.11 87.4257 108.281 87.4768C108.391 87.4912 108.503 87.4834 108.611 87.4541C108.718 87.4248 108.818 87.3744 108.906 87.306C108.993 87.2375 109.067 87.1523 109.121 87.0554C109.175 86.9584 109.21 86.8517 109.223 86.7412C109.26 86.5727 109.256 86.3977 109.211 86.231C109.166 86.0643 109.082 85.9107 108.966 85.7833C108.915 85.6049 108.799 85.4521 108.64 85.3556ZM102.444 91.3942C102.854 90.077 100.629 89.9402 100.629 91.1719C100.633 91.3962 100.722 91.6107 100.877 91.7725C101.033 91.9343 101.244 92.0314 101.468 92.0443C101.68 92.0622 101.892 92.0077 102.069 91.8896C102.247 91.7715 102.378 91.5969 102.444 91.3942ZM101.605 157.973C102.324 159.222 103.899 156.981 102.05 156.861C101.759 157.049 101.297 157.203 101.605 157.973ZM143.391 164.012C143.566 163.983 143.729 163.906 143.862 163.788C143.994 163.671 144.091 163.519 144.141 163.349C144.191 163.18 144.192 162.999 144.145 162.829C144.097 162.659 144.002 162.505 143.871 162.387C143.015 161.463 141.577 163.926 143.391 164.012ZM145.36 151.199C145.565 150.788 145.565 150.258 145.052 150.087C142.587 149.711 143.871 153.474 145.36 151.199ZM141.32 141.089C141.152 141.046 140.975 141.046 140.806 141.089C138.17 142.919 143.836 143.501 141.32 141.089ZM147.517 138.283C148.133 137.736 148.168 136.47 146.969 136.573C145.771 136.675 146.079 139.139 147.517 138.283ZM150.718 144.664C150.702 144.552 150.662 144.445 150.6 144.35C150.537 144.256 150.455 144.176 150.359 144.117C150.233 144.028 150.082 143.979 149.928 143.978C149.773 143.978 149.622 144.024 149.495 144.112C149.368 144.2 149.271 144.324 149.217 144.469C149.164 144.614 149.156 144.771 149.195 144.921C149.229 145.123 149.342 145.303 149.509 145.421C149.675 145.54 149.883 145.588 150.085 145.554C150.287 145.52 150.467 145.407 150.586 145.24C150.705 145.073 150.752 144.866 150.718 144.664ZM155.614 149.899C155.78 149.858 155.929 149.764 156.037 149.631C156.145 149.499 156.207 149.334 156.213 149.163C156.266 148.984 156.244 148.791 156.154 148.628C156.065 148.464 155.913 148.343 155.734 148.291C155.555 148.239 155.362 148.26 155.198 148.35C155.034 148.439 154.913 148.591 154.861 148.77C154.604 149.026 154.741 150.121 155.614 149.899ZM154.176 157.939C154.002 158.019 153.863 158.159 153.782 158.332C152.755 161.822 157.326 157.99 154.176 157.939ZM166.587 158.589C166.563 158.401 166.471 158.229 166.33 158.103C166.188 157.978 166.006 157.907 165.817 157.905C163.044 158.674 166.108 161.258 166.587 158.589ZM169.069 148.667C169.806 149.009 170.405 147.555 169.532 147.162C169.052 146.785 168.025 147.624 168.659 148.462C168.764 148.581 168.911 148.654 169.069 148.667ZM175.575 151.404C176.345 151.404 176.841 149.694 175.575 149.694C175.215 149.694 174.821 149.899 174.736 150.549C174.726 150.662 174.74 150.777 174.778 150.884C174.817 150.991 174.878 151.089 174.958 151.17C175.037 151.251 175.134 151.314 175.24 151.355C175.347 151.395 175.461 151.412 175.575 151.404ZM151.266 175.045C151.493 175.023 151.702 174.911 151.846 174.734C151.991 174.558 152.059 174.331 152.036 174.105C152.014 173.878 151.902 173.669 151.725 173.525C151.549 173.38 151.322 173.312 151.095 173.335C150.868 173.358 150.659 173.469 150.515 173.646C150.37 173.822 150.302 174.049 150.324 174.276C150.347 174.503 150.459 174.711 150.636 174.855C150.812 175 151.039 175.068 151.266 175.045ZM143.682 184.762C144.419 185.361 145.857 184.215 145.035 183.188C144.47 182.213 142.672 183.599 143.682 184.762ZM153.731 187.294C153.911 187.175 154.046 186.998 154.111 186.793C154.176 186.587 154.169 186.366 154.091 186.165C154.091 185.669 152.927 184.899 152.601 186.011C152.498 186.173 152.449 186.365 152.464 186.557C152.479 186.75 152.556 186.932 152.684 187.077C152.811 187.221 152.982 187.321 153.171 187.36C153.36 187.399 153.557 187.376 153.731 187.294ZM142.501 172.514C142.296 172.394 142.21 172.377 141.697 172.514C141.183 172.651 141.132 173.249 141.697 173.762C142.262 174.276 143.751 173.232 142.501 172.514ZM203.906 122.374C203.948 122.1 203.923 121.82 203.833 121.557C203.743 121.295 203.59 121.058 203.388 120.868C203.186 120.677 202.94 120.539 202.672 120.465C202.405 120.391 202.123 120.382 201.852 120.441C201.508 120.573 201.226 120.829 201.064 121.16C200.928 121.291 200.823 121.452 200.758 121.63C200.692 121.807 200.668 121.998 200.688 122.186C200.208 124.085 203.444 124.718 203.906 122.374ZM208.203 127.985C210.223 129.405 212.739 126.446 211.404 124.684C211.088 124.237 210.629 123.913 210.102 123.763C209.576 123.614 209.014 123.649 208.511 123.863C207.09 124.615 206.491 127.13 208.203 127.985ZM209.829 137.633C210.925 140.08 214.965 136.299 212.277 134.605C210.514 133.476 208.973 136.214 209.829 137.633ZM204.796 146.666C205.097 146.699 205.402 146.669 205.691 146.577C205.98 146.485 206.246 146.333 206.472 146.131C206.698 145.93 206.88 145.682 207.004 145.406C207.128 145.13 207.192 144.83 207.193 144.527C207.98 142.44 205.686 141.209 204.3 141.551C202.194 142.064 202.708 146.922 204.796 146.666ZM195.603 149.078C195.955 149.35 196.387 149.497 196.831 149.497C197.275 149.496 197.707 149.348 198.058 149.076C198.409 148.804 198.659 148.422 198.77 147.992C198.88 147.562 198.844 147.107 198.668 146.7C197.692 144.425 194.559 145.366 194.953 148.051C195.083 148.441 195.306 148.793 195.603 149.078ZM190.314 141.14C190.101 141.118 189.887 141.14 189.684 141.204C189.48 141.269 189.293 141.376 189.133 141.517C188.242 142.303 188.225 144.476 189.578 144.715C191.289 145.417 192.864 142.714 191.409 141.585C191.091 141.341 190.712 141.188 190.314 141.14Z" fill="#0E3A99"/>
<path d="M185.949 255.806C176.893 254.779 167.289 253.992 158.319 256.148L143.819 223.902C147.243 218.873 149.366 211.004 150.821 204.127C158.199 205.153 165.629 202.262 163.027 195.351C161.469 191.297 158.918 187.14 157.703 182.966C156.439 178.369 155.941 173.595 156.23 168.836C157.085 169.173 157.985 169.381 158.901 169.452C162.188 169.674 164.721 167.741 167.101 165.774C172.667 161.083 177.252 155.339 180.59 148.872C180.226 147.976 179.797 147.107 179.306 146.272C180.843 145.73 182.282 144.944 183.569 143.946C184.22 152.67 191.872 158.059 197.555 157.032C205.515 155.612 210.668 150.395 215.632 143.963C218.067 141.086 219.676 137.604 220.289 133.887C221.059 127.66 220.015 118.936 213.955 115.549C212.401 114.703 210.668 114.24 208.899 114.198C207.131 114.156 205.378 114.537 203.786 115.309C200.033 116.894 197.043 119.876 195.449 123.623C192.471 118.902 182.011 122.118 184.836 132.176C182.895 132.912 181.228 134.226 180.06 135.94C179.378 136.909 178.622 137.824 177.8 138.677C177.115 139.293 176.242 139.635 175.523 140.217C175.387 140.108 175.266 139.982 175.164 139.84H174.941C169.861 142.858 165.126 146.42 160.818 150.463C156.761 142.081 149.965 130.893 142.381 126.052C142.279 124.461 142.142 122.631 142.159 122.631C144.367 121.365 147.295 121.126 148.236 115.788C148.898 111.497 148.653 107.115 147.517 102.924C152.225 101.213 153.149 94.6103 151.882 95.9789C151.28 96.7275 150.43 97.237 149.486 97.4158C150.804 95.7751 151.481 93.7112 151.39 91.6088C151.298 89.5065 150.445 87.509 148.989 85.9886C148.929 85.9147 148.846 85.8622 148.753 85.8389C148.661 85.8156 148.563 85.8227 148.475 85.8591C148.387 85.8956 148.312 85.9594 148.263 86.0413C148.214 86.1231 148.193 86.2186 148.202 86.3136C148.398 87.4132 148.179 88.5463 147.588 89.4941C146.996 90.4419 146.075 91.1371 145.001 91.4456V89.5468C145.004 89.4766 144.983 89.4075 144.941 89.3509C144.899 89.2943 144.84 89.2536 144.772 89.2356C144.704 89.2177 144.632 89.2234 144.567 89.252C144.503 89.2806 144.451 89.3303 144.419 89.3928C143.959 90.1738 143.348 90.8558 142.622 91.3991C141.896 91.9423 141.07 92.3361 140.19 92.5575C140.427 91.7414 140.622 90.9134 140.772 90.0771C140.781 89.9871 140.764 89.8966 140.725 89.8153C140.685 89.734 140.625 89.6649 140.549 89.6157C140.473 89.5664 140.385 89.5387 140.295 89.5356C140.205 89.5325 140.115 89.5541 140.036 89.5981L136.133 91.9588C136.133 91.9588 136.749 90.385 134.883 90.5219C134.883 90.5219 128.806 96.167 126.632 96.0473C125.074 96.0473 124.407 98.887 126.889 101.179C122.318 104.601 123.654 113.958 128.07 117.088C126.958 118.799 126.786 118.987 127.026 119.039C127.639 119.242 128.28 119.346 128.926 119.346C128.202 119.543 127.511 119.843 126.872 120.236C122.485 114.841 117.732 109.754 112.646 105.011C112.253 92.8826 111.825 81.712 110.763 81.3185C110.472 81.2181 110.175 81.1381 109.873 81.079C110.883 77.7945 109.873 73.1244 106.449 71.6704C118.912 57.814 120.538 57.4035 119.922 54.8375C122.164 56.2573 125.057 54.6493 126.444 52.7676C132.384 50.5779 131.391 36.8585 129.56 38.7231C128.875 39.4244 129.371 41.9562 125.571 42.0589C123.431 42.0589 121.137 41.3233 120.007 42.3155C115.728 42.5378 114.119 49.5344 116.207 52.357C115.517 52.4925 114.864 52.7723 114.29 53.1781L102.187 68.882C101.742 68.882 99.7902 67.6845 99.2766 69.6347C99.1685 70.0439 99.1685 70.4742 99.2766 70.8835C98.7686 70.6947 98.2097 70.6947 97.7017 70.8835C97.3346 70.9901 97.0138 71.2165 96.7904 71.5266C96.5671 71.8366 96.454 72.2124 96.4692 72.5941C96.458 72.8764 96.5294 73.1558 96.6746 73.3981C96.4253 73.4229 96.1917 73.5309 96.0116 73.7047C95.8314 73.8786 95.7152 74.1081 95.6817 74.3561C95.6229 74.6804 95.6354 75.0135 95.7181 75.3325C95.8009 75.6515 95.952 75.9487 96.161 76.2036L81.8327 91.7877C81.8327 91.7877 79.8298 93.9945 80.9083 95.0722C80.9083 95.0722 81.9525 96.1157 84.332 93.7379L100.441 78.8038C100.444 79.3106 100.582 79.8074 100.841 80.2433C101.099 80.6792 101.469 81.0385 101.913 81.2843C101.483 81.2987 101.054 81.3387 100.629 81.404C100.526 81.404 100.629 81.5751 100.629 81.5751C110.438 81.2843 110.712 81.7633 110.763 81.7462C110.9 85.5438 112.338 100.991 112.184 104.909C112.177 104.948 112.177 104.989 112.184 105.028C112.184 105.405 120.213 113.017 126.444 120.424C124.444 121.957 122.788 123.892 121.582 126.104C116.806 134.007 115.077 158.127 114.992 166.082C113.622 178.518 104.72 181.324 101.913 177.937C99.8427 175.614 97.5492 173.499 95.0654 171.624C93.2508 169.571 90.3578 166.715 88.0981 167.519C91.9327 163.926 98.6946 162.387 102.82 154.107C109.411 140.849 109.051 123.093 108.367 130.739C102.647 124.059 98.8882 115.927 97.5075 107.243C96.1267 98.5601 97.1775 89.6643 100.543 81.5409C100.543 81.3698 100.304 81.233 100.235 81.4211C87.8071 109.613 108.144 131.167 108.23 131.338C107.753 135.814 106.882 140.239 105.628 144.562C100.954 161.258 96.6232 160.214 88.7144 166.236C87.5801 166.948 86.6762 167.973 86.1113 169.187C85.5463 170.401 85.3446 171.752 85.5303 173.078C63.0877 181.632 67.6071 200.996 67.6071 200.996L73.6157 238.425C55.8808 245.405 38.3683 252.915 21.1469 261.092C21.0271 261.092 21.0614 261.4 21.2325 261.383C34.0202 260.322 46.2601 263.624 57.5242 269.269C54.3788 270.079 51.3045 271.143 48.3314 272.451C45.3699 273.614 42.4426 274.897 39.5667 276.265C33.4357 279.222 27.546 282.653 21.9515 286.529C21.7119 286.529 21.8146 286.923 21.9515 286.871C31.7092 285.161 38.9161 283.929 48.2801 284.887C39.0873 289.831 20.4451 300.163 20.291 300.163L21.4037 304.423H94.0897C94.0897 304.423 95.4592 299.188 99.3109 305.107C99.3109 305.107 129.56 309.503 163.249 333.966V329.022C163.249 329.022 139.283 307.964 97.171 300.368C109.582 299.753 122.627 297.837 134.832 301.515C153.577 307.194 166.947 316.911 167.512 316.466C188.876 296.776 181.463 304.594 202.126 286.187C204.915 287.431 207.773 288.516 210.685 289.437C208.288 291.011 188.842 304.046 163.865 328.783L164.139 334C164.139 334 190.622 305.073 210.925 292.602C210.925 292.602 210.925 289.181 210.822 289.181C208.032 288.103 205.19 286.906 202.263 286.067C208.22 280.799 210.48 280.302 209.555 279.909C205.751 277.989 201.816 276.343 197.778 274.982C203.187 270.586 214.708 261.776 214.434 261.673C203.17 257.636 202.297 257.67 185.949 255.806ZM119.614 42.7089C119.388 43.0305 119.248 43.4043 119.207 43.795C119.166 44.1858 119.225 44.5805 119.379 44.9418C119.534 45.3032 119.778 45.6193 120.088 45.8602C120.399 46.101 120.766 46.2588 121.154 46.3184C124.355 46.3184 120.726 48.2001 120.589 48.5936C120.542 48.8 120.568 49.0163 120.661 49.2062C120.755 49.3962 120.911 49.5483 121.103 49.6371C122.079 50.099 122.918 49.141 123.739 48.9528C124.253 48.8331 124.903 49.0726 124.955 49.5858C125.006 50.099 124.27 50.5437 124.013 51.1083C123.91 51.3753 123.903 51.67 123.994 51.9416C124.084 52.2132 124.267 52.4448 124.51 52.5965C124.807 52.7817 125.152 52.8767 125.502 52.8702C124.863 53.7333 123.947 54.3516 122.906 54.6223C121.866 54.8931 120.765 54.8 119.785 54.3585C119.606 53.7268 119.22 53.1731 118.69 52.7856C118.159 52.3981 117.514 52.1991 116.858 52.2202C115.437 50.8345 114.427 44.4709 119.614 42.7089ZM101.451 69.0531C101.642 69.1145 101.836 69.1659 102.033 69.207C102.889 69.6689 102.82 71.0717 102.769 71.5506C102.204 71.5506 102.016 72.2007 101.947 72.6455C101.143 72.4231 100.817 72.5086 100.235 71.6533C100.117 71.5043 100.014 71.3438 99.9271 71.1743C99.1568 69.84 99.7731 68.4714 101.451 69.0531ZM97.8729 71.1743C98.4662 71.0709 99.0768 71.1929 99.5848 71.5164C99.7821 71.9521 100.103 72.3205 100.508 72.5758C100.912 72.8312 101.383 72.9625 101.862 72.9534C101.839 73.2214 101.88 73.491 101.981 73.7403C101.826 74.0454 101.573 74.2901 101.263 74.4357C100.953 74.5813 100.604 74.6195 100.27 74.5443C99.7095 74.5999 99.1441 74.5305 98.6142 74.3412C98.0843 74.1519 97.603 73.8473 97.2053 73.4495C97.0574 73.2686 96.9559 73.0545 96.9095 72.8257C96.8632 72.5968 96.8733 72.3601 96.939 72.136C97.0048 71.912 97.1242 71.7073 97.2869 71.5397C97.4496 71.3721 97.6507 71.2467 97.8729 71.1743ZM96.5034 76.1181C96.2269 75.7975 96.0644 75.3945 96.0412 74.972C96.0412 74.4074 96.2466 73.5692 96.9827 73.7916C97.3839 74.1826 97.8617 74.4863 98.3862 74.6835C98.9106 74.8808 99.4703 74.9673 100.03 74.9377C99.9178 75.2791 99.7276 75.5896 99.4744 75.8446C99.2211 76.0996 98.9119 76.2921 98.5712 76.4067C98.2304 76.5213 97.8677 76.5549 97.5117 76.5048C97.1557 76.4547 96.8163 76.3223 96.5205 76.1181H96.5034ZM109.496 80.9422L102.409 81.1303C101.905 80.9334 101.465 80.6005 101.139 80.1686C100.812 79.7367 100.612 79.2228 100.561 78.6841L103.608 75.8786C104.275 77.5893 106.621 77.5893 105.902 77.2642C105.183 76.9392 104.087 76.751 103.847 75.4509C103.823 75.1543 103.915 74.8598 104.104 74.6298C103.525 74.429 102.977 74.1468 102.478 73.7916C102.249 73.4761 102.151 73.084 102.205 72.698C102.26 72.3119 102.462 71.9619 102.769 71.7217H106.056C109.702 73.7916 109.856 77.1103 109.514 80.9422H109.496ZM158.576 263.606C158.965 264.913 159.439 266.194 159.997 267.438C158.327 269.035 156.369 270.3 154.228 271.168C152.002 268.567 152.516 269.132 152.002 268.516C154.372 267.133 156.577 265.486 158.576 263.606ZM159.552 275.393C158.199 276.625 152.704 281.278 150.992 282.235C150.307 281.739 150.992 280.097 151.215 279.55C152.584 277.189 153.577 277.377 153.697 271.527C155.768 271.373 159.757 268.328 160.544 267.319C161.586 269.187 162.413 271.166 163.009 273.22C162.718 273.408 162.342 273.648 162.102 273.836C161.827 273.117 161.421 272.456 160.904 271.886C160.647 271.578 160.288 271.099 159.825 271.321C159.363 271.544 159.209 272.416 159.158 272.827C159.088 273.697 159.205 274.572 159.5 275.393H159.552ZM162.102 200.021C160.39 203.904 154.707 203.819 151.009 203.271C152.122 197.866 152.636 194.068 152.721 193.007C156.676 193.452 162.547 195.71 162.102 200.021ZM186.068 124.222C188.191 121.639 193.121 120.578 195.056 123.914C195.069 123.945 195.091 123.972 195.118 123.993C195.144 124.014 195.176 124.028 195.21 124.034C195.223 124.059 195.242 124.08 195.266 124.095C195.291 124.109 195.318 124.117 195.347 124.117C195.375 124.117 195.403 124.109 195.427 124.095C195.451 124.08 195.471 124.059 195.484 124.034C201.646 111.529 219.998 109.698 219.758 131.68C219.758 138.523 215.239 143.912 210.805 148.667C193.686 166.971 179.204 149.146 185.332 136.282C185.357 136.216 185.357 136.143 185.332 136.077C186.271 135.553 187.298 135.205 188.362 135.05C187.592 138.762 194.2 138.968 194.73 134.623C194.815 133.759 194.601 132.893 194.125 132.168C193.648 131.443 192.938 130.902 192.111 130.637C191.362 130.456 190.572 130.58 189.914 130.981C189.256 131.382 188.784 132.027 188.602 132.775C187.555 132.063 186.274 131.782 185.024 131.988C184.733 129.303 184.305 126.48 186.154 124.222H186.068ZM188.722 132.998C188.924 132.315 189.389 131.74 190.015 131.4C190.641 131.06 191.377 130.983 192.06 131.184C192.667 131.394 193.197 131.779 193.585 132.291C193.972 132.802 194.198 133.418 194.234 134.058C194.354 137.479 188.328 138.899 188.516 135.067H188.688C188.824 135.067 189.013 134.845 189.03 134.794C189.165 134.503 189.215 134.181 189.176 133.864C189.136 133.546 189.009 133.246 188.807 132.998H188.722ZM179.786 136.539C180.887 134.901 182.382 133.566 184.134 132.655C185.452 132.074 189.27 132.125 188.602 134.64C187.354 134.695 186.155 135.144 185.178 135.923C184.596 135.923 183.346 140.251 183.466 143.501C182.08 144.442 180.556 145.212 179.17 146.135C174.017 136.402 174.547 143.193 179.871 136.539H179.786ZM147.26 102.993C149.434 119.62 146.558 119.86 141.885 122.152C141.848 122.171 141.817 122.201 141.795 122.237C141.774 122.274 141.764 122.315 141.765 122.357C141.747 124.277 141.844 126.197 142.056 128.105C140.28 130.168 138.358 132.1 136.304 133.887C132.827 131.358 130.286 127.749 129.08 123.623C129.315 122.175 129.362 120.703 129.217 119.244C130.279 119.244 131.391 119.09 132.316 119.039C132.504 119.039 132.59 118.645 132.572 118.611C131.936 116.82 131.116 115.1 130.124 113.479C130.124 113.65 129.782 114.078 129.697 114.249C129.681 114.24 129.663 114.235 129.645 114.235C129.627 114.235 129.609 114.24 129.594 114.249C126.53 114.249 125.999 109.801 128.755 109.647C130.467 109.544 130.467 111.443 131.717 111.956C131.733 111.964 131.75 111.968 131.768 111.968C131.786 111.968 131.803 111.964 131.819 111.956C132.658 112.162 133.36 111.409 133.531 110.519C133.754 109.031 132.247 107.098 133.822 104.327C139.591 105.439 143.717 103.882 147.277 102.993H147.26ZM127.06 101.162C128.937 102.609 131.112 103.62 133.428 104.122C132.076 106.055 133.274 108.569 133.274 109.733C133.252 110.164 133.089 110.575 132.811 110.906C132.533 111.236 132.155 111.467 131.734 111.563C130.963 110.827 130.741 109.733 129.645 109.322C129.171 109.155 128.655 109.144 128.174 109.292C127.693 109.44 127.273 109.738 126.975 110.143C126.727 110.588 126.603 111.091 126.615 111.601C126.627 112.11 126.775 112.606 127.044 113.039C127.313 113.472 127.693 113.825 128.144 114.062C128.595 114.298 129.102 114.41 129.611 114.386C129.2 115.155 128.738 115.874 128.276 116.609C126.216 114.629 124.955 111.963 124.731 109.117C124.507 106.27 125.336 103.439 127.06 101.162ZM127.334 118.679C128.388 117.294 129.343 115.836 130.193 114.317C130.433 114.933 131.699 117.738 132.11 118.474C131.237 118.491 128.036 118.577 127.334 118.679ZM128.875 119.706C128.875 120.116 128.464 123.435 128.875 123.674C129.309 125.853 130.175 127.922 131.422 129.761C132.668 131.6 134.27 133.172 136.133 134.383C138.534 132.679 140.643 130.6 142.381 128.225C142.412 128.207 142.437 128.183 142.455 128.153C142.473 128.123 142.483 128.089 142.484 128.054C142.484 127.746 142.484 127.113 142.381 126.343C150.496 133.613 153.44 136.795 160.425 150.583C160.544 150.805 160.818 150.686 160.853 150.48C165.612 147.059 169.891 142.971 174.975 139.943C176.687 142.919 178.399 145.759 180.111 148.753C176.071 156.126 167.597 166.869 161.657 168.716C157.514 169.999 152.824 166.544 151.489 165.295L151.386 165.397C152.657 166.848 154.22 168.014 155.974 168.819C154.553 175.336 156.898 182.675 159.226 188.662C160.39 191.639 163.01 195.505 162.462 198.926C162.017 194.171 156.008 190.938 134.028 189.723L135.534 178.364C136.595 172.873 134.404 165.808 134.935 152.961C135.705 134.742 140.824 133.066 144.538 128.67C144.552 128.657 144.563 128.642 144.571 128.626C144.578 128.609 144.583 128.591 144.583 128.573C144.584 128.555 144.581 128.536 144.575 128.519C144.569 128.502 144.559 128.486 144.547 128.473C144.535 128.459 144.52 128.448 144.503 128.441C144.487 128.433 144.469 128.429 144.45 128.428C144.432 128.427 144.414 128.43 144.397 128.436C144.379 128.442 144.364 128.452 144.35 128.464C138.787 133.477 135.791 136.299 134.644 149.882C133.634 161.514 135.705 170.581 135.243 176.79L115.351 166.201C116.703 145.759 117.149 124.923 128.875 119.706ZM86.8656 168.802C89.2622 166.698 91.539 168.802 93.559 170.786C90.9883 171.307 88.4594 172.016 85.9925 172.907C85.814 172.202 85.7999 171.465 85.9513 170.753C86.1026 170.041 86.4154 169.374 86.8656 168.802ZM91.6417 204.315C99.328 203.596 113.297 198.276 113.297 198.276C113.297 198.276 113.81 183.445 114.427 182.367C115.043 181.289 114.94 182.367 114.94 182.367C111.859 227.494 123.808 240.376 123.808 240.376L140.67 260.476C139.461 260.872 138.278 261.341 137.126 261.879C132.775 254.007 127.179 246.89 120.555 240.803C117.412 237.888 113.969 235.313 110.284 233.122C106.603 230.984 102.392 228.966 98.0441 229.291C97.9242 229.085 98.3693 228.966 89.673 232.216L91.6417 204.315ZM22.4137 286.427C27.9008 282.852 33.6196 279.646 39.5324 276.83C42.6994 275.324 45.9348 273.939 49.2045 272.69C52.1318 271.561 55.2474 270.774 58.1062 269.525C72.2109 276.912 84.8143 286.861 95.2709 298.863C85.7871 292.02 73.5986 289.506 62.403 286.888C47.6638 283.416 39.4126 282.988 22.4137 286.495V286.427ZM21.592 300.112C21.7632 300.026 49.0846 285.144 49.2216 284.973C58.5855 286.05 84.3662 291.473 95.9385 300.146C94.4492 300.146 65.3474 298.658 21.592 300.197V300.112ZM21.9858 260.921C38.9675 252.938 56.1946 245.525 73.6671 238.682L74.6257 244.601L76.9539 244.687C77.2201 246.217 77.6506 247.713 78.2378 249.151C77.3818 249.151 76.834 250.862 75.3105 252.573C74.2618 253.52 73.1139 254.352 71.8867 255.053C70.3803 256.148 70.7911 257.328 72.4345 257.859C75.2933 258.765 79.0766 257.072 81.6957 256.148C81.9983 255.204 82.3702 254.283 82.8085 253.394C83.7842 252.47 83.9554 255.344 83.9212 255.772C84.6835 255.908 85.4607 255.943 86.2322 255.874C86.6418 253.514 86.5425 251.094 85.9412 248.775H85.5817C85.7812 247.553 85.8843 246.318 85.8898 245.08L88.6973 245.183L89.5874 232.695C97.8729 229.684 97.8729 229.838 98.027 229.684C106.826 229.872 115.146 236.527 121.171 242.274C127.238 248.163 132.458 254.864 136.681 262.187C129.833 265.608 124.27 271.339 118.672 276.334C110.47 283.355 103.038 291.228 96.5034 299.821C79.0423 279.293 48.845 257.705 21.9858 261.006V260.921ZM81.6615 255.789C79.3675 256.552 77.0142 257.124 74.6257 257.499C73.8725 257.499 70.1577 257.499 72.0237 255.241C74.6843 254.053 76.8205 251.937 78.0323 249.288C80.63 249.674 83.2787 249.535 85.8213 248.878C85.8213 250.417 86.0096 249.271 85.9583 255.532C85.4548 255.526 84.9514 255.555 84.4518 255.618C84.6402 252.145 82.3634 251.734 81.6615 255.926V255.789ZM85.2907 248.724C83.0684 249.04 80.8244 249.177 78.5801 249.134C78.5801 249.134 77.8269 246.141 77.3989 244.687L85.6159 244.977C85.4276 246.329 85.2735 248.826 85.2907 248.861V248.724ZM208.956 280.08C201.612 284.784 195.775 291.541 188.927 296.879C181.221 302.654 174.001 309.05 167.341 316.004C156.963 309.826 145.949 304.785 134.49 300.967C124.938 298.042 106.518 298.47 97.3251 299.992C109.496 294.86 117.953 294.142 130.073 295.425C142.193 296.708 150.496 298.624 161.281 305.689C161.999 306.168 173.777 294.279 197.487 275.017C201.39 276.693 205.156 278.506 208.956 280.217V280.08ZM213.664 261.776C195.775 275.632 178.314 289.951 161.743 305.346C161.734 305.31 161.717 305.275 161.693 305.246C161.67 305.216 161.64 305.192 161.606 305.175C152.036 298.812 141.389 296.143 130.073 294.911C118.09 293.646 108.932 294.33 96.8629 299.753C103.356 291.715 110.452 284.184 118.09 277.223C130.261 266.104 134.113 263.008 140.995 260.75L148.459 269.679C149.557 269.465 150.614 269.078 151.591 268.533L153.954 271.116C153.868 271.116 153.44 271.219 153.44 271.373C152.995 277.035 153.132 275.564 150.872 279.533C150.536 280.011 150.377 280.592 150.42 281.175C150.464 281.758 150.709 282.308 151.112 282.732C151.215 282.732 160.031 275.478 159.997 275.427C159.962 275.376 158.952 271.8 160.134 271.732C161.007 271.732 162.102 274.059 162.188 274.024C162.586 273.862 162.956 273.637 163.283 273.357C162.805 271.043 161.9 268.839 160.613 266.857C160.613 266.857 160.288 266.994 160.236 267.045C159.808 265.745 159.363 264.445 158.867 263.162C160.014 262.101 160.733 261.348 160.733 261.348L158.439 256.216C167.557 254.882 176.816 254.83 185.949 256.062C201.595 258.064 203.016 258.047 213.664 261.913V261.776Z" fill="#0E3A99"/>
<path d="M281.556 183.393V183.291H281.436C281.396 183.285 281.355 183.294 281.32 183.316C281.286 183.338 281.26 183.371 281.248 183.411L260.928 194.769C260.004 199.491 261.1 199.2 259.49 216.905C258.018 218.719 257.094 221.319 251.855 223.269C248.92 224.137 246.058 225.235 243.296 226.553C239.701 228.589 238.76 232.352 242.372 235.107C242.295 235.16 242.226 235.223 242.166 235.295L241.653 235.586C241.584 235.634 241.531 235.702 241.501 235.781C241.47 235.859 241.464 235.945 241.482 236.027C241.501 236.11 241.543 236.185 241.604 236.243C241.664 236.301 241.741 236.34 241.824 236.355C242.046 236.561 242.235 236.458 242.44 236.355C242.449 236.475 242.449 236.595 242.44 236.715C242.44 236.814 242.48 236.91 242.55 236.981C242.621 237.051 242.717 237.091 242.817 237.091C242.917 237.091 243.012 237.051 243.083 236.981C243.154 236.91 243.193 236.814 243.193 236.715V235.996L243.501 235.825C246.052 237.296 249.716 237.998 250.486 241.316C251.051 243.78 249.134 246.79 246.703 248.518C246.703 248.518 246.412 246.106 246.395 246.072C246.275 245.73 245.71 245.73 245.727 246.158V246.962L245.094 245.901C245.033 245.831 244.95 245.784 244.859 245.769C244.768 245.754 244.675 245.772 244.595 245.819C244.515 245.865 244.455 245.939 244.424 246.026C244.393 246.113 244.394 246.208 244.426 246.294C244.871 247.252 245.299 248.21 245.761 249.168C239.564 252.59 237.339 244.977 233.453 241.761C233.949 239.127 234.069 239.178 233.966 238.939C233.981 238.886 233.985 238.831 233.978 238.776C233.972 238.722 233.954 238.669 233.927 238.622C233.9 238.574 233.864 238.532 233.821 238.498C233.778 238.465 233.728 238.44 233.675 238.425C233.623 238.411 233.567 238.407 233.513 238.413C233.459 238.42 233.406 238.437 233.358 238.464C233.311 238.491 233.269 238.528 233.235 238.571C233.201 238.614 233.176 238.663 233.162 238.716C233.042 239.007 232.956 239.315 232.854 239.623C232.751 239.931 232.734 239.794 232.648 240.119L232.46 239.554C232.437 239.47 232.382 239.399 232.307 239.356C232.231 239.312 232.142 239.301 232.058 239.323C231.974 239.346 231.902 239.401 231.859 239.477C231.815 239.552 231.804 239.641 231.827 239.725C231.741 239.896 231.827 240.17 231.981 240.735C231.156 240.213 230.271 239.793 229.344 239.486C226.936 238.781 224.354 238.963 222.069 239.999C221.932 239.349 221.829 238.682 221.744 238.032C221.658 237.382 221.127 237.724 221.042 238.032C220.934 238.079 220.849 238.164 220.802 238.271C220.682 238.1 220.545 237.827 220.22 237.963C220.167 237.945 220.109 237.943 220.054 237.957C219.999 237.971 219.95 238.001 219.912 238.043C219.873 238.085 219.848 238.136 219.839 238.192C219.83 238.248 219.838 238.305 219.861 238.357C220.289 239.041 220.699 239.725 221.11 240.41C218.233 241.925 215.661 243.961 213.527 246.414C213.506 246.45 213.498 246.491 213.504 246.532C213.509 246.573 213.528 246.611 213.557 246.64C213.586 246.669 213.624 246.688 213.665 246.694C213.706 246.699 213.748 246.691 213.783 246.671C216.093 244.617 218.585 242.779 221.23 241.179C221.367 242.001 221.538 242.89 221.709 243.626C221.709 244.088 222.582 243.985 222.514 243.523C222.522 243.421 222.522 243.318 222.514 243.215C222.579 243.155 222.626 243.078 222.651 242.993L222.805 243.232C222.85 243.315 222.92 243.381 223.006 243.419C223.092 243.458 223.188 243.467 223.279 243.446C223.371 243.425 223.453 243.374 223.513 243.301C223.572 243.228 223.606 243.138 223.61 243.044V242.959C223.61 242.912 223.6 242.866 223.579 242.824C223.558 242.783 223.527 242.746 223.49 242.719C223.147 242.03 222.764 241.362 222.343 240.718C223.932 239.978 225.692 239.684 227.435 239.868C229.178 240.051 230.838 240.706 232.237 241.761V241.898C232.237 242.274 232.1 242.651 232.015 243.027C231.929 243.403 231.878 243.677 231.827 244.002C231.775 244.327 232.58 244.806 232.665 244.242V244.002C232.735 243.95 232.789 243.878 232.819 243.797L233.333 245.131C233.521 245.61 234.292 245.422 234.12 244.909C233.949 244.396 233.658 243.506 233.419 242.822C236.705 246.072 239.444 253.291 245.847 250.024C245.967 251.17 245.984 251.512 246.138 252.932C246.157 253.028 246.21 253.115 246.286 253.178C246.363 253.24 246.458 253.274 246.557 253.274C246.656 253.274 246.752 253.24 246.828 253.178C246.904 253.115 246.957 253.028 246.977 252.932C246.977 252.572 246.977 252.213 246.891 251.854C246.908 251.781 246.908 251.705 246.891 251.632C246.935 251.649 246.984 251.649 247.028 251.632C247.319 251.82 247.815 251.632 247.678 251.17C247.441 250.552 247.173 249.947 246.874 249.356C249.904 247.269 252.266 243.301 250.537 240.05C249.253 237.656 246.429 236.886 243.929 235.62C244.734 235.072 246.001 234.85 245.248 234.251C245.025 233.379 244.289 234.251 243.108 234.85V234.132C243.108 234.077 243.086 234.025 243.048 233.986C243.009 233.948 242.957 233.926 242.902 233.926C242.848 233.926 242.796 233.948 242.757 233.986C242.719 234.025 242.697 234.077 242.697 234.132C242.697 234.371 242.611 234.593 242.56 234.833C239.393 232.506 240.18 229.102 243.433 227.203C246.686 225.305 250.64 224.603 254.115 223.166C255.4 222.588 256.558 221.761 257.521 220.733C258.485 219.706 259.236 218.498 259.73 217.179L283.508 205.41C283.553 205.421 283.601 205.415 283.642 205.393C283.683 205.37 283.715 205.334 283.73 205.29C283.388 203.733 281.728 183.496 281.556 183.393ZM271.901 200.295L259.918 216.82C260.261 213.706 261.63 198.652 261.151 194.906L271.936 200.295L281.317 183.855C281.707 190.971 282.456 198.062 283.559 205.102L271.901 200.295ZM32.4795 218.89L30.6135 215.793L29.9288 219.163L26.8474 219.848L29.2783 221.575L28.5593 224.86L31.4352 222.499L34.8076 224.039L33.2498 220.942L35.3041 218.411L32.4795 218.89ZM211.079 215.964L208.442 211.773L207.467 216.341L203.05 217.264L206.508 219.608L205.498 224.073L209.589 220.857L214.4 222.961L212.174 218.77L215.084 215.314L211.079 215.964ZM90.4947 35.7977C92.3435 36.1056 94.7059 35.6951 95.7501 37.5939L95.2366 37.9531C95.1325 38.4283 95.1991 38.9249 95.4249 39.3559C95.7401 40.0287 96.1874 40.6313 96.7402 41.128C97.2931 41.6246 97.9402 42.0051 98.6432 42.2469L99.0369 42.1443C100.013 42.7772 101.348 43.222 102.272 42.2298C103.197 41.2376 102.58 39.6638 102.598 39.6296C104.566 36.9096 100.475 34.3094 100.475 34.3094L99.9956 34.6516C98.181 31.2302 103.077 27.9458 98.7973 22.044C93.8157 15.2014 80.5487 18.3661 84.3491 29.9815C84.7333 31.4249 85.5115 32.7332 86.5967 33.7603C87.6819 34.7873 89.0315 35.4927 90.4947 35.7977ZM97.2052 36.6017C94.9543 34.3585 92.5271 32.2991 89.9469 30.4433C90.6659 30.6144 91.0938 30.9908 91.6588 30.3578V30.1183C92.3264 28.4077 92.7372 30.2039 93.6103 28.9038V28.5445C94.0896 27.8603 94.0211 28.4248 94.4834 28.3734C94.7037 28.3871 94.9246 28.3581 95.1339 28.2879C95.6645 28.0484 95.5618 27.1931 96.4862 27.2957C96.9032 30.1364 97.6441 32.9201 98.6945 35.5924L97.2052 36.6017ZM102.153 40.177C102.29 40.5009 102.335 40.8569 102.28 41.2047C102.226 41.5525 102.075 41.878 101.844 42.1443C101.125 42.8114 100.133 42.4351 99.4478 41.9903C100.472 41.5927 101.396 40.9735 102.153 40.177ZM99.8586 25.6877C100.612 29.109 97.8728 32.5303 99.6018 34.9253L99.0369 35.3187C97.5305 30.3407 95.8357 22.6598 96.3664 26.8681C94.7572 26.7654 95.151 27.4155 94.86 27.655C94.5689 27.8945 93.7815 27.655 93.2508 27.9116C93.0967 27.9116 93.2508 28.2708 93.0967 28.3392C92.0525 29.4341 92.3778 28.63 91.5047 28.9209C91.1794 29.0406 91.1623 29.1261 91.0083 29.3998C90.8542 29.6736 91.4191 29.9986 90.8542 30.3065C90.8542 30.3065 89.9127 30.1696 89.5532 30.1525C86.1294 27.4839 93.3878 34.0528 96.7259 36.9952L96.0412 37.4742C94.0383 33.4712 85.1879 38.5861 84.2464 26.7141C83.4932 16.8607 97.8729 16.3988 99.8586 25.6877ZM222.309 296.143C222.269 296.542 222.371 296.941 222.596 297.273C222.821 297.604 223.156 297.846 223.541 297.956C225.493 298.11 225.664 296.707 225.664 296.707L226.537 293.457L223.113 293.098L222.309 296.143ZM90.0838 9.17985C90.0838 8.92325 89.5874 8.95746 89.6216 9.17985C89.8157 11.0389 90.1244 12.8842 90.5461 14.7053C90.7515 15.304 91.8984 15.4409 90.0838 9.17985ZM99.4135 18.8622C100.172 17.5188 100.747 16.0807 101.125 14.5855C101.12 14.5408 101.102 14.4984 101.075 14.4625C101.047 14.4267 101.011 14.3987 100.969 14.3813C100.928 14.364 100.882 14.3579 100.838 14.3637C100.793 14.3695 100.75 14.387 100.715 14.4145C99.8793 15.7172 99.2392 17.1349 98.8144 18.6227C98.7117 18.9477 99.2595 19.2727 99.4135 18.8622ZM80.4289 19.5122C80.4665 19.5267 80.5071 19.5315 80.547 19.5261C80.5869 19.5207 80.6248 19.5054 80.6572 19.4815C80.6896 19.4577 80.7155 19.426 80.7324 19.3895C80.7494 19.3531 80.7569 19.3129 80.7542 19.2727C79.6089 17.5096 78.2837 15.87 76.7997 14.3803C76.6114 14.2263 76.2862 14.3803 76.4403 14.654C77.0565 15.4238 79.6586 18.7424 80.4289 19.5122ZM72.948 31.504C78.6486 30.7171 78.0836 29.7933 77.6899 29.7933C75.9781 29.9986 74.4374 30.6828 72.8111 31.0079C72.4687 31.0592 72.6228 31.5553 72.948 31.504ZM84.5203 38.2611C84.6743 38.0558 84.4176 37.7479 84.1779 37.8334C82.819 38.6819 81.5258 39.6312 80.3091 40.6731C80.0352 40.8955 80.3091 41.3403 80.6686 41.1521C82.0208 40.2828 83.3081 39.3166 84.5203 38.2611ZM90.4947 39.8862C90.2037 41.3231 90.255 42.8456 90.0496 44.2997C90.0496 44.6589 90.5461 44.83 90.6145 44.4537C90.9985 42.9635 91.1373 41.4209 91.0254 39.8862C91.0254 39.8159 90.9974 39.7484 90.9477 39.6987C90.8979 39.649 90.8304 39.621 90.76 39.621C90.6897 39.621 90.6222 39.649 90.5724 39.6987C90.5227 39.7484 90.4947 39.8159 90.4947 39.8862ZM84.0752 59.9351C84.4873 59.9696 84.9021 59.9158 85.2918 59.7775C85.6815 59.6392 86.0372 59.4195 86.3353 59.1329C86.6333 58.8464 86.8669 58.4997 87.0203 58.116C87.1737 57.7322 87.2435 57.3201 87.225 56.9073C86.9169 52.6819 80.8911 53.2293 80.737 56.6849C80.78 57.5477 81.1481 58.3623 81.7672 58.9652C82.3864 59.5681 83.2109 59.9146 84.0752 59.9351ZM86.506 56.5138C86.5917 56.8675 86.5918 57.2365 86.5065 57.5903C86.4211 57.944 86.2527 58.2724 86.0152 58.5482C85.7776 58.824 85.4778 59.0394 85.1404 59.1764C84.8031 59.3135 84.4379 59.3683 84.0752 59.3364C83.3856 59.351 82.7148 59.1115 82.1907 58.6634C81.6666 58.2154 81.3259 57.5903 81.2335 56.9073C81.2705 56.2644 81.5389 55.6566 81.9892 55.1959C82.4395 54.7352 83.0412 54.4528 83.6835 54.4007C84.3258 54.3486 84.9653 54.5304 85.484 54.9124C86.0028 55.2945 86.3657 55.8511 86.506 56.4796V56.5138ZM163.403 94.8839C163.54 95.2945 181.395 96.0643 185.332 95.9787C184.82 96.4576 184.455 97.0721 184.279 97.7506C184.103 98.4291 184.124 99.1435 184.339 99.8106C184.853 101.094 186.462 101.35 187.66 101.521C194.08 102.377 200.465 103.66 207.569 102.223C217.259 100.272 212.123 90.6586 206.285 95.0892C206.503 93.8333 206.341 92.5411 205.819 91.3781C205.297 90.2151 204.44 89.2343 203.356 88.5616C202.273 87.8889 201.013 87.5549 199.739 87.6024C198.464 87.6499 197.233 88.0767 196.203 88.8282C196.203 84.466 189.732 80.8223 186.993 84.7397C187.695 78.5129 182.165 74.5955 176.191 75.7587C169.771 76.9733 168.624 84.2778 171.483 89.2045C170.615 88.5024 169.542 88.1021 168.425 88.0645C167.309 88.0269 166.211 88.3539 165.298 88.996C164.384 89.6381 163.705 90.5603 163.363 91.6227C163.021 92.6852 163.035 93.8301 163.403 94.8839ZM196.545 89.2387C201.167 86.4846 206.149 89.2387 205.703 95.5853C205.703 95.5853 206.131 95.7563 206.166 95.7221C211.627 91.3428 216.077 99.7422 208.134 101.555C201.681 103.027 193.926 102.069 187.301 100.905C182.165 99.9988 186.034 93.1903 189.92 95.859C190.211 96.0642 190.314 93.7206 192.248 93.7035C193.19 93.7035 194.474 94.0286 194.782 95.0207C194.782 95.0207 195.124 94.576 195.09 94.4733C194.645 92.5574 194.628 90.3849 196.545 89.2387ZM186.274 85.3555C186.274 85.6977 186.804 85.4582 186.822 85.3555C189.92 81.3355 195.381 84.8594 195.552 89.1361C194.871 89.639 194.382 90.3582 194.164 91.1758C193.946 91.9933 194.013 92.8606 194.354 93.6351C192.642 92.489 189.886 92.9851 189.697 95.3458C189.401 95.0877 189.056 94.8911 188.683 94.7676C188.31 94.644 187.916 94.596 187.524 94.6262C187.132 94.6565 186.75 94.7644 186.4 94.9438C186.05 95.1231 185.74 95.3703 185.486 95.6708C178.639 94.7128 164.601 94.7984 163.865 94.4733C163.129 94.1483 163.865 91.3941 164.379 90.573C164.803 90.014 165.345 89.5552 165.966 89.2292C166.588 88.9033 167.273 88.7182 167.975 88.6872C168.676 88.6561 169.375 88.7799 170.023 89.0497C170.671 89.3195 171.251 89.7286 171.723 90.248C171.997 90.4875 172.082 89.8032 172.065 89.7861C164.122 71.6874 188.756 72.6795 186.359 85.3555H186.274ZM204.967 55.5729C204.653 53.347 203.728 51.2513 202.297 49.5172C195.757 43.5641 182.097 50.133 188.927 63.2025C189.687 64.3986 190.528 65.5416 191.444 66.6238C192.984 68.8477 193.686 73.8257 194.011 76.5114C194.011 76.5795 194.038 76.6447 194.087 76.6929C194.135 76.741 194.2 76.768 194.268 76.768H199.181C199.986 76.768 198.924 70.6439 199.934 67.8555C201.407 63.5788 206.114 60.6536 204.967 55.5729ZM194.525 47.9947C195.654 47.7575 196.82 47.7575 197.949 47.9947C199.125 51.1672 199.643 54.5455 199.473 57.9244C199.302 61.3033 198.446 64.6122 196.956 67.6502H195.569C194.08 64.6128 193.221 61.3063 193.041 57.9289C192.862 54.5514 193.366 51.1726 194.525 47.9947ZM188.893 61.8168C186.856 56.6849 186.822 52.22 191.426 49.2777C188.619 52.9214 189.287 62.5695 194.85 67.6673C194.063 67.6673 193.292 67.4278 192.505 67.3423C191.184 65.5797 189.977 63.7341 188.893 61.8168ZM198.77 76.3232C197.675 76.443 196.613 76.3232 195.518 76.3232C194.422 76.3232 194.645 76.922 194.08 73.3638C195.741 73.6286 197.434 73.6286 199.096 73.3638C199.123 74.3605 199.013 75.3562 198.77 76.3232ZM199.096 72.9019C197.384 73.1243 195.672 72.9019 193.96 73.073C193.584 71.2025 193.093 69.3571 192.488 67.5476C194.753 68.3172 197.203 68.3531 199.489 67.6502C199.066 69.3724 198.933 71.1531 199.096 72.919V72.9019ZM199.729 67.1712C199.154 67.2303 198.582 67.3216 198.017 67.4449C203.529 62.0392 203.786 52.5964 201.116 49.2093C203.838 51.1081 205.584 57.0954 203.94 60.3799C202.742 62.7406 200.825 64.7079 199.798 67.2225L199.729 67.1712ZM213.698 79.813C214.057 80.6683 214.383 75.2455 218.08 74.7836C218.217 74.7836 218.337 74.6468 218.217 74.527C217.464 73.7915 215.358 73.7572 215.102 69.2069C215.102 69.0187 214.742 68.9503 214.742 69.2069C214.639 74.3389 208.34 74.4928 209.607 74.8692C212.722 75.7245 213.253 78.7695 213.698 79.813ZM214.913 70.5925C214.962 71.3832 215.2 72.1505 215.608 72.8294C216.017 73.5084 216.583 74.079 217.259 74.4928C216.419 74.9547 215.682 75.5828 215.094 76.3387C214.505 77.0945 214.077 77.9624 213.835 78.8892C213.552 77.997 213.093 77.1708 212.484 76.4596C211.875 75.7484 211.129 75.1668 210.291 74.7494C211.357 74.5185 212.344 74.0135 213.155 73.2844C213.965 72.5554 214.572 71.6275 214.913 70.5925ZM236.243 98.8013C236.106 98.8013 236.14 99.075 236.243 99.1092C237.205 99.3215 238.067 99.853 238.689 100.617C239.311 101.381 239.655 102.333 239.667 103.317C239.667 103.437 239.924 103.471 239.958 103.317C239.992 103.163 239.958 99.8961 242.081 98.6302C242.218 98.6302 242.286 98.2539 242.081 98.271C239.753 98.6131 238.4 93.9772 238.383 93.9088C238.366 93.8404 238.041 93.8062 238.092 93.9088C238.287 94.8156 238.216 95.7594 237.889 96.6271C237.561 97.4949 236.989 98.2497 236.243 98.8013ZM238.708 95.38C239.256 96.7485 240.146 98.4592 241.481 98.6816C240.656 99.4764 240.104 100.513 239.907 101.641C239.345 100.406 238.327 99.4373 237.065 98.9382C238.039 97.9787 238.625 96.6932 238.708 95.3287V95.38ZM122.181 72.7137V72.8677C123.032 73.0236 123.815 73.4343 124.427 74.0454C125.038 74.6565 125.449 75.439 125.605 76.289C125.616 76.3233 125.638 76.3531 125.667 76.3742C125.697 76.3953 125.732 76.4067 125.768 76.4067C125.804 76.4067 125.839 76.3953 125.868 76.3742C125.897 76.3531 125.919 76.3233 125.93 76.289C126.41 74.7323 126.735 73.0559 129.354 72.6795C129.457 72.6795 129.491 72.4571 129.354 72.4571C126.256 72.1492 125.656 68.3173 125.537 68.0436C125.417 67.7699 125.246 68.0436 125.263 68.0436C125.725 70.9518 123.106 72.1834 122.181 72.7137ZM125.742 69.5661C125.951 70.2073 126.295 70.7966 126.749 71.295C127.204 71.7934 127.759 72.1896 128.378 72.4571C127.778 72.7187 127.243 73.1108 126.814 73.6051C126.385 74.0993 126.071 74.6832 125.896 75.3139C125.605 74.6597 125.16 74.085 124.6 73.6384C124.04 73.1918 123.381 72.8864 122.678 72.748C123.412 72.5127 124.077 72.0988 124.612 71.5434C125.147 70.9881 125.535 70.3086 125.742 69.5661ZM281.864 134.93C280.153 129.046 279.913 123.572 279.228 124.256C277.071 126.394 272.381 130.637 272.381 130.654C272.381 130.671 278.629 133.665 281.419 135.238C281.488 135.29 281.916 135.084 281.864 134.93ZM273.048 130.551C275.334 128.785 277.438 126.796 279.331 124.615C279.53 128.005 280.18 131.353 281.265 134.571C278.458 133.083 275.787 132.176 273.048 130.551ZM265.636 134.212C265.168 135.898 264.808 137.612 264.557 139.344C264.557 139.703 265.037 139.857 265.105 139.498C265.554 137.757 265.817 135.974 265.893 134.178C265.88 134.152 265.86 134.131 265.834 134.118C265.809 134.105 265.78 134.099 265.752 134.103C265.724 134.107 265.697 134.12 265.677 134.139C265.656 134.159 265.642 134.184 265.636 134.212ZM263.205 146.837C263.759 145.164 264.171 143.447 264.438 141.705C264.438 141.482 264.13 141.465 264.061 141.705C263.511 143.344 263.099 145.026 262.828 146.734C262.831 146.777 262.846 146.819 262.874 146.852C262.901 146.886 262.938 146.91 262.98 146.922C263.021 146.933 263.066 146.931 263.106 146.916C263.147 146.9 263.181 146.873 263.205 146.837ZM269.385 142.577C269.449 142.597 269.518 142.593 269.579 142.566C269.641 142.538 269.689 142.489 269.717 142.428C269.744 142.367 269.748 142.298 269.728 142.234C269.708 142.17 269.665 142.115 269.607 142.081C268.254 141.394 266.796 140.931 265.294 140.712C264.044 140.73 268.529 142.44 269.385 142.577ZM262.931 139.755C261.442 139.344 259.97 138.814 258.48 138.42C258.155 138.42 256.991 138.745 262.76 140.387C262.844 140.41 262.934 140.399 263.009 140.355C263.084 140.312 263.14 140.24 263.162 140.157C263.185 140.073 263.173 139.983 263.13 139.908C263.087 139.832 263.015 139.777 262.931 139.755ZM219.57 161.839C217.122 163.088 215.067 167.176 215.992 169.828C215.992 169.828 216.129 169.948 216.163 169.965C220.271 170.375 245.265 170.341 253.516 170.17C253.575 170.169 253.632 170.151 253.682 170.119C253.732 170.088 253.772 170.043 253.798 169.99C253.825 169.938 253.836 169.879 253.832 169.82C253.827 169.761 253.807 169.705 253.773 169.657C254.038 168.51 253.929 167.307 253.461 166.227C252.992 165.146 252.19 164.244 251.171 163.652C250.029 163.218 248.807 163.033 247.587 163.11C246.368 163.186 245.179 163.523 244.101 164.097C245.282 161.993 244.101 159.667 242.663 157.853C240.951 155.629 239.068 153.491 236.106 153.286C233.488 152.935 230.83 153.542 228.625 154.996C226.451 156.81 226.64 159.478 227.016 161.993C225.373 159.752 221.778 160.71 219.57 161.839ZM228.694 155.852C229.588 155.037 230.645 154.42 231.795 154.043C232.945 153.666 234.162 153.538 235.366 153.665C236.57 153.793 237.733 154.174 238.778 154.784C239.823 155.394 240.727 156.219 241.43 157.203C243.005 159.153 245.162 161.89 243.262 164.354C243.039 164.645 243.793 164.593 243.81 164.576C251.256 162.233 253.156 164.781 253.276 169.537C245.094 169.999 218.08 169.383 216.214 169.657C215.684 161.531 224.774 159.393 227.29 163.054C227.393 163.208 227.615 163.054 227.461 162.763C227.222 160.471 226.948 157.631 228.694 155.852ZM246.514 184.762C246.703 184.642 246.514 184.351 246.429 184.403C243.519 185.429 241.824 181.289 241.704 181.118C241.584 180.947 241.396 181.118 241.447 181.221C242.252 183.239 242.012 185.617 239.735 186.473C239.705 186.483 239.679 186.503 239.66 186.529C239.642 186.555 239.632 186.586 239.632 186.618C239.632 186.65 239.642 186.681 239.66 186.707C239.679 186.733 239.705 186.753 239.735 186.763C240.697 186.62 241.678 186.819 242.507 187.326C243.337 187.832 243.961 188.614 244.272 189.535C244.272 189.74 244.683 189.706 244.666 189.535C244.648 189.364 244.169 186.13 246.514 184.762ZM244.203 188.354C243.82 187.793 243.311 187.329 242.716 187C242.122 186.67 241.459 186.484 240.78 186.456C241.32 186.029 241.737 185.467 241.99 184.827C242.242 184.187 242.321 183.492 242.218 182.812C242.565 183.425 243.06 183.942 243.658 184.316C244.256 184.689 244.937 184.907 245.641 184.95C245.19 185.395 244.83 185.925 244.583 186.509C244.337 187.093 244.207 187.72 244.203 188.354ZM179.461 251.341C183.381 239.469 192.864 229.102 203.153 222.26C203.478 222.037 203.153 221.524 202.845 221.729C181.515 235.911 178.177 255.344 179.461 251.341ZM172.955 239.246C178.793 230.334 184.425 226.759 193.755 221.781C194.114 221.592 193.755 221.062 193.446 221.25C185.521 225.202 176.773 230.933 172.784 239.144C172.777 239.166 172.778 239.189 172.786 239.211C172.794 239.232 172.81 239.251 172.829 239.262C172.849 239.274 172.872 239.279 172.895 239.276C172.918 239.273 172.939 239.263 172.955 239.246ZM199.524 214.63C200.328 214.527 199.643 213.347 192.368 215.006C176.841 218.428 173.246 225.578 174.085 224.655C181.566 216.478 192.591 215.52 199.524 214.63ZM42.5453 182.641C40.1144 183.924 38.2142 181.991 37.5637 179.801C37.5637 179.63 37.2042 179.647 37.2214 179.801C37.6664 185.173 45.8834 185.036 44.6851 178.09C43.8405 174.594 42.4048 171.267 40.4397 168.254C36.1086 160.881 32.2741 158.195 33.0444 159.153C37.4953 164.679 48.6053 179.459 42.5453 182.641ZM62.5399 192.152C63.567 191.519 63.0021 189.911 63.1048 188.936C63.1048 188.696 62.7453 188.662 62.694 188.936C62.6285 189.435 62.5885 189.938 62.5741 190.441C62.2318 192.152 60.5884 191.69 59.4414 191.143C57.6681 190.105 56.1708 188.655 55.0761 186.917C52.8678 183.855 50.9505 180.554 49.0332 177.321C37.0502 157.357 36.1942 158.606 36.4339 158.897C42.3227 166.543 46.8763 174.943 51.9605 183.12C53.8607 186.199 55.9321 190.065 59.4072 191.673C60.2117 192.049 61.684 192.665 62.5399 192.152ZM43.9661 164.251C43.8463 164.097 43.5895 164.251 43.6922 164.456C51.9263 176.226 50.6082 172.24 43.9661 164.251ZM25.4779 152.43C21.8145 157.956 28.2169 160.522 28.2169 160.522C27.7475 159.836 27.5619 158.995 27.6991 158.176C27.8364 157.356 28.2857 156.621 28.953 156.126C29.4451 156.463 29.9599 156.766 30.4937 157.032C32.0977 156.477 33.5308 155.516 34.6536 154.244C34.4697 153.611 34.2232 152.998 33.9174 152.413C34.633 151.937 35.5069 151.76 36.3518 151.919C37.1966 152.079 37.9452 152.564 38.4368 153.269C38.4368 153.269 38.4368 146.152 31.5893 147.846C23.9544 134.451 12.0226 129.97 24.2625 150.412C24.5878 151.096 25.0157 151.763 25.4779 152.43ZM23.8688 138.899C25.8032 141.055 29.7747 143.21 34.2598 154.004C33.1197 155.055 31.8683 155.979 30.5279 156.758C22.8588 148.581 23.3381 146.991 20.0684 141.619L23.8688 138.899ZM64.1319 108.877C60.7082 109.39 55.3329 113.12 56.6339 117.174C55.5514 116.3 54.2155 115.797 52.8247 115.742C51.4339 115.686 50.0623 116.081 48.9134 116.866C47.5146 117.938 46.498 119.432 46.0141 121.126C45.5301 122.821 45.6043 124.626 46.2258 126.275H76.8853C79.8126 126.275 80.7884 112.966 70.5857 117.003C70.9844 116.025 71.1157 114.959 70.9663 113.914C70.8168 112.869 70.3919 111.882 69.7351 111.055C69.0783 110.228 68.2133 109.591 67.2286 109.208C66.244 108.825 65.1753 108.711 64.1319 108.877ZM70.2604 117.67C75.6699 114.249 80.9082 120.013 76.9538 125.932C76.9538 125.932 48.2629 125.522 46.7051 125.83C44.0346 117.276 53.2616 113.137 57.0961 118.269C57.216 118.44 57.0961 117.704 56.9592 117.516C55.3672 111.837 65.0392 106.362 69.1648 110.93C71.9038 113.941 69.4558 118.2 70.2604 117.67ZM36.4339 71.4479C36.332 71.6222 36.2699 71.8169 36.2521 72.018C36.2344 72.2191 36.2614 72.4216 36.3312 72.6111C35.6978 73.3125 36.7934 75.3311 38.4368 74.2191C41.3044 75.4147 44.3327 76.1813 47.4241 76.4943C46.551 79.2656 44.5481 86.5359 47.0475 88.007C49.5468 89.4782 53.0219 81.1644 54.049 78.684C54.7752 78.4338 55.4486 78.051 56.0348 77.5549C60.4001 77.9142 69.9352 78.2221 67.0079 73.9625C65.8267 72.2519 59.0648 70.9689 57.0106 70.6438C58.1575 67.137 61.2389 56.6335 56.1204 58.6692C53.9463 59.5075 51.8749 64.6052 50.437 68.1805C49.5077 68.3956 48.6587 68.8702 47.989 69.549C45.1987 69.2753 37.5808 68.8819 36.4339 71.4479ZM57.1475 71.0373C59.1333 71.3452 65.9294 72.748 66.6484 74.1678C68.5999 77.897 60.537 77.2128 56.5655 76.9904C57.3533 76.2284 57.8444 75.2112 57.9511 74.1207C58.0577 73.0302 57.7729 71.9373 57.1475 71.0373ZM56.2231 59.0627C60.4 57.8481 57.6953 66.4527 56.4799 70.3359C55.7799 69.5602 54.9114 68.955 53.9411 68.5665C52.9708 68.1781 51.9244 68.0168 50.8821 68.095C51.6524 66.1961 54.3229 59.5759 56.2231 59.0285V59.0627ZM53.467 78.9063C48.6909 91.9758 43.7949 89.7177 47.8178 76.7338C48.3991 77.6552 49.2648 78.3623 50.2841 78.7481C51.3034 79.1339 52.4207 79.1775 53.467 78.8721V78.9063ZM47.7322 69.9596C47.1288 70.8343 46.7735 71.8559 46.7042 72.9161C46.6349 73.9762 46.8541 75.0354 47.3385 75.9811C47.3385 75.9811 40.2171 74.8692 38.7792 73.8941C39.3441 73.3638 38.9503 71.8926 36.879 72.1834C36.5366 71.2426 37.9061 70.7123 38.5053 70.4728C41.5135 69.6764 44.6508 69.4902 47.7322 69.9254V69.9596ZM34.9959 49.7909C35.8133 50.1406 36.5307 50.688 37.0836 51.3838C37.6365 52.0796 38.0074 52.902 38.1629 53.7767C38.6251 54.7518 38.1629 49.9278 40.8848 49.7225C41.0046 49.7225 41.0731 49.5172 40.8848 49.4488C39.6864 48.8329 38.0259 48.6448 36.9646 43.9233C36.9646 43.6496 36.4168 43.7865 36.5537 44.0431C37.6151 46.0959 34.9617 49.5514 34.9446 49.5514C34.9128 49.5582 34.885 49.5774 34.8674 49.6046C34.8497 49.6319 34.8436 49.6651 34.8504 49.6968C34.8572 49.7286 34.8764 49.7563 34.9037 49.774C34.931 49.7916 34.9641 49.7977 34.9959 49.7909ZM37.1186 45.9248C37.3068 46.7058 37.6632 47.4364 38.1628 48.0657C38.6625 48.695 39.2934 49.2078 40.0117 49.5685C39.4891 49.8516 39.0441 50.2585 38.7157 50.7537C38.3874 51.2488 38.1858 51.817 38.1286 52.4082C37.9337 51.7166 37.5583 51.0892 37.0409 50.5902C36.5236 50.0913 35.8828 49.7387 35.1842 49.5685C36.2466 48.626 36.9334 47.3324 37.1186 45.9248ZM34.7563 31.2474C37.8261 30.5487 40.8457 29.6458 43.7949 28.5445C45.6266 29.4683 38.4539 21.7019 35.732 19.8202C35.6122 19.7346 35.4752 19.9228 35.5608 20.0254C35.0301 23.6547 34.6873 27.309 34.5337 30.9737C34.5337 30.9737 34.6878 31.2474 34.7563 31.2474ZM35.7491 20.1965C41.5353 25.9956 41.1929 26.2693 43.3841 28.1853C40.5766 29.0919 37.8034 30.2723 34.9446 30.9565C35.15 27.3471 35.4068 23.7547 35.7491 20.1794V20.1965ZM34.1742 121.228C34.2037 121.264 34.2465 121.287 34.293 121.292C34.3396 121.297 34.3861 121.283 34.4224 121.254C34.4588 121.224 34.4819 121.182 34.4867 121.135C34.4915 121.088 34.4776 121.042 34.4481 121.006C34.2995 120.156 34.3675 119.283 34.6457 118.467C34.924 117.651 35.4035 116.918 36.0402 116.336C36.2456 116.147 36.0402 115.754 35.8519 115.891C33.0444 117.448 31.0757 114.3 31.0415 114.18C31.0073 114.06 30.682 114.18 30.7505 114.3C32.0686 117.721 30.0657 119.004 29.1927 119.432C29.1071 119.432 29.1927 119.637 29.1927 119.603C30.0756 119.2 31.0779 119.143 32.0007 119.444C32.9235 119.745 33.6993 120.382 34.1742 121.228ZM31.4181 115.343C31.8961 115.879 32.5069 116.28 33.189 116.505C33.8712 116.731 34.6006 116.772 35.3041 116.626C34.399 117.63 33.9041 118.936 33.9174 120.287C33.5082 119.839 32.9987 119.494 32.4304 119.28C31.8622 119.065 31.2514 118.989 30.6478 119.056C31.0829 118.554 31.3822 117.95 31.5171 117.3C31.6519 116.65 31.6179 115.976 31.4181 115.343ZM55.4356 154.004C55.35 154.004 55.4356 154.175 55.4356 154.175C56.2888 153.744 57.2757 153.658 58.1908 153.935C59.106 154.212 59.8789 154.831 60.3487 155.664C60.4685 155.835 60.7082 155.664 60.6226 155.441C60.4967 154.592 60.5754 153.726 60.8523 152.913C61.1293 152.101 61.5963 151.367 62.2146 150.771C62.4029 150.583 62.2146 150.224 62.0263 150.326C61.5993 150.537 61.1344 150.659 60.6592 150.686C60.1839 150.714 59.708 150.646 59.2595 150.486C58.8111 150.327 58.3992 150.079 58.0481 149.758C57.6971 149.437 57.4142 149.048 57.216 148.616C57.216 148.462 56.8565 148.616 56.925 148.735C58.3629 152.157 56.3258 153.491 55.4356 154.004ZM57.6611 149.779C58.139 150.315 58.7498 150.716 59.432 150.941C60.1141 151.166 60.8436 151.208 61.547 151.062C60.7298 152.113 60.2628 153.393 60.2117 154.723C59.8096 154.265 59.3011 153.914 58.7309 153.699C58.1607 153.484 57.5464 153.413 56.9421 153.491C57.3685 152.985 57.6584 152.378 57.7842 151.728C57.9101 151.079 57.8677 150.408 57.6611 149.779ZM24.7076 173.916C24.7371 173.953 24.7798 173.976 24.8264 173.981C24.8729 173.985 24.9195 173.972 24.9558 173.942C24.9921 173.913 25.0152 173.87 25.0201 173.823C25.0249 173.777 25.011 173.73 24.9815 173.694C24.622 171.864 24.9815 171.111 26.6078 169.058C26.779 168.853 26.6078 168.511 26.4195 168.613C25.992 168.829 25.5254 168.955 25.0477 168.985C24.57 169.016 24.0911 168.949 23.6399 168.789C23.1888 168.629 22.7747 168.379 22.4228 168.055C22.0708 167.731 21.7882 167.339 21.592 166.903C21.592 166.749 21.2496 166.903 21.3181 167.022C21.5782 167.463 21.7444 167.952 21.8065 168.459C21.8686 168.966 21.8252 169.481 21.6789 169.971C21.5327 170.461 21.2868 170.915 20.9566 171.306C20.6265 171.696 20.2192 172.014 19.7603 172.24V172.411C20.6221 171.988 21.6128 171.908 22.5315 172.187C23.4502 172.467 24.2282 173.085 24.7076 173.916ZM21.9686 168.1C22.4439 168.635 23.0517 169.035 23.7309 169.26C24.4101 169.485 25.1366 169.528 25.8374 169.383C25.3758 169.875 25.0158 170.453 24.7778 171.084C24.5399 171.715 24.4288 172.387 24.4508 173.061C24.045 172.612 23.539 172.265 22.9739 172.048C22.4088 171.831 21.8005 171.75 21.1983 171.812C21.6306 171.309 21.928 170.705 22.0627 170.056C22.1975 169.406 22.1651 168.733 21.9686 168.1ZM37.4439 221.438C41.762 222.821 45.712 225.16 48.999 228.281C51.9811 231.38 54.7764 234.653 57.37 238.083C57.5412 238.288 57.8494 238.083 57.7124 237.827C53.3985 230.317 45.969 223.457 37.4781 221.302C37.3925 221.285 37.3754 221.421 37.4439 221.438ZM57.216 225.493C57.4043 225.595 57.6268 225.322 57.4556 225.185C54.3461 222.247 50.3076 220.486 46.0375 220.207C45.8492 220.207 45.8492 220.498 46.0375 220.515C50.3856 220.823 53.6895 223.235 57.216 225.493ZM57.9007 218.411C54.8535 216.275 51.3127 214.948 47.6113 214.556C43.9099 214.164 40.1696 214.72 36.742 216.17C36.6222 216.17 36.742 216.426 36.742 216.392C40.1846 215.223 43.8418 214.822 47.4561 215.219C51.0704 215.615 54.5538 216.798 57.6611 218.684C57.6974 218.716 57.7448 218.732 57.793 218.729C57.8412 218.726 57.8861 218.704 57.9178 218.667C57.9496 218.631 57.9657 218.584 57.9625 218.535C57.9593 218.487 57.937 218.442 57.9007 218.411ZM231.741 260.955C230.748 263.315 228.608 267.951 228.591 267.986C226.447 275.546 224.766 283.229 223.558 290.994C223.558 290.994 226.982 291.627 226.982 291.593C229.344 283.963 230.645 275.957 232.768 268.293C232.768 268.293 232.015 261.074 232.032 261.04C232.049 261.006 231.792 260.801 231.741 260.955ZM231.895 261.399C231.861 261.901 231.861 262.404 231.895 262.905H231.347C231.587 262.34 231.741 261.861 231.895 261.399ZM223.764 290.72C224.757 286.546 228.351 271.492 228.899 268.157C228.899 268.157 229.961 268.037 230.491 268.037C228.386 275.53 225.184 290.874 225.184 290.891C224.719 290.779 224.242 290.722 223.764 290.72ZM226.845 291.165L225.493 290.943C227.205 283.33 230.748 268.037 230.748 268.02C231.333 268.09 231.907 268.228 232.46 268.43C231.005 271.886 227.787 287.23 226.845 291.165ZM228.882 267.814C229.789 266.359 230.573 264.832 231.227 263.247C231.477 263.331 231.735 263.383 231.998 263.401C231.998 263.658 232.272 266.822 232.409 268.054C231.245 267.846 230.063 267.766 228.882 267.814ZM226.537 291.781C225.513 291.573 224.479 291.419 223.438 291.319C223.319 291.319 223.25 291.49 223.438 291.558C224.422 291.909 225.446 292.134 226.486 292.226C226.708 292.294 226.828 291.832 226.537 291.781ZM223.233 292.448C224.038 293.149 225.27 292.824 226.195 293.218C226.226 293.239 226.261 293.253 226.298 293.258C226.335 293.264 226.373 293.262 226.409 293.251C226.445 293.241 226.478 293.223 226.506 293.198C226.535 293.174 226.557 293.143 226.573 293.109C226.588 293.075 226.595 293.038 226.595 293C226.594 292.963 226.585 292.926 226.569 292.892C226.552 292.859 226.529 292.829 226.499 292.805C226.47 292.782 226.436 292.765 226.4 292.756C225.886 292.585 222.839 292.037 223.233 292.448ZM252.215 277.942C251.262 277.736 250.267 277.881 249.412 278.349C248.557 278.817 247.899 279.577 247.559 280.49C246.138 285.622 254.064 287.641 255.159 282.56C255.374 281.558 255.186 280.512 254.635 279.648C254.084 278.783 253.214 278.171 252.215 277.942ZM248.209 279.926C248.997 278.215 251.633 278.113 252.129 278.215C252.93 278.468 253.622 278.984 254.091 279.68C254.561 280.376 254.78 281.21 254.714 282.047C254.389 287.402 245.847 284.938 248.209 279.926ZM267.913 289.266C268.101 286.204 267.331 283.775 267.194 284.767C267.017 286.296 267.08 287.843 267.382 289.352C267.451 289.642 267.896 289.557 267.913 289.266ZM267.861 297.084C267.861 297.409 268.426 297.323 268.426 296.998C268.437 295.592 268.305 294.187 268.033 292.807C267.536 291.576 267.656 295.732 267.861 297.084ZM272.655 289.865C265.807 290.977 268.187 291.302 272.826 290.481C273.237 290.412 273.048 289.796 272.655 289.865ZM266.68 290.925C265.321 290.944 263.965 291.064 262.623 291.285C262.593 291.295 262.567 291.315 262.548 291.341C262.53 291.367 262.52 291.398 262.52 291.43C262.52 291.462 262.53 291.493 262.548 291.519C262.567 291.545 262.593 291.565 262.623 291.576C263.999 291.765 265.398 291.695 266.749 291.37C266.778 291.366 266.806 291.356 266.831 291.34C266.857 291.325 266.879 291.305 266.896 291.281C266.913 291.257 266.926 291.23 266.933 291.201C266.94 291.173 266.941 291.143 266.937 291.114C266.932 291.084 266.922 291.056 266.907 291.031C266.892 291.006 266.871 290.984 266.848 290.966C266.824 290.949 266.797 290.936 266.768 290.929C266.739 290.922 266.709 290.921 266.68 290.925Z" fill="#0E3A99"/>
<path d="M27.926 150.72C27.9612 151.015 28.1035 151.287 28.3259 151.484C28.5483 151.682 28.8354 151.791 29.1328 151.791C29.4302 151.791 29.7173 151.682 29.9397 151.484C30.1622 151.287 30.3045 151.015 30.3397 150.72C30.3397 150.053 27.926 149.112 27.926 150.72ZM25.2897 146.614C25.3252 146.914 25.4694 147.19 25.695 147.39C25.9206 147.59 26.2119 147.701 26.5137 147.701C26.8154 147.701 27.1067 147.59 27.3323 147.39C27.5579 147.19 27.7021 146.914 27.7377 146.614C27.7021 146.315 27.5579 146.039 27.3323 145.838C27.1067 145.638 26.8154 145.528 26.5137 145.528C26.2119 145.528 25.9206 145.638 25.695 145.838C25.4694 146.039 25.3252 146.315 25.2897 146.614ZM22.2426 142.8C22.2426 143.122 22.3706 143.431 22.5985 143.658C22.8265 143.886 23.1356 144.014 23.458 144.014C23.7803 144.014 24.0895 143.886 24.3174 143.658C24.5454 143.431 24.6734 143.122 24.6734 142.8C24.6734 142.132 22.2426 141.191 22.2426 142.8ZM107.117 119.757C107.412 119.757 107.695 119.64 107.904 119.431C108.112 119.223 108.23 118.94 108.23 118.645C108.23 118.35 108.112 118.067 107.904 117.859C107.695 117.65 107.412 117.533 107.117 117.533C106.432 117.533 105.645 119.757 107.117 119.757ZM116.121 123.914C116.141 123.764 116.128 123.613 116.083 123.469C116.039 123.325 115.965 123.192 115.865 123.079C115.766 122.966 115.643 122.875 115.506 122.813C115.368 122.751 115.219 122.719 115.069 122.719C114.918 122.719 114.769 122.751 114.632 122.813C114.494 122.875 114.372 122.966 114.272 123.079C114.172 123.192 114.098 123.325 114.054 123.469C114.01 123.613 113.997 123.764 114.016 123.914C114.016 124.547 116.121 125.334 116.121 123.914Z" fill="#0E3A99"/>
</svg>
